G04 #@! TF.GenerationSoftware,KiCad,Pcbnew,5.0.2-bee76a0~70~ubuntu18.04.1*
G04 #@! TF.CreationDate,2019-08-08T16:15:43+02:00*
G04 #@! TF.ProjectId,Badge (copy),42616467-6520-4286-936f-7079292e6b69,V01*
G04 #@! TF.SameCoordinates,Original*
G04 #@! TF.FileFunction,Soldermask,Top*
G04 #@! TF.FilePolarity,Negative*
%FSLAX46Y46*%
G04 Gerber Fmt 4.6, Leading zero omitted, Abs format (unit mm)*
G04 Created by KiCad (PCBNEW 5.0.2-bee76a0~70~ubuntu18.04.1) date Thu 08 Aug 2019 04:15:43 PM SAST*
%MOMM*%
%LPD*%
G01*
G04 APERTURE LIST*
%ADD10C,0.020000*%
G04 APERTURE END LIST*
D10*
G36*
X112737533Y-104457332D02*
X112783284Y-104471211D01*
X112825457Y-104493752D01*
X112862416Y-104524084D01*
X112892748Y-104561043D01*
X112915289Y-104603216D01*
X112929168Y-104648967D01*
X112934100Y-104699041D01*
X112934100Y-105358959D01*
X112929168Y-105409033D01*
X112915289Y-105454784D01*
X112892748Y-105496957D01*
X112862416Y-105533916D01*
X112825457Y-105564248D01*
X112783284Y-105586789D01*
X112737533Y-105600668D01*
X112687459Y-105605600D01*
X112102541Y-105605600D01*
X112052467Y-105600668D01*
X112006716Y-105586789D01*
X111964543Y-105564248D01*
X111927584Y-105533916D01*
X111897252Y-105496957D01*
X111874711Y-105454784D01*
X111860832Y-105409033D01*
X111855900Y-105358959D01*
X111855900Y-104699041D01*
X111860832Y-104648967D01*
X111874711Y-104603216D01*
X111897252Y-104561043D01*
X111927584Y-104524084D01*
X111964543Y-104493752D01*
X112006716Y-104471211D01*
X112052467Y-104457332D01*
X112102541Y-104452400D01*
X112687459Y-104452400D01*
X112737533Y-104457332D01*
X112737533Y-104457332D01*
G37*
G36*
X111162533Y-104457332D02*
X111208284Y-104471211D01*
X111250457Y-104493752D01*
X111287416Y-104524084D01*
X111317748Y-104561043D01*
X111340289Y-104603216D01*
X111354168Y-104648967D01*
X111359100Y-104699041D01*
X111359100Y-105358959D01*
X111354168Y-105409033D01*
X111340289Y-105454784D01*
X111317748Y-105496957D01*
X111287416Y-105533916D01*
X111250457Y-105564248D01*
X111208284Y-105586789D01*
X111162533Y-105600668D01*
X111112459Y-105605600D01*
X110527541Y-105605600D01*
X110477467Y-105600668D01*
X110431716Y-105586789D01*
X110389543Y-105564248D01*
X110352584Y-105533916D01*
X110322252Y-105496957D01*
X110299711Y-105454784D01*
X110285832Y-105409033D01*
X110280900Y-105358959D01*
X110280900Y-104699041D01*
X110285832Y-104648967D01*
X110299711Y-104603216D01*
X110322252Y-104561043D01*
X110352584Y-104524084D01*
X110389543Y-104493752D01*
X110431716Y-104471211D01*
X110477467Y-104457332D01*
X110527541Y-104452400D01*
X111112459Y-104452400D01*
X111162533Y-104457332D01*
X111162533Y-104457332D01*
G37*
G36*
X105625533Y-103314332D02*
X105671284Y-103328211D01*
X105713457Y-103350752D01*
X105750416Y-103381084D01*
X105780748Y-103418043D01*
X105803289Y-103460216D01*
X105817168Y-103505967D01*
X105822100Y-103556041D01*
X105822100Y-104215959D01*
X105817168Y-104266033D01*
X105803289Y-104311784D01*
X105780748Y-104353957D01*
X105750416Y-104390916D01*
X105713457Y-104421248D01*
X105671284Y-104443789D01*
X105625533Y-104457668D01*
X105575459Y-104462600D01*
X104990541Y-104462600D01*
X104940467Y-104457668D01*
X104894716Y-104443789D01*
X104852543Y-104421248D01*
X104815584Y-104390916D01*
X104785252Y-104353957D01*
X104762711Y-104311784D01*
X104748832Y-104266033D01*
X104743900Y-104215959D01*
X104743900Y-103556041D01*
X104748832Y-103505967D01*
X104762711Y-103460216D01*
X104785252Y-103418043D01*
X104815584Y-103381084D01*
X104852543Y-103350752D01*
X104894716Y-103328211D01*
X104940467Y-103314332D01*
X104990541Y-103309400D01*
X105575459Y-103309400D01*
X105625533Y-103314332D01*
X105625533Y-103314332D01*
G37*
G36*
X107200533Y-103314332D02*
X107246284Y-103328211D01*
X107288457Y-103350752D01*
X107325416Y-103381084D01*
X107355748Y-103418043D01*
X107378289Y-103460216D01*
X107392168Y-103505967D01*
X107397100Y-103556041D01*
X107397100Y-104215959D01*
X107392168Y-104266033D01*
X107378289Y-104311784D01*
X107355748Y-104353957D01*
X107325416Y-104390916D01*
X107288457Y-104421248D01*
X107246284Y-104443789D01*
X107200533Y-104457668D01*
X107150459Y-104462600D01*
X106565541Y-104462600D01*
X106515467Y-104457668D01*
X106469716Y-104443789D01*
X106427543Y-104421248D01*
X106390584Y-104390916D01*
X106360252Y-104353957D01*
X106337711Y-104311784D01*
X106323832Y-104266033D01*
X106318900Y-104215959D01*
X106318900Y-103556041D01*
X106323832Y-103505967D01*
X106337711Y-103460216D01*
X106360252Y-103418043D01*
X106390584Y-103381084D01*
X106427543Y-103350752D01*
X106469716Y-103328211D01*
X106515467Y-103314332D01*
X106565541Y-103309400D01*
X107150459Y-103309400D01*
X107200533Y-103314332D01*
X107200533Y-103314332D01*
G37*
G36*
X119748033Y-103314332D02*
X119793784Y-103328211D01*
X119835957Y-103350752D01*
X119872916Y-103381084D01*
X119903248Y-103418043D01*
X119925789Y-103460216D01*
X119939668Y-103505967D01*
X119944600Y-103556041D01*
X119944600Y-104215959D01*
X119939668Y-104266033D01*
X119925789Y-104311784D01*
X119903248Y-104353957D01*
X119872916Y-104390916D01*
X119835957Y-104421248D01*
X119793784Y-104443789D01*
X119748033Y-104457668D01*
X119697959Y-104462600D01*
X119113041Y-104462600D01*
X119062967Y-104457668D01*
X119017216Y-104443789D01*
X118975043Y-104421248D01*
X118938084Y-104390916D01*
X118907752Y-104353957D01*
X118885211Y-104311784D01*
X118871332Y-104266033D01*
X118866400Y-104215959D01*
X118866400Y-103556041D01*
X118871332Y-103505967D01*
X118885211Y-103460216D01*
X118907752Y-103418043D01*
X118938084Y-103381084D01*
X118975043Y-103350752D01*
X119017216Y-103328211D01*
X119062967Y-103314332D01*
X119113041Y-103309400D01*
X119697959Y-103309400D01*
X119748033Y-103314332D01*
X119748033Y-103314332D01*
G37*
G36*
X118173033Y-103314332D02*
X118218784Y-103328211D01*
X118260957Y-103350752D01*
X118297916Y-103381084D01*
X118328248Y-103418043D01*
X118350789Y-103460216D01*
X118364668Y-103505967D01*
X118369600Y-103556041D01*
X118369600Y-104215959D01*
X118364668Y-104266033D01*
X118350789Y-104311784D01*
X118328248Y-104353957D01*
X118297916Y-104390916D01*
X118260957Y-104421248D01*
X118218784Y-104443789D01*
X118173033Y-104457668D01*
X118122959Y-104462600D01*
X117538041Y-104462600D01*
X117487967Y-104457668D01*
X117442216Y-104443789D01*
X117400043Y-104421248D01*
X117363084Y-104390916D01*
X117332752Y-104353957D01*
X117310211Y-104311784D01*
X117296332Y-104266033D01*
X117291400Y-104215959D01*
X117291400Y-103556041D01*
X117296332Y-103505967D01*
X117310211Y-103460216D01*
X117332752Y-103418043D01*
X117363084Y-103381084D01*
X117400043Y-103350752D01*
X117442216Y-103328211D01*
X117487967Y-103314332D01*
X117538041Y-103309400D01*
X118122959Y-103309400D01*
X118173033Y-103314332D01*
X118173033Y-103314332D01*
G37*
G36*
X100266033Y-100520332D02*
X100311784Y-100534211D01*
X100353957Y-100556752D01*
X100390916Y-100587084D01*
X100421248Y-100624043D01*
X100443789Y-100666216D01*
X100457668Y-100711967D01*
X100462600Y-100762041D01*
X100462600Y-101421959D01*
X100457668Y-101472033D01*
X100443789Y-101517784D01*
X100421248Y-101559957D01*
X100390916Y-101596916D01*
X100353957Y-101627248D01*
X100311784Y-101649789D01*
X100266033Y-101663668D01*
X100215959Y-101668600D01*
X99631041Y-101668600D01*
X99580967Y-101663668D01*
X99535216Y-101649789D01*
X99493043Y-101627248D01*
X99456084Y-101596916D01*
X99425752Y-101559957D01*
X99403211Y-101517784D01*
X99389332Y-101472033D01*
X99384400Y-101421959D01*
X99384400Y-100762041D01*
X99389332Y-100711967D01*
X99403211Y-100666216D01*
X99425752Y-100624043D01*
X99456084Y-100587084D01*
X99493043Y-100556752D01*
X99535216Y-100534211D01*
X99580967Y-100520332D01*
X99631041Y-100515400D01*
X100215959Y-100515400D01*
X100266033Y-100520332D01*
X100266033Y-100520332D01*
G37*
G36*
X124574033Y-100520332D02*
X124619784Y-100534211D01*
X124661957Y-100556752D01*
X124698916Y-100587084D01*
X124729248Y-100624043D01*
X124751789Y-100666216D01*
X124765668Y-100711967D01*
X124770600Y-100762041D01*
X124770600Y-101421959D01*
X124765668Y-101472033D01*
X124751789Y-101517784D01*
X124729248Y-101559957D01*
X124698916Y-101596916D01*
X124661957Y-101627248D01*
X124619784Y-101649789D01*
X124574033Y-101663668D01*
X124523959Y-101668600D01*
X123939041Y-101668600D01*
X123888967Y-101663668D01*
X123843216Y-101649789D01*
X123801043Y-101627248D01*
X123764084Y-101596916D01*
X123733752Y-101559957D01*
X123711211Y-101517784D01*
X123697332Y-101472033D01*
X123692400Y-101421959D01*
X123692400Y-100762041D01*
X123697332Y-100711967D01*
X123711211Y-100666216D01*
X123733752Y-100624043D01*
X123764084Y-100587084D01*
X123801043Y-100556752D01*
X123843216Y-100534211D01*
X123888967Y-100520332D01*
X123939041Y-100515400D01*
X124523959Y-100515400D01*
X124574033Y-100520332D01*
X124574033Y-100520332D01*
G37*
G36*
X122999033Y-100520332D02*
X123044784Y-100534211D01*
X123086957Y-100556752D01*
X123123916Y-100587084D01*
X123154248Y-100624043D01*
X123176789Y-100666216D01*
X123190668Y-100711967D01*
X123195600Y-100762041D01*
X123195600Y-101421959D01*
X123190668Y-101472033D01*
X123176789Y-101517784D01*
X123154248Y-101559957D01*
X123123916Y-101596916D01*
X123086957Y-101627248D01*
X123044784Y-101649789D01*
X122999033Y-101663668D01*
X122948959Y-101668600D01*
X122364041Y-101668600D01*
X122313967Y-101663668D01*
X122268216Y-101649789D01*
X122226043Y-101627248D01*
X122189084Y-101596916D01*
X122158752Y-101559957D01*
X122136211Y-101517784D01*
X122122332Y-101472033D01*
X122117400Y-101421959D01*
X122117400Y-100762041D01*
X122122332Y-100711967D01*
X122136211Y-100666216D01*
X122158752Y-100624043D01*
X122189084Y-100587084D01*
X122226043Y-100556752D01*
X122268216Y-100534211D01*
X122313967Y-100520332D01*
X122364041Y-100515400D01*
X122948959Y-100515400D01*
X122999033Y-100520332D01*
X122999033Y-100520332D01*
G37*
G36*
X101841033Y-100520332D02*
X101886784Y-100534211D01*
X101928957Y-100556752D01*
X101965916Y-100587084D01*
X101996248Y-100624043D01*
X102018789Y-100666216D01*
X102032668Y-100711967D01*
X102037600Y-100762041D01*
X102037600Y-101421959D01*
X102032668Y-101472033D01*
X102018789Y-101517784D01*
X101996248Y-101559957D01*
X101965916Y-101596916D01*
X101928957Y-101627248D01*
X101886784Y-101649789D01*
X101841033Y-101663668D01*
X101790959Y-101668600D01*
X101206041Y-101668600D01*
X101155967Y-101663668D01*
X101110216Y-101649789D01*
X101068043Y-101627248D01*
X101031084Y-101596916D01*
X101000752Y-101559957D01*
X100978211Y-101517784D01*
X100964332Y-101472033D01*
X100959400Y-101421959D01*
X100959400Y-100762041D01*
X100964332Y-100711967D01*
X100978211Y-100666216D01*
X101000752Y-100624043D01*
X101031084Y-100587084D01*
X101068043Y-100556752D01*
X101110216Y-100534211D01*
X101155967Y-100520332D01*
X101206041Y-100515400D01*
X101790959Y-100515400D01*
X101841033Y-100520332D01*
X101841033Y-100520332D01*
G37*
G36*
X112636033Y-99758332D02*
X112681784Y-99772211D01*
X112723957Y-99794752D01*
X112760916Y-99825084D01*
X112791248Y-99862043D01*
X112813789Y-99904216D01*
X112827668Y-99949967D01*
X112832600Y-100000041D01*
X112832600Y-100659959D01*
X112827668Y-100710033D01*
X112813789Y-100755784D01*
X112791248Y-100797957D01*
X112760916Y-100834916D01*
X112723957Y-100865248D01*
X112681784Y-100887789D01*
X112636033Y-100901668D01*
X112585959Y-100906600D01*
X112001041Y-100906600D01*
X111950967Y-100901668D01*
X111905216Y-100887789D01*
X111863043Y-100865248D01*
X111826084Y-100834916D01*
X111795752Y-100797957D01*
X111773211Y-100755784D01*
X111759332Y-100710033D01*
X111754400Y-100659959D01*
X111754400Y-100000041D01*
X111759332Y-99949967D01*
X111773211Y-99904216D01*
X111795752Y-99862043D01*
X111826084Y-99825084D01*
X111863043Y-99794752D01*
X111905216Y-99772211D01*
X111950967Y-99758332D01*
X112001041Y-99753400D01*
X112585959Y-99753400D01*
X112636033Y-99758332D01*
X112636033Y-99758332D01*
G37*
G36*
X111061033Y-99758332D02*
X111106784Y-99772211D01*
X111148957Y-99794752D01*
X111185916Y-99825084D01*
X111216248Y-99862043D01*
X111238789Y-99904216D01*
X111252668Y-99949967D01*
X111257600Y-100000041D01*
X111257600Y-100659959D01*
X111252668Y-100710033D01*
X111238789Y-100755784D01*
X111216248Y-100797957D01*
X111185916Y-100834916D01*
X111148957Y-100865248D01*
X111106784Y-100887789D01*
X111061033Y-100901668D01*
X111010959Y-100906600D01*
X110426041Y-100906600D01*
X110375967Y-100901668D01*
X110330216Y-100887789D01*
X110288043Y-100865248D01*
X110251084Y-100834916D01*
X110220752Y-100797957D01*
X110198211Y-100755784D01*
X110184332Y-100710033D01*
X110179400Y-100659959D01*
X110179400Y-100000041D01*
X110184332Y-99949967D01*
X110198211Y-99904216D01*
X110220752Y-99862043D01*
X110251084Y-99825084D01*
X110288043Y-99794752D01*
X110330216Y-99772211D01*
X110375967Y-99758332D01*
X110426041Y-99753400D01*
X111010959Y-99753400D01*
X111061033Y-99758332D01*
X111061033Y-99758332D01*
G37*
G36*
X121272033Y-96710332D02*
X121317784Y-96724211D01*
X121359957Y-96746752D01*
X121396916Y-96777084D01*
X121427248Y-96814043D01*
X121449789Y-96856216D01*
X121463668Y-96901967D01*
X121468600Y-96952041D01*
X121468600Y-97611959D01*
X121463668Y-97662033D01*
X121449789Y-97707784D01*
X121427248Y-97749957D01*
X121396916Y-97786916D01*
X121359957Y-97817248D01*
X121317784Y-97839789D01*
X121272033Y-97853668D01*
X121221959Y-97858600D01*
X120637041Y-97858600D01*
X120586967Y-97853668D01*
X120541216Y-97839789D01*
X120499043Y-97817248D01*
X120462084Y-97786916D01*
X120431752Y-97749957D01*
X120409211Y-97707784D01*
X120395332Y-97662033D01*
X120390400Y-97611959D01*
X120390400Y-96952041D01*
X120395332Y-96901967D01*
X120409211Y-96856216D01*
X120431752Y-96814043D01*
X120462084Y-96777084D01*
X120499043Y-96746752D01*
X120541216Y-96724211D01*
X120586967Y-96710332D01*
X120637041Y-96705400D01*
X121221959Y-96705400D01*
X121272033Y-96710332D01*
X121272033Y-96710332D01*
G37*
G36*
X119697033Y-96710332D02*
X119742784Y-96724211D01*
X119784957Y-96746752D01*
X119821916Y-96777084D01*
X119852248Y-96814043D01*
X119874789Y-96856216D01*
X119888668Y-96901967D01*
X119893600Y-96952041D01*
X119893600Y-97611959D01*
X119888668Y-97662033D01*
X119874789Y-97707784D01*
X119852248Y-97749957D01*
X119821916Y-97786916D01*
X119784957Y-97817248D01*
X119742784Y-97839789D01*
X119697033Y-97853668D01*
X119646959Y-97858600D01*
X119062041Y-97858600D01*
X119011967Y-97853668D01*
X118966216Y-97839789D01*
X118924043Y-97817248D01*
X118887084Y-97786916D01*
X118856752Y-97749957D01*
X118834211Y-97707784D01*
X118820332Y-97662033D01*
X118815400Y-97611959D01*
X118815400Y-96952041D01*
X118820332Y-96901967D01*
X118834211Y-96856216D01*
X118856752Y-96814043D01*
X118887084Y-96777084D01*
X118924043Y-96746752D01*
X118966216Y-96724211D01*
X119011967Y-96710332D01*
X119062041Y-96705400D01*
X119646959Y-96705400D01*
X119697033Y-96710332D01*
X119697033Y-96710332D01*
G37*
G36*
X104889033Y-96583332D02*
X104934784Y-96597211D01*
X104976957Y-96619752D01*
X105013916Y-96650084D01*
X105044248Y-96687043D01*
X105066789Y-96729216D01*
X105080668Y-96774967D01*
X105085600Y-96825041D01*
X105085600Y-97484959D01*
X105080668Y-97535033D01*
X105066789Y-97580784D01*
X105044248Y-97622957D01*
X105013916Y-97659916D01*
X104976957Y-97690248D01*
X104934784Y-97712789D01*
X104889033Y-97726668D01*
X104838959Y-97731600D01*
X104254041Y-97731600D01*
X104203967Y-97726668D01*
X104158216Y-97712789D01*
X104116043Y-97690248D01*
X104079084Y-97659916D01*
X104048752Y-97622957D01*
X104026211Y-97580784D01*
X104012332Y-97535033D01*
X104007400Y-97484959D01*
X104007400Y-96825041D01*
X104012332Y-96774967D01*
X104026211Y-96729216D01*
X104048752Y-96687043D01*
X104079084Y-96650084D01*
X104116043Y-96619752D01*
X104158216Y-96597211D01*
X104203967Y-96583332D01*
X104254041Y-96578400D01*
X104838959Y-96578400D01*
X104889033Y-96583332D01*
X104889033Y-96583332D01*
G37*
G36*
X103314033Y-96583332D02*
X103359784Y-96597211D01*
X103401957Y-96619752D01*
X103438916Y-96650084D01*
X103469248Y-96687043D01*
X103491789Y-96729216D01*
X103505668Y-96774967D01*
X103510600Y-96825041D01*
X103510600Y-97484959D01*
X103505668Y-97535033D01*
X103491789Y-97580784D01*
X103469248Y-97622957D01*
X103438916Y-97659916D01*
X103401957Y-97690248D01*
X103359784Y-97712789D01*
X103314033Y-97726668D01*
X103263959Y-97731600D01*
X102679041Y-97731600D01*
X102628967Y-97726668D01*
X102583216Y-97712789D01*
X102541043Y-97690248D01*
X102504084Y-97659916D01*
X102473752Y-97622957D01*
X102451211Y-97580784D01*
X102437332Y-97535033D01*
X102432400Y-97484959D01*
X102432400Y-96825041D01*
X102437332Y-96774967D01*
X102451211Y-96729216D01*
X102473752Y-96687043D01*
X102504084Y-96650084D01*
X102541043Y-96619752D01*
X102583216Y-96597211D01*
X102628967Y-96583332D01*
X102679041Y-96578400D01*
X103263959Y-96578400D01*
X103314033Y-96583332D01*
X103314033Y-96583332D01*
G37*
G36*
X128384033Y-96202332D02*
X128429784Y-96216211D01*
X128471957Y-96238752D01*
X128508916Y-96269084D01*
X128539248Y-96306043D01*
X128561789Y-96348216D01*
X128575668Y-96393967D01*
X128580600Y-96444041D01*
X128580600Y-97103959D01*
X128575668Y-97154033D01*
X128561789Y-97199784D01*
X128539248Y-97241957D01*
X128508916Y-97278916D01*
X128471957Y-97309248D01*
X128429784Y-97331789D01*
X128384033Y-97345668D01*
X128333959Y-97350600D01*
X127749041Y-97350600D01*
X127698967Y-97345668D01*
X127653216Y-97331789D01*
X127611043Y-97309248D01*
X127574084Y-97278916D01*
X127543752Y-97241957D01*
X127521211Y-97199784D01*
X127507332Y-97154033D01*
X127502400Y-97103959D01*
X127502400Y-96444041D01*
X127507332Y-96393967D01*
X127521211Y-96348216D01*
X127543752Y-96306043D01*
X127574084Y-96269084D01*
X127611043Y-96238752D01*
X127653216Y-96216211D01*
X127698967Y-96202332D01*
X127749041Y-96197400D01*
X128333959Y-96197400D01*
X128384033Y-96202332D01*
X128384033Y-96202332D01*
G37*
G36*
X126809033Y-96202332D02*
X126854784Y-96216211D01*
X126896957Y-96238752D01*
X126933916Y-96269084D01*
X126964248Y-96306043D01*
X126986789Y-96348216D01*
X127000668Y-96393967D01*
X127005600Y-96444041D01*
X127005600Y-97103959D01*
X127000668Y-97154033D01*
X126986789Y-97199784D01*
X126964248Y-97241957D01*
X126933916Y-97278916D01*
X126896957Y-97309248D01*
X126854784Y-97331789D01*
X126809033Y-97345668D01*
X126758959Y-97350600D01*
X126174041Y-97350600D01*
X126123967Y-97345668D01*
X126078216Y-97331789D01*
X126036043Y-97309248D01*
X125999084Y-97278916D01*
X125968752Y-97241957D01*
X125946211Y-97199784D01*
X125932332Y-97154033D01*
X125927400Y-97103959D01*
X125927400Y-96444041D01*
X125932332Y-96393967D01*
X125946211Y-96348216D01*
X125968752Y-96306043D01*
X125999084Y-96269084D01*
X126036043Y-96238752D01*
X126078216Y-96216211D01*
X126123967Y-96202332D01*
X126174041Y-96197400D01*
X126758959Y-96197400D01*
X126809033Y-96202332D01*
X126809033Y-96202332D01*
G37*
G36*
X96481533Y-96202332D02*
X96527284Y-96216211D01*
X96569457Y-96238752D01*
X96606416Y-96269084D01*
X96636748Y-96306043D01*
X96659289Y-96348216D01*
X96673168Y-96393967D01*
X96678100Y-96444041D01*
X96678100Y-97103959D01*
X96673168Y-97154033D01*
X96659289Y-97199784D01*
X96636748Y-97241957D01*
X96606416Y-97278916D01*
X96569457Y-97309248D01*
X96527284Y-97331789D01*
X96481533Y-97345668D01*
X96431459Y-97350600D01*
X95846541Y-97350600D01*
X95796467Y-97345668D01*
X95750716Y-97331789D01*
X95708543Y-97309248D01*
X95671584Y-97278916D01*
X95641252Y-97241957D01*
X95618711Y-97199784D01*
X95604832Y-97154033D01*
X95599900Y-97103959D01*
X95599900Y-96444041D01*
X95604832Y-96393967D01*
X95618711Y-96348216D01*
X95641252Y-96306043D01*
X95671584Y-96269084D01*
X95708543Y-96238752D01*
X95750716Y-96216211D01*
X95796467Y-96202332D01*
X95846541Y-96197400D01*
X96431459Y-96197400D01*
X96481533Y-96202332D01*
X96481533Y-96202332D01*
G37*
G36*
X98056533Y-96202332D02*
X98102284Y-96216211D01*
X98144457Y-96238752D01*
X98181416Y-96269084D01*
X98211748Y-96306043D01*
X98234289Y-96348216D01*
X98248168Y-96393967D01*
X98253100Y-96444041D01*
X98253100Y-97103959D01*
X98248168Y-97154033D01*
X98234289Y-97199784D01*
X98211748Y-97241957D01*
X98181416Y-97278916D01*
X98144457Y-97309248D01*
X98102284Y-97331789D01*
X98056533Y-97345668D01*
X98006459Y-97350600D01*
X97421541Y-97350600D01*
X97371467Y-97345668D01*
X97325716Y-97331789D01*
X97283543Y-97309248D01*
X97246584Y-97278916D01*
X97216252Y-97241957D01*
X97193711Y-97199784D01*
X97179832Y-97154033D01*
X97174900Y-97103959D01*
X97174900Y-96444041D01*
X97179832Y-96393967D01*
X97193711Y-96348216D01*
X97216252Y-96306043D01*
X97246584Y-96269084D01*
X97283543Y-96238752D01*
X97325716Y-96216211D01*
X97371467Y-96202332D01*
X97421541Y-96197400D01*
X98006459Y-96197400D01*
X98056533Y-96202332D01*
X98056533Y-96202332D01*
G37*
G36*
X112636033Y-95059332D02*
X112681784Y-95073211D01*
X112723957Y-95095752D01*
X112760916Y-95126084D01*
X112791248Y-95163043D01*
X112813789Y-95205216D01*
X112827668Y-95250967D01*
X112832600Y-95301041D01*
X112832600Y-95960959D01*
X112827668Y-96011033D01*
X112813789Y-96056784D01*
X112791248Y-96098957D01*
X112760916Y-96135916D01*
X112723957Y-96166248D01*
X112681784Y-96188789D01*
X112636033Y-96202668D01*
X112585959Y-96207600D01*
X112001041Y-96207600D01*
X111950967Y-96202668D01*
X111905216Y-96188789D01*
X111863043Y-96166248D01*
X111826084Y-96135916D01*
X111795752Y-96098957D01*
X111773211Y-96056784D01*
X111759332Y-96011033D01*
X111754400Y-95960959D01*
X111754400Y-95301041D01*
X111759332Y-95250967D01*
X111773211Y-95205216D01*
X111795752Y-95163043D01*
X111826084Y-95126084D01*
X111863043Y-95095752D01*
X111905216Y-95073211D01*
X111950967Y-95059332D01*
X112001041Y-95054400D01*
X112585959Y-95054400D01*
X112636033Y-95059332D01*
X112636033Y-95059332D01*
G37*
G36*
X111061033Y-95059332D02*
X111106784Y-95073211D01*
X111148957Y-95095752D01*
X111185916Y-95126084D01*
X111216248Y-95163043D01*
X111238789Y-95205216D01*
X111252668Y-95250967D01*
X111257600Y-95301041D01*
X111257600Y-95960959D01*
X111252668Y-96011033D01*
X111238789Y-96056784D01*
X111216248Y-96098957D01*
X111185916Y-96135916D01*
X111148957Y-96166248D01*
X111106784Y-96188789D01*
X111061033Y-96202668D01*
X111010959Y-96207600D01*
X110426041Y-96207600D01*
X110375967Y-96202668D01*
X110330216Y-96188789D01*
X110288043Y-96166248D01*
X110251084Y-96135916D01*
X110220752Y-96098957D01*
X110198211Y-96056784D01*
X110184332Y-96011033D01*
X110179400Y-95960959D01*
X110179400Y-95301041D01*
X110184332Y-95250967D01*
X110198211Y-95205216D01*
X110220752Y-95163043D01*
X110251084Y-95126084D01*
X110288043Y-95095752D01*
X110330216Y-95073211D01*
X110375967Y-95059332D01*
X110426041Y-95054400D01*
X111010959Y-95054400D01*
X111061033Y-95059332D01*
X111061033Y-95059332D01*
G37*
G36*
X119875033Y-91503332D02*
X119920784Y-91517211D01*
X119962957Y-91539752D01*
X119999916Y-91570084D01*
X120030248Y-91607043D01*
X120052789Y-91649216D01*
X120066668Y-91694967D01*
X120071600Y-91745041D01*
X120071600Y-92404959D01*
X120066668Y-92455033D01*
X120052789Y-92500784D01*
X120030248Y-92542957D01*
X119999916Y-92579916D01*
X119962957Y-92610248D01*
X119920784Y-92632789D01*
X119875033Y-92646668D01*
X119824959Y-92651600D01*
X119240041Y-92651600D01*
X119189967Y-92646668D01*
X119144216Y-92632789D01*
X119102043Y-92610248D01*
X119065084Y-92579916D01*
X119034752Y-92542957D01*
X119012211Y-92500784D01*
X118998332Y-92455033D01*
X118993400Y-92404959D01*
X118993400Y-91745041D01*
X118998332Y-91694967D01*
X119012211Y-91649216D01*
X119034752Y-91607043D01*
X119065084Y-91570084D01*
X119102043Y-91539752D01*
X119144216Y-91517211D01*
X119189967Y-91503332D01*
X119240041Y-91498400D01*
X119824959Y-91498400D01*
X119875033Y-91503332D01*
X119875033Y-91503332D01*
G37*
G36*
X118300033Y-91503332D02*
X118345784Y-91517211D01*
X118387957Y-91539752D01*
X118424916Y-91570084D01*
X118455248Y-91607043D01*
X118477789Y-91649216D01*
X118491668Y-91694967D01*
X118496600Y-91745041D01*
X118496600Y-92404959D01*
X118491668Y-92455033D01*
X118477789Y-92500784D01*
X118455248Y-92542957D01*
X118424916Y-92579916D01*
X118387957Y-92610248D01*
X118345784Y-92632789D01*
X118300033Y-92646668D01*
X118249959Y-92651600D01*
X117665041Y-92651600D01*
X117614967Y-92646668D01*
X117569216Y-92632789D01*
X117527043Y-92610248D01*
X117490084Y-92579916D01*
X117459752Y-92542957D01*
X117437211Y-92500784D01*
X117423332Y-92455033D01*
X117418400Y-92404959D01*
X117418400Y-91745041D01*
X117423332Y-91694967D01*
X117437211Y-91649216D01*
X117459752Y-91607043D01*
X117490084Y-91570084D01*
X117527043Y-91539752D01*
X117569216Y-91517211D01*
X117614967Y-91503332D01*
X117665041Y-91498400D01*
X118249959Y-91498400D01*
X118300033Y-91503332D01*
X118300033Y-91503332D01*
G37*
G36*
X129196533Y-91249332D02*
X129242284Y-91263211D01*
X129284457Y-91285752D01*
X129321416Y-91316084D01*
X129351748Y-91353043D01*
X129374289Y-91395216D01*
X129388168Y-91440967D01*
X129393100Y-91491041D01*
X129393100Y-92150959D01*
X129388168Y-92201033D01*
X129374289Y-92246784D01*
X129351748Y-92288957D01*
X129321416Y-92325916D01*
X129284457Y-92356248D01*
X129242284Y-92378789D01*
X129196533Y-92392668D01*
X129146459Y-92397600D01*
X128561541Y-92397600D01*
X128511467Y-92392668D01*
X128465716Y-92378789D01*
X128423543Y-92356248D01*
X128386584Y-92325916D01*
X128356252Y-92288957D01*
X128333711Y-92246784D01*
X128319832Y-92201033D01*
X128314900Y-92150959D01*
X128314900Y-91491041D01*
X128319832Y-91440967D01*
X128333711Y-91395216D01*
X128356252Y-91353043D01*
X128386584Y-91316084D01*
X128423543Y-91285752D01*
X128465716Y-91263211D01*
X128511467Y-91249332D01*
X128561541Y-91244400D01*
X129146459Y-91244400D01*
X129196533Y-91249332D01*
X129196533Y-91249332D01*
G37*
G36*
X104330033Y-91249332D02*
X104375784Y-91263211D01*
X104417957Y-91285752D01*
X104454916Y-91316084D01*
X104485248Y-91353043D01*
X104507789Y-91395216D01*
X104521668Y-91440967D01*
X104526600Y-91491041D01*
X104526600Y-92150959D01*
X104521668Y-92201033D01*
X104507789Y-92246784D01*
X104485248Y-92288957D01*
X104454916Y-92325916D01*
X104417957Y-92356248D01*
X104375784Y-92378789D01*
X104330033Y-92392668D01*
X104279959Y-92397600D01*
X103695041Y-92397600D01*
X103644967Y-92392668D01*
X103599216Y-92378789D01*
X103557043Y-92356248D01*
X103520084Y-92325916D01*
X103489752Y-92288957D01*
X103467211Y-92246784D01*
X103453332Y-92201033D01*
X103448400Y-92150959D01*
X103448400Y-91491041D01*
X103453332Y-91440967D01*
X103467211Y-91395216D01*
X103489752Y-91353043D01*
X103520084Y-91316084D01*
X103557043Y-91285752D01*
X103599216Y-91263211D01*
X103644967Y-91249332D01*
X103695041Y-91244400D01*
X104279959Y-91244400D01*
X104330033Y-91249332D01*
X104330033Y-91249332D01*
G37*
G36*
X95872033Y-91249332D02*
X95917784Y-91263211D01*
X95959957Y-91285752D01*
X95996916Y-91316084D01*
X96027248Y-91353043D01*
X96049789Y-91395216D01*
X96063668Y-91440967D01*
X96068600Y-91491041D01*
X96068600Y-92150959D01*
X96063668Y-92201033D01*
X96049789Y-92246784D01*
X96027248Y-92288957D01*
X95996916Y-92325916D01*
X95959957Y-92356248D01*
X95917784Y-92378789D01*
X95872033Y-92392668D01*
X95821959Y-92397600D01*
X95237041Y-92397600D01*
X95186967Y-92392668D01*
X95141216Y-92378789D01*
X95099043Y-92356248D01*
X95062084Y-92325916D01*
X95031752Y-92288957D01*
X95009211Y-92246784D01*
X94995332Y-92201033D01*
X94990400Y-92150959D01*
X94990400Y-91491041D01*
X94995332Y-91440967D01*
X95009211Y-91395216D01*
X95031752Y-91353043D01*
X95062084Y-91316084D01*
X95099043Y-91285752D01*
X95141216Y-91263211D01*
X95186967Y-91249332D01*
X95237041Y-91244400D01*
X95821959Y-91244400D01*
X95872033Y-91249332D01*
X95872033Y-91249332D01*
G37*
G36*
X94297033Y-91249332D02*
X94342784Y-91263211D01*
X94384957Y-91285752D01*
X94421916Y-91316084D01*
X94452248Y-91353043D01*
X94474789Y-91395216D01*
X94488668Y-91440967D01*
X94493600Y-91491041D01*
X94493600Y-92150959D01*
X94488668Y-92201033D01*
X94474789Y-92246784D01*
X94452248Y-92288957D01*
X94421916Y-92325916D01*
X94384957Y-92356248D01*
X94342784Y-92378789D01*
X94297033Y-92392668D01*
X94246959Y-92397600D01*
X93662041Y-92397600D01*
X93611967Y-92392668D01*
X93566216Y-92378789D01*
X93524043Y-92356248D01*
X93487084Y-92325916D01*
X93456752Y-92288957D01*
X93434211Y-92246784D01*
X93420332Y-92201033D01*
X93415400Y-92150959D01*
X93415400Y-91491041D01*
X93420332Y-91440967D01*
X93434211Y-91395216D01*
X93456752Y-91353043D01*
X93487084Y-91316084D01*
X93524043Y-91285752D01*
X93566216Y-91263211D01*
X93611967Y-91249332D01*
X93662041Y-91244400D01*
X94246959Y-91244400D01*
X94297033Y-91249332D01*
X94297033Y-91249332D01*
G37*
G36*
X105905033Y-91249332D02*
X105950784Y-91263211D01*
X105992957Y-91285752D01*
X106029916Y-91316084D01*
X106060248Y-91353043D01*
X106082789Y-91395216D01*
X106096668Y-91440967D01*
X106101600Y-91491041D01*
X106101600Y-92150959D01*
X106096668Y-92201033D01*
X106082789Y-92246784D01*
X106060248Y-92288957D01*
X106029916Y-92325916D01*
X105992957Y-92356248D01*
X105950784Y-92378789D01*
X105905033Y-92392668D01*
X105854959Y-92397600D01*
X105270041Y-92397600D01*
X105219967Y-92392668D01*
X105174216Y-92378789D01*
X105132043Y-92356248D01*
X105095084Y-92325916D01*
X105064752Y-92288957D01*
X105042211Y-92246784D01*
X105028332Y-92201033D01*
X105023400Y-92150959D01*
X105023400Y-91491041D01*
X105028332Y-91440967D01*
X105042211Y-91395216D01*
X105064752Y-91353043D01*
X105095084Y-91316084D01*
X105132043Y-91285752D01*
X105174216Y-91263211D01*
X105219967Y-91249332D01*
X105270041Y-91244400D01*
X105854959Y-91244400D01*
X105905033Y-91249332D01*
X105905033Y-91249332D01*
G37*
G36*
X130771533Y-91249332D02*
X130817284Y-91263211D01*
X130859457Y-91285752D01*
X130896416Y-91316084D01*
X130926748Y-91353043D01*
X130949289Y-91395216D01*
X130963168Y-91440967D01*
X130968100Y-91491041D01*
X130968100Y-92150959D01*
X130963168Y-92201033D01*
X130949289Y-92246784D01*
X130926748Y-92288957D01*
X130896416Y-92325916D01*
X130859457Y-92356248D01*
X130817284Y-92378789D01*
X130771533Y-92392668D01*
X130721459Y-92397600D01*
X130136541Y-92397600D01*
X130086467Y-92392668D01*
X130040716Y-92378789D01*
X129998543Y-92356248D01*
X129961584Y-92325916D01*
X129931252Y-92288957D01*
X129908711Y-92246784D01*
X129894832Y-92201033D01*
X129889900Y-92150959D01*
X129889900Y-91491041D01*
X129894832Y-91440967D01*
X129908711Y-91395216D01*
X129931252Y-91353043D01*
X129961584Y-91316084D01*
X129998543Y-91285752D01*
X130040716Y-91263211D01*
X130086467Y-91249332D01*
X130136541Y-91244400D01*
X130721459Y-91244400D01*
X130771533Y-91249332D01*
X130771533Y-91249332D01*
G37*
G36*
X125463033Y-90741332D02*
X125508784Y-90755211D01*
X125550957Y-90777752D01*
X125587916Y-90808084D01*
X125618248Y-90845043D01*
X125640789Y-90887216D01*
X125654668Y-90932967D01*
X125659600Y-90983041D01*
X125659600Y-91642959D01*
X125654668Y-91693033D01*
X125640789Y-91738784D01*
X125618248Y-91780957D01*
X125587916Y-91817916D01*
X125550957Y-91848248D01*
X125508784Y-91870789D01*
X125463033Y-91884668D01*
X125412959Y-91889600D01*
X124828041Y-91889600D01*
X124777967Y-91884668D01*
X124732216Y-91870789D01*
X124690043Y-91848248D01*
X124653084Y-91817916D01*
X124622752Y-91780957D01*
X124600211Y-91738784D01*
X124586332Y-91693033D01*
X124581400Y-91642959D01*
X124581400Y-90983041D01*
X124586332Y-90932967D01*
X124600211Y-90887216D01*
X124622752Y-90845043D01*
X124653084Y-90808084D01*
X124690043Y-90777752D01*
X124732216Y-90755211D01*
X124777967Y-90741332D01*
X124828041Y-90736400D01*
X125412959Y-90736400D01*
X125463033Y-90741332D01*
X125463033Y-90741332D01*
G37*
G36*
X123888033Y-90741332D02*
X123933784Y-90755211D01*
X123975957Y-90777752D01*
X124012916Y-90808084D01*
X124043248Y-90845043D01*
X124065789Y-90887216D01*
X124079668Y-90932967D01*
X124084600Y-90983041D01*
X124084600Y-91642959D01*
X124079668Y-91693033D01*
X124065789Y-91738784D01*
X124043248Y-91780957D01*
X124012916Y-91817916D01*
X123975957Y-91848248D01*
X123933784Y-91870789D01*
X123888033Y-91884668D01*
X123837959Y-91889600D01*
X123253041Y-91889600D01*
X123202967Y-91884668D01*
X123157216Y-91870789D01*
X123115043Y-91848248D01*
X123078084Y-91817916D01*
X123047752Y-91780957D01*
X123025211Y-91738784D01*
X123011332Y-91693033D01*
X123006400Y-91642959D01*
X123006400Y-90983041D01*
X123011332Y-90932967D01*
X123025211Y-90887216D01*
X123047752Y-90845043D01*
X123078084Y-90808084D01*
X123115043Y-90777752D01*
X123157216Y-90755211D01*
X123202967Y-90741332D01*
X123253041Y-90736400D01*
X123837959Y-90736400D01*
X123888033Y-90741332D01*
X123888033Y-90741332D01*
G37*
G36*
X100672533Y-90614332D02*
X100718284Y-90628211D01*
X100760457Y-90650752D01*
X100797416Y-90681084D01*
X100827748Y-90718043D01*
X100850289Y-90760216D01*
X100864168Y-90805967D01*
X100869100Y-90856041D01*
X100869100Y-91515959D01*
X100864168Y-91566033D01*
X100850289Y-91611784D01*
X100827748Y-91653957D01*
X100797416Y-91690916D01*
X100760457Y-91721248D01*
X100718284Y-91743789D01*
X100672533Y-91757668D01*
X100622459Y-91762600D01*
X100037541Y-91762600D01*
X99987467Y-91757668D01*
X99941716Y-91743789D01*
X99899543Y-91721248D01*
X99862584Y-91690916D01*
X99832252Y-91653957D01*
X99809711Y-91611784D01*
X99795832Y-91566033D01*
X99790900Y-91515959D01*
X99790900Y-90856041D01*
X99795832Y-90805967D01*
X99809711Y-90760216D01*
X99832252Y-90718043D01*
X99862584Y-90681084D01*
X99899543Y-90650752D01*
X99941716Y-90628211D01*
X99987467Y-90614332D01*
X100037541Y-90609400D01*
X100622459Y-90609400D01*
X100672533Y-90614332D01*
X100672533Y-90614332D01*
G37*
G36*
X99097533Y-90614332D02*
X99143284Y-90628211D01*
X99185457Y-90650752D01*
X99222416Y-90681084D01*
X99252748Y-90718043D01*
X99275289Y-90760216D01*
X99289168Y-90805967D01*
X99294100Y-90856041D01*
X99294100Y-91515959D01*
X99289168Y-91566033D01*
X99275289Y-91611784D01*
X99252748Y-91653957D01*
X99222416Y-91690916D01*
X99185457Y-91721248D01*
X99143284Y-91743789D01*
X99097533Y-91757668D01*
X99047459Y-91762600D01*
X98462541Y-91762600D01*
X98412467Y-91757668D01*
X98366716Y-91743789D01*
X98324543Y-91721248D01*
X98287584Y-91690916D01*
X98257252Y-91653957D01*
X98234711Y-91611784D01*
X98220832Y-91566033D01*
X98215900Y-91515959D01*
X98215900Y-90856041D01*
X98220832Y-90805967D01*
X98234711Y-90760216D01*
X98257252Y-90718043D01*
X98287584Y-90681084D01*
X98324543Y-90650752D01*
X98366716Y-90628211D01*
X98412467Y-90614332D01*
X98462541Y-90609400D01*
X99047459Y-90609400D01*
X99097533Y-90614332D01*
X99097533Y-90614332D01*
G37*
G36*
X111569033Y-88201332D02*
X111614784Y-88215211D01*
X111656957Y-88237752D01*
X111693916Y-88268084D01*
X111724248Y-88305043D01*
X111746789Y-88347216D01*
X111760668Y-88392967D01*
X111765600Y-88443041D01*
X111765600Y-89102959D01*
X111760668Y-89153033D01*
X111746789Y-89198784D01*
X111724248Y-89240957D01*
X111693916Y-89277916D01*
X111656957Y-89308248D01*
X111614784Y-89330789D01*
X111569033Y-89344668D01*
X111518959Y-89349600D01*
X110934041Y-89349600D01*
X110883967Y-89344668D01*
X110838216Y-89330789D01*
X110796043Y-89308248D01*
X110759084Y-89277916D01*
X110728752Y-89240957D01*
X110706211Y-89198784D01*
X110692332Y-89153033D01*
X110687400Y-89102959D01*
X110687400Y-88443041D01*
X110692332Y-88392967D01*
X110706211Y-88347216D01*
X110728752Y-88305043D01*
X110759084Y-88268084D01*
X110796043Y-88237752D01*
X110838216Y-88215211D01*
X110883967Y-88201332D01*
X110934041Y-88196400D01*
X111518959Y-88196400D01*
X111569033Y-88201332D01*
X111569033Y-88201332D01*
G37*
G36*
X113144033Y-88201332D02*
X113189784Y-88215211D01*
X113231957Y-88237752D01*
X113268916Y-88268084D01*
X113299248Y-88305043D01*
X113321789Y-88347216D01*
X113335668Y-88392967D01*
X113340600Y-88443041D01*
X113340600Y-89102959D01*
X113335668Y-89153033D01*
X113321789Y-89198784D01*
X113299248Y-89240957D01*
X113268916Y-89277916D01*
X113231957Y-89308248D01*
X113189784Y-89330789D01*
X113144033Y-89344668D01*
X113093959Y-89349600D01*
X112509041Y-89349600D01*
X112458967Y-89344668D01*
X112413216Y-89330789D01*
X112371043Y-89308248D01*
X112334084Y-89277916D01*
X112303752Y-89240957D01*
X112281211Y-89198784D01*
X112267332Y-89153033D01*
X112262400Y-89102959D01*
X112262400Y-88443041D01*
X112267332Y-88392967D01*
X112281211Y-88347216D01*
X112303752Y-88305043D01*
X112334084Y-88268084D01*
X112371043Y-88237752D01*
X112413216Y-88215211D01*
X112458967Y-88201332D01*
X112509041Y-88196400D01*
X113093959Y-88196400D01*
X113144033Y-88201332D01*
X113144033Y-88201332D01*
G37*
G36*
X119951033Y-86931332D02*
X119996784Y-86945211D01*
X120038957Y-86967752D01*
X120075916Y-86998084D01*
X120106248Y-87035043D01*
X120128789Y-87077216D01*
X120142668Y-87122967D01*
X120147600Y-87173041D01*
X120147600Y-87832959D01*
X120142668Y-87883033D01*
X120128789Y-87928784D01*
X120106248Y-87970957D01*
X120075916Y-88007916D01*
X120038957Y-88038248D01*
X119996784Y-88060789D01*
X119951033Y-88074668D01*
X119900959Y-88079600D01*
X119316041Y-88079600D01*
X119265967Y-88074668D01*
X119220216Y-88060789D01*
X119178043Y-88038248D01*
X119141084Y-88007916D01*
X119110752Y-87970957D01*
X119088211Y-87928784D01*
X119074332Y-87883033D01*
X119069400Y-87832959D01*
X119069400Y-87173041D01*
X119074332Y-87122967D01*
X119088211Y-87077216D01*
X119110752Y-87035043D01*
X119141084Y-86998084D01*
X119178043Y-86967752D01*
X119220216Y-86945211D01*
X119265967Y-86931332D01*
X119316041Y-86926400D01*
X119900959Y-86926400D01*
X119951033Y-86931332D01*
X119951033Y-86931332D01*
G37*
G36*
X121526033Y-86931332D02*
X121571784Y-86945211D01*
X121613957Y-86967752D01*
X121650916Y-86998084D01*
X121681248Y-87035043D01*
X121703789Y-87077216D01*
X121717668Y-87122967D01*
X121722600Y-87173041D01*
X121722600Y-87832959D01*
X121717668Y-87883033D01*
X121703789Y-87928784D01*
X121681248Y-87970957D01*
X121650916Y-88007916D01*
X121613957Y-88038248D01*
X121571784Y-88060789D01*
X121526033Y-88074668D01*
X121475959Y-88079600D01*
X120891041Y-88079600D01*
X120840967Y-88074668D01*
X120795216Y-88060789D01*
X120753043Y-88038248D01*
X120716084Y-88007916D01*
X120685752Y-87970957D01*
X120663211Y-87928784D01*
X120649332Y-87883033D01*
X120644400Y-87832959D01*
X120644400Y-87173041D01*
X120649332Y-87122967D01*
X120663211Y-87077216D01*
X120685752Y-87035043D01*
X120716084Y-86998084D01*
X120753043Y-86967752D01*
X120795216Y-86945211D01*
X120840967Y-86931332D01*
X120891041Y-86926400D01*
X121475959Y-86926400D01*
X121526033Y-86931332D01*
X121526033Y-86931332D01*
G37*
G36*
X104635033Y-86931332D02*
X104680784Y-86945211D01*
X104722957Y-86967752D01*
X104759916Y-86998084D01*
X104790248Y-87035043D01*
X104812789Y-87077216D01*
X104826668Y-87122967D01*
X104831600Y-87173041D01*
X104831600Y-87832959D01*
X104826668Y-87883033D01*
X104812789Y-87928784D01*
X104790248Y-87970957D01*
X104759916Y-88007916D01*
X104722957Y-88038248D01*
X104680784Y-88060789D01*
X104635033Y-88074668D01*
X104584959Y-88079600D01*
X104000041Y-88079600D01*
X103949967Y-88074668D01*
X103904216Y-88060789D01*
X103862043Y-88038248D01*
X103825084Y-88007916D01*
X103794752Y-87970957D01*
X103772211Y-87928784D01*
X103758332Y-87883033D01*
X103753400Y-87832959D01*
X103753400Y-87173041D01*
X103758332Y-87122967D01*
X103772211Y-87077216D01*
X103794752Y-87035043D01*
X103825084Y-86998084D01*
X103862043Y-86967752D01*
X103904216Y-86945211D01*
X103949967Y-86931332D01*
X104000041Y-86926400D01*
X104584959Y-86926400D01*
X104635033Y-86931332D01*
X104635033Y-86931332D01*
G37*
G36*
X103060033Y-86931332D02*
X103105784Y-86945211D01*
X103147957Y-86967752D01*
X103184916Y-86998084D01*
X103215248Y-87035043D01*
X103237789Y-87077216D01*
X103251668Y-87122967D01*
X103256600Y-87173041D01*
X103256600Y-87832959D01*
X103251668Y-87883033D01*
X103237789Y-87928784D01*
X103215248Y-87970957D01*
X103184916Y-88007916D01*
X103147957Y-88038248D01*
X103105784Y-88060789D01*
X103060033Y-88074668D01*
X103009959Y-88079600D01*
X102425041Y-88079600D01*
X102374967Y-88074668D01*
X102329216Y-88060789D01*
X102287043Y-88038248D01*
X102250084Y-88007916D01*
X102219752Y-87970957D01*
X102197211Y-87928784D01*
X102183332Y-87883033D01*
X102178400Y-87832959D01*
X102178400Y-87173041D01*
X102183332Y-87122967D01*
X102197211Y-87077216D01*
X102219752Y-87035043D01*
X102250084Y-86998084D01*
X102287043Y-86967752D01*
X102329216Y-86945211D01*
X102374967Y-86931332D01*
X102425041Y-86926400D01*
X103009959Y-86926400D01*
X103060033Y-86931332D01*
X103060033Y-86931332D01*
G37*
G36*
X131051033Y-86931332D02*
X131096784Y-86945211D01*
X131138957Y-86967752D01*
X131175916Y-86998084D01*
X131206248Y-87035043D01*
X131228789Y-87077216D01*
X131242668Y-87122967D01*
X131247600Y-87173041D01*
X131247600Y-87832959D01*
X131242668Y-87883033D01*
X131228789Y-87928784D01*
X131206248Y-87970957D01*
X131175916Y-88007916D01*
X131138957Y-88038248D01*
X131096784Y-88060789D01*
X131051033Y-88074668D01*
X131000959Y-88079600D01*
X130416041Y-88079600D01*
X130365967Y-88074668D01*
X130320216Y-88060789D01*
X130278043Y-88038248D01*
X130241084Y-88007916D01*
X130210752Y-87970957D01*
X130188211Y-87928784D01*
X130174332Y-87883033D01*
X130169400Y-87832959D01*
X130169400Y-87173041D01*
X130174332Y-87122967D01*
X130188211Y-87077216D01*
X130210752Y-87035043D01*
X130241084Y-86998084D01*
X130278043Y-86967752D01*
X130320216Y-86945211D01*
X130365967Y-86931332D01*
X130416041Y-86926400D01*
X131000959Y-86926400D01*
X131051033Y-86931332D01*
X131051033Y-86931332D01*
G37*
G36*
X129476033Y-86931332D02*
X129521784Y-86945211D01*
X129563957Y-86967752D01*
X129600916Y-86998084D01*
X129631248Y-87035043D01*
X129653789Y-87077216D01*
X129667668Y-87122967D01*
X129672600Y-87173041D01*
X129672600Y-87832959D01*
X129667668Y-87883033D01*
X129653789Y-87928784D01*
X129631248Y-87970957D01*
X129600916Y-88007916D01*
X129563957Y-88038248D01*
X129521784Y-88060789D01*
X129476033Y-88074668D01*
X129425959Y-88079600D01*
X128841041Y-88079600D01*
X128790967Y-88074668D01*
X128745216Y-88060789D01*
X128703043Y-88038248D01*
X128666084Y-88007916D01*
X128635752Y-87970957D01*
X128613211Y-87928784D01*
X128599332Y-87883033D01*
X128594400Y-87832959D01*
X128594400Y-87173041D01*
X128599332Y-87122967D01*
X128613211Y-87077216D01*
X128635752Y-87035043D01*
X128666084Y-86998084D01*
X128703043Y-86967752D01*
X128745216Y-86945211D01*
X128790967Y-86931332D01*
X128841041Y-86926400D01*
X129425959Y-86926400D01*
X129476033Y-86931332D01*
X129476033Y-86931332D01*
G37*
G36*
X95364033Y-86931332D02*
X95409784Y-86945211D01*
X95451957Y-86967752D01*
X95488916Y-86998084D01*
X95519248Y-87035043D01*
X95541789Y-87077216D01*
X95555668Y-87122967D01*
X95560600Y-87173041D01*
X95560600Y-87832959D01*
X95555668Y-87883033D01*
X95541789Y-87928784D01*
X95519248Y-87970957D01*
X95488916Y-88007916D01*
X95451957Y-88038248D01*
X95409784Y-88060789D01*
X95364033Y-88074668D01*
X95313959Y-88079600D01*
X94729041Y-88079600D01*
X94678967Y-88074668D01*
X94633216Y-88060789D01*
X94591043Y-88038248D01*
X94554084Y-88007916D01*
X94523752Y-87970957D01*
X94501211Y-87928784D01*
X94487332Y-87883033D01*
X94482400Y-87832959D01*
X94482400Y-87173041D01*
X94487332Y-87122967D01*
X94501211Y-87077216D01*
X94523752Y-87035043D01*
X94554084Y-86998084D01*
X94591043Y-86967752D01*
X94633216Y-86945211D01*
X94678967Y-86931332D01*
X94729041Y-86926400D01*
X95313959Y-86926400D01*
X95364033Y-86931332D01*
X95364033Y-86931332D01*
G37*
G36*
X93789033Y-86931332D02*
X93834784Y-86945211D01*
X93876957Y-86967752D01*
X93913916Y-86998084D01*
X93944248Y-87035043D01*
X93966789Y-87077216D01*
X93980668Y-87122967D01*
X93985600Y-87173041D01*
X93985600Y-87832959D01*
X93980668Y-87883033D01*
X93966789Y-87928784D01*
X93944248Y-87970957D01*
X93913916Y-88007916D01*
X93876957Y-88038248D01*
X93834784Y-88060789D01*
X93789033Y-88074668D01*
X93738959Y-88079600D01*
X93154041Y-88079600D01*
X93103967Y-88074668D01*
X93058216Y-88060789D01*
X93016043Y-88038248D01*
X92979084Y-88007916D01*
X92948752Y-87970957D01*
X92926211Y-87928784D01*
X92912332Y-87883033D01*
X92907400Y-87832959D01*
X92907400Y-87173041D01*
X92912332Y-87122967D01*
X92926211Y-87077216D01*
X92948752Y-87035043D01*
X92979084Y-86998084D01*
X93016043Y-86967752D01*
X93058216Y-86945211D01*
X93103967Y-86931332D01*
X93154041Y-86926400D01*
X93738959Y-86926400D01*
X93789033Y-86931332D01*
X93789033Y-86931332D01*
G37*
G36*
X120891033Y-83756332D02*
X120936784Y-83770211D01*
X120978957Y-83792752D01*
X121015916Y-83823084D01*
X121046248Y-83860043D01*
X121068789Y-83902216D01*
X121082668Y-83947967D01*
X121087600Y-83998041D01*
X121087600Y-84657959D01*
X121082668Y-84708033D01*
X121068789Y-84753784D01*
X121046248Y-84795957D01*
X121015916Y-84832916D01*
X120978957Y-84863248D01*
X120936784Y-84885789D01*
X120891033Y-84899668D01*
X120840959Y-84904600D01*
X120256041Y-84904600D01*
X120205967Y-84899668D01*
X120160216Y-84885789D01*
X120118043Y-84863248D01*
X120081084Y-84832916D01*
X120050752Y-84795957D01*
X120028211Y-84753784D01*
X120014332Y-84708033D01*
X120009400Y-84657959D01*
X120009400Y-83998041D01*
X120014332Y-83947967D01*
X120028211Y-83902216D01*
X120050752Y-83860043D01*
X120081084Y-83823084D01*
X120118043Y-83792752D01*
X120160216Y-83770211D01*
X120205967Y-83756332D01*
X120256041Y-83751400D01*
X120840959Y-83751400D01*
X120891033Y-83756332D01*
X120891033Y-83756332D01*
G37*
G36*
X119316033Y-83756332D02*
X119361784Y-83770211D01*
X119403957Y-83792752D01*
X119440916Y-83823084D01*
X119471248Y-83860043D01*
X119493789Y-83902216D01*
X119507668Y-83947967D01*
X119512600Y-83998041D01*
X119512600Y-84657959D01*
X119507668Y-84708033D01*
X119493789Y-84753784D01*
X119471248Y-84795957D01*
X119440916Y-84832916D01*
X119403957Y-84863248D01*
X119361784Y-84885789D01*
X119316033Y-84899668D01*
X119265959Y-84904600D01*
X118681041Y-84904600D01*
X118630967Y-84899668D01*
X118585216Y-84885789D01*
X118543043Y-84863248D01*
X118506084Y-84832916D01*
X118475752Y-84795957D01*
X118453211Y-84753784D01*
X118439332Y-84708033D01*
X118434400Y-84657959D01*
X118434400Y-83998041D01*
X118439332Y-83947967D01*
X118453211Y-83902216D01*
X118475752Y-83860043D01*
X118506084Y-83823084D01*
X118543043Y-83792752D01*
X118585216Y-83770211D01*
X118630967Y-83756332D01*
X118681041Y-83751400D01*
X119265959Y-83751400D01*
X119316033Y-83756332D01*
X119316033Y-83756332D01*
G37*
G36*
X105270033Y-83756332D02*
X105315784Y-83770211D01*
X105357957Y-83792752D01*
X105394916Y-83823084D01*
X105425248Y-83860043D01*
X105447789Y-83902216D01*
X105461668Y-83947967D01*
X105466600Y-83998041D01*
X105466600Y-84657959D01*
X105461668Y-84708033D01*
X105447789Y-84753784D01*
X105425248Y-84795957D01*
X105394916Y-84832916D01*
X105357957Y-84863248D01*
X105315784Y-84885789D01*
X105270033Y-84899668D01*
X105219959Y-84904600D01*
X104635041Y-84904600D01*
X104584967Y-84899668D01*
X104539216Y-84885789D01*
X104497043Y-84863248D01*
X104460084Y-84832916D01*
X104429752Y-84795957D01*
X104407211Y-84753784D01*
X104393332Y-84708033D01*
X104388400Y-84657959D01*
X104388400Y-83998041D01*
X104393332Y-83947967D01*
X104407211Y-83902216D01*
X104429752Y-83860043D01*
X104460084Y-83823084D01*
X104497043Y-83792752D01*
X104539216Y-83770211D01*
X104584967Y-83756332D01*
X104635041Y-83751400D01*
X105219959Y-83751400D01*
X105270033Y-83756332D01*
X105270033Y-83756332D01*
G37*
G36*
X103695033Y-83756332D02*
X103740784Y-83770211D01*
X103782957Y-83792752D01*
X103819916Y-83823084D01*
X103850248Y-83860043D01*
X103872789Y-83902216D01*
X103886668Y-83947967D01*
X103891600Y-83998041D01*
X103891600Y-84657959D01*
X103886668Y-84708033D01*
X103872789Y-84753784D01*
X103850248Y-84795957D01*
X103819916Y-84832916D01*
X103782957Y-84863248D01*
X103740784Y-84885789D01*
X103695033Y-84899668D01*
X103644959Y-84904600D01*
X103060041Y-84904600D01*
X103009967Y-84899668D01*
X102964216Y-84885789D01*
X102922043Y-84863248D01*
X102885084Y-84832916D01*
X102854752Y-84795957D01*
X102832211Y-84753784D01*
X102818332Y-84708033D01*
X102813400Y-84657959D01*
X102813400Y-83998041D01*
X102818332Y-83947967D01*
X102832211Y-83902216D01*
X102854752Y-83860043D01*
X102885084Y-83823084D01*
X102922043Y-83792752D01*
X102964216Y-83770211D01*
X103009967Y-83756332D01*
X103060041Y-83751400D01*
X103644959Y-83751400D01*
X103695033Y-83756332D01*
X103695033Y-83756332D01*
G37*
G36*
X94043033Y-83629332D02*
X94088784Y-83643211D01*
X94130957Y-83665752D01*
X94167916Y-83696084D01*
X94198248Y-83733043D01*
X94220789Y-83775216D01*
X94234668Y-83820967D01*
X94239600Y-83871041D01*
X94239600Y-84530959D01*
X94234668Y-84581033D01*
X94220789Y-84626784D01*
X94198248Y-84668957D01*
X94167916Y-84705916D01*
X94130957Y-84736248D01*
X94088784Y-84758789D01*
X94043033Y-84772668D01*
X93992959Y-84777600D01*
X93408041Y-84777600D01*
X93357967Y-84772668D01*
X93312216Y-84758789D01*
X93270043Y-84736248D01*
X93233084Y-84705916D01*
X93202752Y-84668957D01*
X93180211Y-84626784D01*
X93166332Y-84581033D01*
X93161400Y-84530959D01*
X93161400Y-83871041D01*
X93166332Y-83820967D01*
X93180211Y-83775216D01*
X93202752Y-83733043D01*
X93233084Y-83696084D01*
X93270043Y-83665752D01*
X93312216Y-83643211D01*
X93357967Y-83629332D01*
X93408041Y-83624400D01*
X93992959Y-83624400D01*
X94043033Y-83629332D01*
X94043033Y-83629332D01*
G37*
G36*
X129222033Y-83629332D02*
X129267784Y-83643211D01*
X129309957Y-83665752D01*
X129346916Y-83696084D01*
X129377248Y-83733043D01*
X129399789Y-83775216D01*
X129413668Y-83820967D01*
X129418600Y-83871041D01*
X129418600Y-84530959D01*
X129413668Y-84581033D01*
X129399789Y-84626784D01*
X129377248Y-84668957D01*
X129346916Y-84705916D01*
X129309957Y-84736248D01*
X129267784Y-84758789D01*
X129222033Y-84772668D01*
X129171959Y-84777600D01*
X128587041Y-84777600D01*
X128536967Y-84772668D01*
X128491216Y-84758789D01*
X128449043Y-84736248D01*
X128412084Y-84705916D01*
X128381752Y-84668957D01*
X128359211Y-84626784D01*
X128345332Y-84581033D01*
X128340400Y-84530959D01*
X128340400Y-83871041D01*
X128345332Y-83820967D01*
X128359211Y-83775216D01*
X128381752Y-83733043D01*
X128412084Y-83696084D01*
X128449043Y-83665752D01*
X128491216Y-83643211D01*
X128536967Y-83629332D01*
X128587041Y-83624400D01*
X129171959Y-83624400D01*
X129222033Y-83629332D01*
X129222033Y-83629332D01*
G37*
G36*
X95618033Y-83629332D02*
X95663784Y-83643211D01*
X95705957Y-83665752D01*
X95742916Y-83696084D01*
X95773248Y-83733043D01*
X95795789Y-83775216D01*
X95809668Y-83820967D01*
X95814600Y-83871041D01*
X95814600Y-84530959D01*
X95809668Y-84581033D01*
X95795789Y-84626784D01*
X95773248Y-84668957D01*
X95742916Y-84705916D01*
X95705957Y-84736248D01*
X95663784Y-84758789D01*
X95618033Y-84772668D01*
X95567959Y-84777600D01*
X94983041Y-84777600D01*
X94932967Y-84772668D01*
X94887216Y-84758789D01*
X94845043Y-84736248D01*
X94808084Y-84705916D01*
X94777752Y-84668957D01*
X94755211Y-84626784D01*
X94741332Y-84581033D01*
X94736400Y-84530959D01*
X94736400Y-83871041D01*
X94741332Y-83820967D01*
X94755211Y-83775216D01*
X94777752Y-83733043D01*
X94808084Y-83696084D01*
X94845043Y-83665752D01*
X94887216Y-83643211D01*
X94932967Y-83629332D01*
X94983041Y-83624400D01*
X95567959Y-83624400D01*
X95618033Y-83629332D01*
X95618033Y-83629332D01*
G37*
G36*
X130797033Y-83629332D02*
X130842784Y-83643211D01*
X130884957Y-83665752D01*
X130921916Y-83696084D01*
X130952248Y-83733043D01*
X130974789Y-83775216D01*
X130988668Y-83820967D01*
X130993600Y-83871041D01*
X130993600Y-84530959D01*
X130988668Y-84581033D01*
X130974789Y-84626784D01*
X130952248Y-84668957D01*
X130921916Y-84705916D01*
X130884957Y-84736248D01*
X130842784Y-84758789D01*
X130797033Y-84772668D01*
X130746959Y-84777600D01*
X130162041Y-84777600D01*
X130111967Y-84772668D01*
X130066216Y-84758789D01*
X130024043Y-84736248D01*
X129987084Y-84705916D01*
X129956752Y-84668957D01*
X129934211Y-84626784D01*
X129920332Y-84581033D01*
X129915400Y-84530959D01*
X129915400Y-83871041D01*
X129920332Y-83820967D01*
X129934211Y-83775216D01*
X129956752Y-83733043D01*
X129987084Y-83696084D01*
X130024043Y-83665752D01*
X130066216Y-83643211D01*
X130111967Y-83629332D01*
X130162041Y-83624400D01*
X130746959Y-83624400D01*
X130797033Y-83629332D01*
X130797033Y-83629332D01*
G37*
G36*
X124015033Y-83121332D02*
X124060784Y-83135211D01*
X124102957Y-83157752D01*
X124139916Y-83188084D01*
X124170248Y-83225043D01*
X124192789Y-83267216D01*
X124206668Y-83312967D01*
X124211600Y-83363041D01*
X124211600Y-84022959D01*
X124206668Y-84073033D01*
X124192789Y-84118784D01*
X124170248Y-84160957D01*
X124139916Y-84197916D01*
X124102957Y-84228248D01*
X124060784Y-84250789D01*
X124015033Y-84264668D01*
X123964959Y-84269600D01*
X123380041Y-84269600D01*
X123329967Y-84264668D01*
X123284216Y-84250789D01*
X123242043Y-84228248D01*
X123205084Y-84197916D01*
X123174752Y-84160957D01*
X123152211Y-84118784D01*
X123138332Y-84073033D01*
X123133400Y-84022959D01*
X123133400Y-83363041D01*
X123138332Y-83312967D01*
X123152211Y-83267216D01*
X123174752Y-83225043D01*
X123205084Y-83188084D01*
X123242043Y-83157752D01*
X123284216Y-83135211D01*
X123329967Y-83121332D01*
X123380041Y-83116400D01*
X123964959Y-83116400D01*
X124015033Y-83121332D01*
X124015033Y-83121332D01*
G37*
G36*
X125590033Y-83121332D02*
X125635784Y-83135211D01*
X125677957Y-83157752D01*
X125714916Y-83188084D01*
X125745248Y-83225043D01*
X125767789Y-83267216D01*
X125781668Y-83312967D01*
X125786600Y-83363041D01*
X125786600Y-84022959D01*
X125781668Y-84073033D01*
X125767789Y-84118784D01*
X125745248Y-84160957D01*
X125714916Y-84197916D01*
X125677957Y-84228248D01*
X125635784Y-84250789D01*
X125590033Y-84264668D01*
X125539959Y-84269600D01*
X124955041Y-84269600D01*
X124904967Y-84264668D01*
X124859216Y-84250789D01*
X124817043Y-84228248D01*
X124780084Y-84197916D01*
X124749752Y-84160957D01*
X124727211Y-84118784D01*
X124713332Y-84073033D01*
X124708400Y-84022959D01*
X124708400Y-83363041D01*
X124713332Y-83312967D01*
X124727211Y-83267216D01*
X124749752Y-83225043D01*
X124780084Y-83188084D01*
X124817043Y-83157752D01*
X124859216Y-83135211D01*
X124904967Y-83121332D01*
X124955041Y-83116400D01*
X125539959Y-83116400D01*
X125590033Y-83121332D01*
X125590033Y-83121332D01*
G37*
G36*
X99250033Y-82994332D02*
X99295784Y-83008211D01*
X99337957Y-83030752D01*
X99374916Y-83061084D01*
X99405248Y-83098043D01*
X99427789Y-83140216D01*
X99441668Y-83185967D01*
X99446600Y-83236041D01*
X99446600Y-83895959D01*
X99441668Y-83946033D01*
X99427789Y-83991784D01*
X99405248Y-84033957D01*
X99374916Y-84070916D01*
X99337957Y-84101248D01*
X99295784Y-84123789D01*
X99250033Y-84137668D01*
X99199959Y-84142600D01*
X98615041Y-84142600D01*
X98564967Y-84137668D01*
X98519216Y-84123789D01*
X98477043Y-84101248D01*
X98440084Y-84070916D01*
X98409752Y-84033957D01*
X98387211Y-83991784D01*
X98373332Y-83946033D01*
X98368400Y-83895959D01*
X98368400Y-83236041D01*
X98373332Y-83185967D01*
X98387211Y-83140216D01*
X98409752Y-83098043D01*
X98440084Y-83061084D01*
X98477043Y-83030752D01*
X98519216Y-83008211D01*
X98564967Y-82994332D01*
X98615041Y-82989400D01*
X99199959Y-82989400D01*
X99250033Y-82994332D01*
X99250033Y-82994332D01*
G37*
G36*
X100825033Y-82994332D02*
X100870784Y-83008211D01*
X100912957Y-83030752D01*
X100949916Y-83061084D01*
X100980248Y-83098043D01*
X101002789Y-83140216D01*
X101016668Y-83185967D01*
X101021600Y-83236041D01*
X101021600Y-83895959D01*
X101016668Y-83946033D01*
X101002789Y-83991784D01*
X100980248Y-84033957D01*
X100949916Y-84070916D01*
X100912957Y-84101248D01*
X100870784Y-84123789D01*
X100825033Y-84137668D01*
X100774959Y-84142600D01*
X100190041Y-84142600D01*
X100139967Y-84137668D01*
X100094216Y-84123789D01*
X100052043Y-84101248D01*
X100015084Y-84070916D01*
X99984752Y-84033957D01*
X99962211Y-83991784D01*
X99948332Y-83946033D01*
X99943400Y-83895959D01*
X99943400Y-83236041D01*
X99948332Y-83185967D01*
X99962211Y-83140216D01*
X99984752Y-83098043D01*
X100015084Y-83061084D01*
X100052043Y-83030752D01*
X100094216Y-83008211D01*
X100139967Y-82994332D01*
X100190041Y-82989400D01*
X100774959Y-82989400D01*
X100825033Y-82994332D01*
X100825033Y-82994332D01*
G37*
G36*
X117411033Y-80835332D02*
X117456784Y-80849211D01*
X117498957Y-80871752D01*
X117535916Y-80902084D01*
X117566248Y-80939043D01*
X117588789Y-80981216D01*
X117602668Y-81026967D01*
X117607600Y-81077041D01*
X117607600Y-81736959D01*
X117602668Y-81787033D01*
X117588789Y-81832784D01*
X117566248Y-81874957D01*
X117535916Y-81911916D01*
X117498957Y-81942248D01*
X117456784Y-81964789D01*
X117411033Y-81978668D01*
X117360959Y-81983600D01*
X116776041Y-81983600D01*
X116725967Y-81978668D01*
X116680216Y-81964789D01*
X116638043Y-81942248D01*
X116601084Y-81911916D01*
X116570752Y-81874957D01*
X116548211Y-81832784D01*
X116534332Y-81787033D01*
X116529400Y-81736959D01*
X116529400Y-81077041D01*
X116534332Y-81026967D01*
X116548211Y-80981216D01*
X116570752Y-80939043D01*
X116601084Y-80902084D01*
X116638043Y-80871752D01*
X116680216Y-80849211D01*
X116725967Y-80835332D01*
X116776041Y-80830400D01*
X117360959Y-80830400D01*
X117411033Y-80835332D01*
X117411033Y-80835332D01*
G37*
G36*
X118986033Y-80835332D02*
X119031784Y-80849211D01*
X119073957Y-80871752D01*
X119110916Y-80902084D01*
X119141248Y-80939043D01*
X119163789Y-80981216D01*
X119177668Y-81026967D01*
X119182600Y-81077041D01*
X119182600Y-81736959D01*
X119177668Y-81787033D01*
X119163789Y-81832784D01*
X119141248Y-81874957D01*
X119110916Y-81911916D01*
X119073957Y-81942248D01*
X119031784Y-81964789D01*
X118986033Y-81978668D01*
X118935959Y-81983600D01*
X118351041Y-81983600D01*
X118300967Y-81978668D01*
X118255216Y-81964789D01*
X118213043Y-81942248D01*
X118176084Y-81911916D01*
X118145752Y-81874957D01*
X118123211Y-81832784D01*
X118109332Y-81787033D01*
X118104400Y-81736959D01*
X118104400Y-81077041D01*
X118109332Y-81026967D01*
X118123211Y-80981216D01*
X118145752Y-80939043D01*
X118176084Y-80902084D01*
X118213043Y-80871752D01*
X118255216Y-80849211D01*
X118300967Y-80835332D01*
X118351041Y-80830400D01*
X118935959Y-80830400D01*
X118986033Y-80835332D01*
X118986033Y-80835332D01*
G37*
G36*
X107149533Y-80835332D02*
X107195284Y-80849211D01*
X107237457Y-80871752D01*
X107274416Y-80902084D01*
X107304748Y-80939043D01*
X107327289Y-80981216D01*
X107341168Y-81026967D01*
X107346100Y-81077041D01*
X107346100Y-81736959D01*
X107341168Y-81787033D01*
X107327289Y-81832784D01*
X107304748Y-81874957D01*
X107274416Y-81911916D01*
X107237457Y-81942248D01*
X107195284Y-81964789D01*
X107149533Y-81978668D01*
X107099459Y-81983600D01*
X106514541Y-81983600D01*
X106464467Y-81978668D01*
X106418716Y-81964789D01*
X106376543Y-81942248D01*
X106339584Y-81911916D01*
X106309252Y-81874957D01*
X106286711Y-81832784D01*
X106272832Y-81787033D01*
X106267900Y-81736959D01*
X106267900Y-81077041D01*
X106272832Y-81026967D01*
X106286711Y-80981216D01*
X106309252Y-80939043D01*
X106339584Y-80902084D01*
X106376543Y-80871752D01*
X106418716Y-80849211D01*
X106464467Y-80835332D01*
X106514541Y-80830400D01*
X107099459Y-80830400D01*
X107149533Y-80835332D01*
X107149533Y-80835332D01*
G37*
G36*
X105574533Y-80835332D02*
X105620284Y-80849211D01*
X105662457Y-80871752D01*
X105699416Y-80902084D01*
X105729748Y-80939043D01*
X105752289Y-80981216D01*
X105766168Y-81026967D01*
X105771100Y-81077041D01*
X105771100Y-81736959D01*
X105766168Y-81787033D01*
X105752289Y-81832784D01*
X105729748Y-81874957D01*
X105699416Y-81911916D01*
X105662457Y-81942248D01*
X105620284Y-81964789D01*
X105574533Y-81978668D01*
X105524459Y-81983600D01*
X104939541Y-81983600D01*
X104889467Y-81978668D01*
X104843716Y-81964789D01*
X104801543Y-81942248D01*
X104764584Y-81911916D01*
X104734252Y-81874957D01*
X104711711Y-81832784D01*
X104697832Y-81787033D01*
X104692900Y-81736959D01*
X104692900Y-81077041D01*
X104697832Y-81026967D01*
X104711711Y-80981216D01*
X104734252Y-80939043D01*
X104764584Y-80902084D01*
X104801543Y-80871752D01*
X104843716Y-80849211D01*
X104889467Y-80835332D01*
X104939541Y-80830400D01*
X105524459Y-80830400D01*
X105574533Y-80835332D01*
X105574533Y-80835332D01*
G37*
G36*
X129679533Y-79946332D02*
X129725284Y-79960211D01*
X129767457Y-79982752D01*
X129804416Y-80013084D01*
X129834748Y-80050043D01*
X129857289Y-80092216D01*
X129871168Y-80137967D01*
X129876100Y-80188041D01*
X129876100Y-80847959D01*
X129871168Y-80898033D01*
X129857289Y-80943784D01*
X129834748Y-80985957D01*
X129804416Y-81022916D01*
X129767457Y-81053248D01*
X129725284Y-81075789D01*
X129679533Y-81089668D01*
X129629459Y-81094600D01*
X129044541Y-81094600D01*
X128994467Y-81089668D01*
X128948716Y-81075789D01*
X128906543Y-81053248D01*
X128869584Y-81022916D01*
X128839252Y-80985957D01*
X128816711Y-80943784D01*
X128802832Y-80898033D01*
X128797900Y-80847959D01*
X128797900Y-80188041D01*
X128802832Y-80137967D01*
X128816711Y-80092216D01*
X128839252Y-80050043D01*
X128869584Y-80013084D01*
X128906543Y-79982752D01*
X128948716Y-79960211D01*
X128994467Y-79946332D01*
X129044541Y-79941400D01*
X129629459Y-79941400D01*
X129679533Y-79946332D01*
X129679533Y-79946332D01*
G37*
G36*
X128104533Y-79946332D02*
X128150284Y-79960211D01*
X128192457Y-79982752D01*
X128229416Y-80013084D01*
X128259748Y-80050043D01*
X128282289Y-80092216D01*
X128296168Y-80137967D01*
X128301100Y-80188041D01*
X128301100Y-80847959D01*
X128296168Y-80898033D01*
X128282289Y-80943784D01*
X128259748Y-80985957D01*
X128229416Y-81022916D01*
X128192457Y-81053248D01*
X128150284Y-81075789D01*
X128104533Y-81089668D01*
X128054459Y-81094600D01*
X127469541Y-81094600D01*
X127419467Y-81089668D01*
X127373716Y-81075789D01*
X127331543Y-81053248D01*
X127294584Y-81022916D01*
X127264252Y-80985957D01*
X127241711Y-80943784D01*
X127227832Y-80898033D01*
X127222900Y-80847959D01*
X127222900Y-80188041D01*
X127227832Y-80137967D01*
X127241711Y-80092216D01*
X127264252Y-80050043D01*
X127294584Y-80013084D01*
X127331543Y-79982752D01*
X127373716Y-79960211D01*
X127419467Y-79946332D01*
X127469541Y-79941400D01*
X128054459Y-79941400D01*
X128104533Y-79946332D01*
X128104533Y-79946332D01*
G37*
G36*
X95160533Y-79946332D02*
X95206284Y-79960211D01*
X95248457Y-79982752D01*
X95285416Y-80013084D01*
X95315748Y-80050043D01*
X95338289Y-80092216D01*
X95352168Y-80137967D01*
X95357100Y-80188041D01*
X95357100Y-80847959D01*
X95352168Y-80898033D01*
X95338289Y-80943784D01*
X95315748Y-80985957D01*
X95285416Y-81022916D01*
X95248457Y-81053248D01*
X95206284Y-81075789D01*
X95160533Y-81089668D01*
X95110459Y-81094600D01*
X94525541Y-81094600D01*
X94475467Y-81089668D01*
X94429716Y-81075789D01*
X94387543Y-81053248D01*
X94350584Y-81022916D01*
X94320252Y-80985957D01*
X94297711Y-80943784D01*
X94283832Y-80898033D01*
X94278900Y-80847959D01*
X94278900Y-80188041D01*
X94283832Y-80137967D01*
X94297711Y-80092216D01*
X94320252Y-80050043D01*
X94350584Y-80013084D01*
X94387543Y-79982752D01*
X94429716Y-79960211D01*
X94475467Y-79946332D01*
X94525541Y-79941400D01*
X95110459Y-79941400D01*
X95160533Y-79946332D01*
X95160533Y-79946332D01*
G37*
G36*
X96735533Y-79946332D02*
X96781284Y-79960211D01*
X96823457Y-79982752D01*
X96860416Y-80013084D01*
X96890748Y-80050043D01*
X96913289Y-80092216D01*
X96927168Y-80137967D01*
X96932100Y-80188041D01*
X96932100Y-80847959D01*
X96927168Y-80898033D01*
X96913289Y-80943784D01*
X96890748Y-80985957D01*
X96860416Y-81022916D01*
X96823457Y-81053248D01*
X96781284Y-81075789D01*
X96735533Y-81089668D01*
X96685459Y-81094600D01*
X96100541Y-81094600D01*
X96050467Y-81089668D01*
X96004716Y-81075789D01*
X95962543Y-81053248D01*
X95925584Y-81022916D01*
X95895252Y-80985957D01*
X95872711Y-80943784D01*
X95858832Y-80898033D01*
X95853900Y-80847959D01*
X95853900Y-80188041D01*
X95858832Y-80137967D01*
X95872711Y-80092216D01*
X95895252Y-80050043D01*
X95925584Y-80013084D01*
X95962543Y-79982752D01*
X96004716Y-79960211D01*
X96050467Y-79946332D01*
X96100541Y-79941400D01*
X96685459Y-79941400D01*
X96735533Y-79946332D01*
X96735533Y-79946332D01*
G37*
G36*
X110731033Y-78676332D02*
X110776784Y-78690211D01*
X110818957Y-78712752D01*
X110855916Y-78743084D01*
X110886248Y-78780043D01*
X110908789Y-78822216D01*
X110922668Y-78867967D01*
X110927600Y-78918041D01*
X110927600Y-79577959D01*
X110922668Y-79628033D01*
X110908789Y-79673784D01*
X110886248Y-79715957D01*
X110855916Y-79752916D01*
X110818957Y-79783248D01*
X110776784Y-79805789D01*
X110731033Y-79819668D01*
X110680959Y-79824600D01*
X110096041Y-79824600D01*
X110045967Y-79819668D01*
X110000216Y-79805789D01*
X109958043Y-79783248D01*
X109921084Y-79752916D01*
X109890752Y-79715957D01*
X109868211Y-79673784D01*
X109854332Y-79628033D01*
X109849400Y-79577959D01*
X109849400Y-78918041D01*
X109854332Y-78867967D01*
X109868211Y-78822216D01*
X109890752Y-78780043D01*
X109921084Y-78743084D01*
X109958043Y-78712752D01*
X110000216Y-78690211D01*
X110045967Y-78676332D01*
X110096041Y-78671400D01*
X110680959Y-78671400D01*
X110731033Y-78676332D01*
X110731033Y-78676332D01*
G37*
G36*
X109156033Y-78676332D02*
X109201784Y-78690211D01*
X109243957Y-78712752D01*
X109280916Y-78743084D01*
X109311248Y-78780043D01*
X109333789Y-78822216D01*
X109347668Y-78867967D01*
X109352600Y-78918041D01*
X109352600Y-79577959D01*
X109347668Y-79628033D01*
X109333789Y-79673784D01*
X109311248Y-79715957D01*
X109280916Y-79752916D01*
X109243957Y-79783248D01*
X109201784Y-79805789D01*
X109156033Y-79819668D01*
X109105959Y-79824600D01*
X108521041Y-79824600D01*
X108470967Y-79819668D01*
X108425216Y-79805789D01*
X108383043Y-79783248D01*
X108346084Y-79752916D01*
X108315752Y-79715957D01*
X108293211Y-79673784D01*
X108279332Y-79628033D01*
X108274400Y-79577959D01*
X108274400Y-78918041D01*
X108279332Y-78867967D01*
X108293211Y-78822216D01*
X108315752Y-78780043D01*
X108346084Y-78743084D01*
X108383043Y-78712752D01*
X108425216Y-78690211D01*
X108470967Y-78676332D01*
X108521041Y-78671400D01*
X109105959Y-78671400D01*
X109156033Y-78676332D01*
X109156033Y-78676332D01*
G37*
G36*
X107314033Y-78713832D02*
X107359784Y-78727711D01*
X107401957Y-78750252D01*
X107438916Y-78780584D01*
X107469248Y-78817543D01*
X107491789Y-78859716D01*
X107505668Y-78905467D01*
X107510600Y-78955541D01*
X107510600Y-79540459D01*
X107505668Y-79590533D01*
X107491789Y-79636284D01*
X107469248Y-79678457D01*
X107438916Y-79715416D01*
X107401957Y-79745748D01*
X107359784Y-79768289D01*
X107314033Y-79782168D01*
X107263959Y-79787100D01*
X106604041Y-79787100D01*
X106553967Y-79782168D01*
X106508216Y-79768289D01*
X106466043Y-79745748D01*
X106429084Y-79715416D01*
X106398752Y-79678457D01*
X106376211Y-79636284D01*
X106362332Y-79590533D01*
X106357400Y-79540459D01*
X106357400Y-78955541D01*
X106362332Y-78905467D01*
X106376211Y-78859716D01*
X106398752Y-78817543D01*
X106429084Y-78780584D01*
X106466043Y-78750252D01*
X106508216Y-78727711D01*
X106553967Y-78713832D01*
X106604041Y-78708900D01*
X107263959Y-78708900D01*
X107314033Y-78713832D01*
X107314033Y-78713832D01*
G37*
G36*
X107314033Y-77138832D02*
X107359784Y-77152711D01*
X107401957Y-77175252D01*
X107438916Y-77205584D01*
X107469248Y-77242543D01*
X107491789Y-77284716D01*
X107505668Y-77330467D01*
X107510600Y-77380541D01*
X107510600Y-77965459D01*
X107505668Y-78015533D01*
X107491789Y-78061284D01*
X107469248Y-78103457D01*
X107438916Y-78140416D01*
X107401957Y-78170748D01*
X107359784Y-78193289D01*
X107314033Y-78207168D01*
X107263959Y-78212100D01*
X106604041Y-78212100D01*
X106553967Y-78207168D01*
X106508216Y-78193289D01*
X106466043Y-78170748D01*
X106429084Y-78140416D01*
X106398752Y-78103457D01*
X106376211Y-78061284D01*
X106362332Y-78015533D01*
X106357400Y-77965459D01*
X106357400Y-77380541D01*
X106362332Y-77330467D01*
X106376211Y-77284716D01*
X106398752Y-77242543D01*
X106429084Y-77205584D01*
X106466043Y-77175252D01*
X106508216Y-77152711D01*
X106553967Y-77138832D01*
X106604041Y-77133900D01*
X107263959Y-77133900D01*
X107314033Y-77138832D01*
X107314033Y-77138832D01*
G37*
G36*
X96964033Y-76771332D02*
X97009784Y-76785211D01*
X97051957Y-76807752D01*
X97088916Y-76838084D01*
X97119248Y-76875043D01*
X97141789Y-76917216D01*
X97155668Y-76962967D01*
X97160600Y-77013041D01*
X97160600Y-77672959D01*
X97155668Y-77723033D01*
X97141789Y-77768784D01*
X97119248Y-77810957D01*
X97088916Y-77847916D01*
X97051957Y-77878248D01*
X97009784Y-77900789D01*
X96964033Y-77914668D01*
X96913959Y-77919600D01*
X96329041Y-77919600D01*
X96278967Y-77914668D01*
X96233216Y-77900789D01*
X96191043Y-77878248D01*
X96154084Y-77847916D01*
X96123752Y-77810957D01*
X96101211Y-77768784D01*
X96087332Y-77723033D01*
X96082400Y-77672959D01*
X96082400Y-77013041D01*
X96087332Y-76962967D01*
X96101211Y-76917216D01*
X96123752Y-76875043D01*
X96154084Y-76838084D01*
X96191043Y-76807752D01*
X96233216Y-76785211D01*
X96278967Y-76771332D01*
X96329041Y-76766400D01*
X96913959Y-76766400D01*
X96964033Y-76771332D01*
X96964033Y-76771332D01*
G37*
G36*
X104508033Y-76771332D02*
X104553784Y-76785211D01*
X104595957Y-76807752D01*
X104632916Y-76838084D01*
X104663248Y-76875043D01*
X104685789Y-76917216D01*
X104699668Y-76962967D01*
X104704600Y-77013041D01*
X104704600Y-77672959D01*
X104699668Y-77723033D01*
X104685789Y-77768784D01*
X104663248Y-77810957D01*
X104632916Y-77847916D01*
X104595957Y-77878248D01*
X104553784Y-77900789D01*
X104508033Y-77914668D01*
X104457959Y-77919600D01*
X103873041Y-77919600D01*
X103822967Y-77914668D01*
X103777216Y-77900789D01*
X103735043Y-77878248D01*
X103698084Y-77847916D01*
X103667752Y-77810957D01*
X103645211Y-77768784D01*
X103631332Y-77723033D01*
X103626400Y-77672959D01*
X103626400Y-77013041D01*
X103631332Y-76962967D01*
X103645211Y-76917216D01*
X103667752Y-76875043D01*
X103698084Y-76838084D01*
X103735043Y-76807752D01*
X103777216Y-76785211D01*
X103822967Y-76771332D01*
X103873041Y-76766400D01*
X104457959Y-76766400D01*
X104508033Y-76771332D01*
X104508033Y-76771332D01*
G37*
G36*
X121780033Y-76771332D02*
X121825784Y-76785211D01*
X121867957Y-76807752D01*
X121904916Y-76838084D01*
X121935248Y-76875043D01*
X121957789Y-76917216D01*
X121971668Y-76962967D01*
X121976600Y-77013041D01*
X121976600Y-77672959D01*
X121971668Y-77723033D01*
X121957789Y-77768784D01*
X121935248Y-77810957D01*
X121904916Y-77847916D01*
X121867957Y-77878248D01*
X121825784Y-77900789D01*
X121780033Y-77914668D01*
X121729959Y-77919600D01*
X121145041Y-77919600D01*
X121094967Y-77914668D01*
X121049216Y-77900789D01*
X121007043Y-77878248D01*
X120970084Y-77847916D01*
X120939752Y-77810957D01*
X120917211Y-77768784D01*
X120903332Y-77723033D01*
X120898400Y-77672959D01*
X120898400Y-77013041D01*
X120903332Y-76962967D01*
X120917211Y-76917216D01*
X120939752Y-76875043D01*
X120970084Y-76838084D01*
X121007043Y-76807752D01*
X121049216Y-76785211D01*
X121094967Y-76771332D01*
X121145041Y-76766400D01*
X121729959Y-76766400D01*
X121780033Y-76771332D01*
X121780033Y-76771332D01*
G37*
G36*
X102933033Y-76771332D02*
X102978784Y-76785211D01*
X103020957Y-76807752D01*
X103057916Y-76838084D01*
X103088248Y-76875043D01*
X103110789Y-76917216D01*
X103124668Y-76962967D01*
X103129600Y-77013041D01*
X103129600Y-77672959D01*
X103124668Y-77723033D01*
X103110789Y-77768784D01*
X103088248Y-77810957D01*
X103057916Y-77847916D01*
X103020957Y-77878248D01*
X102978784Y-77900789D01*
X102933033Y-77914668D01*
X102882959Y-77919600D01*
X102298041Y-77919600D01*
X102247967Y-77914668D01*
X102202216Y-77900789D01*
X102160043Y-77878248D01*
X102123084Y-77847916D01*
X102092752Y-77810957D01*
X102070211Y-77768784D01*
X102056332Y-77723033D01*
X102051400Y-77672959D01*
X102051400Y-77013041D01*
X102056332Y-76962967D01*
X102070211Y-76917216D01*
X102092752Y-76875043D01*
X102123084Y-76838084D01*
X102160043Y-76807752D01*
X102202216Y-76785211D01*
X102247967Y-76771332D01*
X102298041Y-76766400D01*
X102882959Y-76766400D01*
X102933033Y-76771332D01*
X102933033Y-76771332D01*
G37*
G36*
X120205033Y-76771332D02*
X120250784Y-76785211D01*
X120292957Y-76807752D01*
X120329916Y-76838084D01*
X120360248Y-76875043D01*
X120382789Y-76917216D01*
X120396668Y-76962967D01*
X120401600Y-77013041D01*
X120401600Y-77672959D01*
X120396668Y-77723033D01*
X120382789Y-77768784D01*
X120360248Y-77810957D01*
X120329916Y-77847916D01*
X120292957Y-77878248D01*
X120250784Y-77900789D01*
X120205033Y-77914668D01*
X120154959Y-77919600D01*
X119570041Y-77919600D01*
X119519967Y-77914668D01*
X119474216Y-77900789D01*
X119432043Y-77878248D01*
X119395084Y-77847916D01*
X119364752Y-77810957D01*
X119342211Y-77768784D01*
X119328332Y-77723033D01*
X119323400Y-77672959D01*
X119323400Y-77013041D01*
X119328332Y-76962967D01*
X119342211Y-76917216D01*
X119364752Y-76875043D01*
X119395084Y-76838084D01*
X119432043Y-76807752D01*
X119474216Y-76785211D01*
X119519967Y-76771332D01*
X119570041Y-76766400D01*
X120154959Y-76766400D01*
X120205033Y-76771332D01*
X120205033Y-76771332D01*
G37*
G36*
X98539033Y-76771332D02*
X98584784Y-76785211D01*
X98626957Y-76807752D01*
X98663916Y-76838084D01*
X98694248Y-76875043D01*
X98716789Y-76917216D01*
X98730668Y-76962967D01*
X98735600Y-77013041D01*
X98735600Y-77672959D01*
X98730668Y-77723033D01*
X98716789Y-77768784D01*
X98694248Y-77810957D01*
X98663916Y-77847916D01*
X98626957Y-77878248D01*
X98584784Y-77900789D01*
X98539033Y-77914668D01*
X98488959Y-77919600D01*
X97904041Y-77919600D01*
X97853967Y-77914668D01*
X97808216Y-77900789D01*
X97766043Y-77878248D01*
X97729084Y-77847916D01*
X97698752Y-77810957D01*
X97676211Y-77768784D01*
X97662332Y-77723033D01*
X97657400Y-77672959D01*
X97657400Y-77013041D01*
X97662332Y-76962967D01*
X97676211Y-76917216D01*
X97698752Y-76875043D01*
X97729084Y-76838084D01*
X97766043Y-76807752D01*
X97808216Y-76785211D01*
X97853967Y-76771332D01*
X97904041Y-76766400D01*
X98488959Y-76766400D01*
X98539033Y-76771332D01*
X98539033Y-76771332D01*
G37*
G36*
X127749033Y-76644332D02*
X127794784Y-76658211D01*
X127836957Y-76680752D01*
X127873916Y-76711084D01*
X127904248Y-76748043D01*
X127926789Y-76790216D01*
X127940668Y-76835967D01*
X127945600Y-76886041D01*
X127945600Y-77545959D01*
X127940668Y-77596033D01*
X127926789Y-77641784D01*
X127904248Y-77683957D01*
X127873916Y-77720916D01*
X127836957Y-77751248D01*
X127794784Y-77773789D01*
X127749033Y-77787668D01*
X127698959Y-77792600D01*
X127114041Y-77792600D01*
X127063967Y-77787668D01*
X127018216Y-77773789D01*
X126976043Y-77751248D01*
X126939084Y-77720916D01*
X126908752Y-77683957D01*
X126886211Y-77641784D01*
X126872332Y-77596033D01*
X126867400Y-77545959D01*
X126867400Y-76886041D01*
X126872332Y-76835967D01*
X126886211Y-76790216D01*
X126908752Y-76748043D01*
X126939084Y-76711084D01*
X126976043Y-76680752D01*
X127018216Y-76658211D01*
X127063967Y-76644332D01*
X127114041Y-76639400D01*
X127698959Y-76639400D01*
X127749033Y-76644332D01*
X127749033Y-76644332D01*
G37*
G36*
X126174033Y-76644332D02*
X126219784Y-76658211D01*
X126261957Y-76680752D01*
X126298916Y-76711084D01*
X126329248Y-76748043D01*
X126351789Y-76790216D01*
X126365668Y-76835967D01*
X126370600Y-76886041D01*
X126370600Y-77545959D01*
X126365668Y-77596033D01*
X126351789Y-77641784D01*
X126329248Y-77683957D01*
X126298916Y-77720916D01*
X126261957Y-77751248D01*
X126219784Y-77773789D01*
X126174033Y-77787668D01*
X126123959Y-77792600D01*
X125539041Y-77792600D01*
X125488967Y-77787668D01*
X125443216Y-77773789D01*
X125401043Y-77751248D01*
X125364084Y-77720916D01*
X125333752Y-77683957D01*
X125311211Y-77641784D01*
X125297332Y-77596033D01*
X125292400Y-77545959D01*
X125292400Y-76886041D01*
X125297332Y-76835967D01*
X125311211Y-76790216D01*
X125333752Y-76748043D01*
X125364084Y-76711084D01*
X125401043Y-76680752D01*
X125443216Y-76658211D01*
X125488967Y-76644332D01*
X125539041Y-76639400D01*
X126123959Y-76639400D01*
X126174033Y-76644332D01*
X126174033Y-76644332D01*
G37*
G36*
X115585600Y-77597600D02*
X114792400Y-77597600D01*
X114792400Y-75444400D01*
X115585600Y-75444400D01*
X115585600Y-77597600D01*
X115585600Y-77597600D01*
G37*
G36*
X109235600Y-77597600D02*
X108442400Y-77597600D01*
X108442400Y-75444400D01*
X109235600Y-75444400D01*
X109235600Y-77597600D01*
X109235600Y-77597600D01*
G37*
G36*
X110505600Y-77597600D02*
X109712400Y-77597600D01*
X109712400Y-75444400D01*
X110505600Y-75444400D01*
X110505600Y-77597600D01*
X110505600Y-77597600D01*
G37*
G36*
X116855600Y-77597600D02*
X116062400Y-77597600D01*
X116062400Y-75444400D01*
X116855600Y-75444400D01*
X116855600Y-77597600D01*
X116855600Y-77597600D01*
G37*
G36*
X114315600Y-77597600D02*
X113522400Y-77597600D01*
X113522400Y-75444400D01*
X114315600Y-75444400D01*
X114315600Y-77597600D01*
X114315600Y-77597600D01*
G37*
G36*
X113045600Y-77597600D02*
X112252400Y-77597600D01*
X112252400Y-75444400D01*
X113045600Y-75444400D01*
X113045600Y-77597600D01*
X113045600Y-77597600D01*
G37*
G36*
X111775600Y-77597600D02*
X110982400Y-77597600D01*
X110982400Y-75444400D01*
X111775600Y-75444400D01*
X111775600Y-77597600D01*
X111775600Y-77597600D01*
G37*
G36*
X107314033Y-74736192D02*
X107359784Y-74750071D01*
X107401957Y-74772612D01*
X107438916Y-74802944D01*
X107469248Y-74839903D01*
X107491789Y-74882076D01*
X107505668Y-74927827D01*
X107510600Y-74977901D01*
X107510600Y-75562819D01*
X107505668Y-75612893D01*
X107491789Y-75658644D01*
X107469248Y-75700817D01*
X107438916Y-75737776D01*
X107401957Y-75768108D01*
X107359784Y-75790649D01*
X107314033Y-75804528D01*
X107263959Y-75809460D01*
X106604041Y-75809460D01*
X106553967Y-75804528D01*
X106508216Y-75790649D01*
X106466043Y-75768108D01*
X106429084Y-75737776D01*
X106398752Y-75700817D01*
X106376211Y-75658644D01*
X106362332Y-75612893D01*
X106357400Y-75562819D01*
X106357400Y-74977901D01*
X106362332Y-74927827D01*
X106376211Y-74882076D01*
X106398752Y-74839903D01*
X106429084Y-74802944D01*
X106466043Y-74772612D01*
X106508216Y-74750071D01*
X106553967Y-74736192D01*
X106604041Y-74731260D01*
X107263959Y-74731260D01*
X107314033Y-74736192D01*
X107314033Y-74736192D01*
G37*
G36*
X107314033Y-73161192D02*
X107359784Y-73175071D01*
X107401957Y-73197612D01*
X107438916Y-73227944D01*
X107469248Y-73264903D01*
X107491789Y-73307076D01*
X107505668Y-73352827D01*
X107510600Y-73402901D01*
X107510600Y-73987819D01*
X107505668Y-74037893D01*
X107491789Y-74083644D01*
X107469248Y-74125817D01*
X107438916Y-74162776D01*
X107401957Y-74193108D01*
X107359784Y-74215649D01*
X107314033Y-74229528D01*
X107263959Y-74234460D01*
X106604041Y-74234460D01*
X106553967Y-74229528D01*
X106508216Y-74215649D01*
X106466043Y-74193108D01*
X106429084Y-74162776D01*
X106398752Y-74125817D01*
X106376211Y-74083644D01*
X106362332Y-74037893D01*
X106357400Y-73987819D01*
X106357400Y-73402901D01*
X106362332Y-73352827D01*
X106376211Y-73307076D01*
X106398752Y-73264903D01*
X106429084Y-73227944D01*
X106466043Y-73197612D01*
X106508216Y-73175071D01*
X106553967Y-73161192D01*
X106604041Y-73156260D01*
X107263959Y-73156260D01*
X107314033Y-73161192D01*
X107314033Y-73161192D01*
G37*
G36*
X100139033Y-72961332D02*
X100184784Y-72975211D01*
X100226957Y-72997752D01*
X100263916Y-73028084D01*
X100294248Y-73065043D01*
X100316789Y-73107216D01*
X100330668Y-73152967D01*
X100335600Y-73203041D01*
X100335600Y-73862959D01*
X100330668Y-73913033D01*
X100316789Y-73958784D01*
X100294248Y-74000957D01*
X100263916Y-74037916D01*
X100226957Y-74068248D01*
X100184784Y-74090789D01*
X100139033Y-74104668D01*
X100088959Y-74109600D01*
X99504041Y-74109600D01*
X99453967Y-74104668D01*
X99408216Y-74090789D01*
X99366043Y-74068248D01*
X99329084Y-74037916D01*
X99298752Y-74000957D01*
X99276211Y-73958784D01*
X99262332Y-73913033D01*
X99257400Y-73862959D01*
X99257400Y-73203041D01*
X99262332Y-73152967D01*
X99276211Y-73107216D01*
X99298752Y-73065043D01*
X99329084Y-73028084D01*
X99366043Y-72997752D01*
X99408216Y-72975211D01*
X99453967Y-72961332D01*
X99504041Y-72956400D01*
X100088959Y-72956400D01*
X100139033Y-72961332D01*
X100139033Y-72961332D01*
G37*
G36*
X101714033Y-72961332D02*
X101759784Y-72975211D01*
X101801957Y-72997752D01*
X101838916Y-73028084D01*
X101869248Y-73065043D01*
X101891789Y-73107216D01*
X101905668Y-73152967D01*
X101910600Y-73203041D01*
X101910600Y-73862959D01*
X101905668Y-73913033D01*
X101891789Y-73958784D01*
X101869248Y-74000957D01*
X101838916Y-74037916D01*
X101801957Y-74068248D01*
X101759784Y-74090789D01*
X101714033Y-74104668D01*
X101663959Y-74109600D01*
X101079041Y-74109600D01*
X101028967Y-74104668D01*
X100983216Y-74090789D01*
X100941043Y-74068248D01*
X100904084Y-74037916D01*
X100873752Y-74000957D01*
X100851211Y-73958784D01*
X100837332Y-73913033D01*
X100832400Y-73862959D01*
X100832400Y-73203041D01*
X100837332Y-73152967D01*
X100851211Y-73107216D01*
X100873752Y-73065043D01*
X100904084Y-73028084D01*
X100941043Y-72997752D01*
X100983216Y-72975211D01*
X101028967Y-72961332D01*
X101079041Y-72956400D01*
X101663959Y-72956400D01*
X101714033Y-72961332D01*
X101714033Y-72961332D01*
G37*
G36*
X123024533Y-72961332D02*
X123070284Y-72975211D01*
X123112457Y-72997752D01*
X123149416Y-73028084D01*
X123179748Y-73065043D01*
X123202289Y-73107216D01*
X123216168Y-73152967D01*
X123221100Y-73203041D01*
X123221100Y-73862959D01*
X123216168Y-73913033D01*
X123202289Y-73958784D01*
X123179748Y-74000957D01*
X123149416Y-74037916D01*
X123112457Y-74068248D01*
X123070284Y-74090789D01*
X123024533Y-74104668D01*
X122974459Y-74109600D01*
X122389541Y-74109600D01*
X122339467Y-74104668D01*
X122293716Y-74090789D01*
X122251543Y-74068248D01*
X122214584Y-74037916D01*
X122184252Y-74000957D01*
X122161711Y-73958784D01*
X122147832Y-73913033D01*
X122142900Y-73862959D01*
X122142900Y-73203041D01*
X122147832Y-73152967D01*
X122161711Y-73107216D01*
X122184252Y-73065043D01*
X122214584Y-73028084D01*
X122251543Y-72997752D01*
X122293716Y-72975211D01*
X122339467Y-72961332D01*
X122389541Y-72956400D01*
X122974459Y-72956400D01*
X123024533Y-72961332D01*
X123024533Y-72961332D01*
G37*
G36*
X124599533Y-72961332D02*
X124645284Y-72975211D01*
X124687457Y-72997752D01*
X124724416Y-73028084D01*
X124754748Y-73065043D01*
X124777289Y-73107216D01*
X124791168Y-73152967D01*
X124796100Y-73203041D01*
X124796100Y-73862959D01*
X124791168Y-73913033D01*
X124777289Y-73958784D01*
X124754748Y-74000957D01*
X124724416Y-74037916D01*
X124687457Y-74068248D01*
X124645284Y-74090789D01*
X124599533Y-74104668D01*
X124549459Y-74109600D01*
X123964541Y-74109600D01*
X123914467Y-74104668D01*
X123868716Y-74090789D01*
X123826543Y-74068248D01*
X123789584Y-74037916D01*
X123759252Y-74000957D01*
X123736711Y-73958784D01*
X123722832Y-73913033D01*
X123717900Y-73862959D01*
X123717900Y-73203041D01*
X123722832Y-73152967D01*
X123736711Y-73107216D01*
X123759252Y-73065043D01*
X123789584Y-73028084D01*
X123826543Y-72997752D01*
X123868716Y-72975211D01*
X123914467Y-72961332D01*
X123964541Y-72956400D01*
X124549459Y-72956400D01*
X124599533Y-72961332D01*
X124599533Y-72961332D01*
G37*
G36*
X111775600Y-72637600D02*
X110982400Y-72637600D01*
X110982400Y-70484400D01*
X111775600Y-70484400D01*
X111775600Y-72637600D01*
X111775600Y-72637600D01*
G37*
G36*
X110505600Y-72637600D02*
X109712400Y-72637600D01*
X109712400Y-70484400D01*
X110505600Y-70484400D01*
X110505600Y-72637600D01*
X110505600Y-72637600D01*
G37*
G36*
X109235600Y-72637600D02*
X108442400Y-72637600D01*
X108442400Y-70484400D01*
X109235600Y-70484400D01*
X109235600Y-72637600D01*
X109235600Y-72637600D01*
G37*
G36*
X113045600Y-72637600D02*
X112252400Y-72637600D01*
X112252400Y-70484400D01*
X113045600Y-70484400D01*
X113045600Y-72637600D01*
X113045600Y-72637600D01*
G37*
G36*
X114315600Y-72637600D02*
X113522400Y-72637600D01*
X113522400Y-70484400D01*
X114315600Y-70484400D01*
X114315600Y-72637600D01*
X114315600Y-72637600D01*
G37*
G36*
X115585600Y-72637600D02*
X114792400Y-72637600D01*
X114792400Y-70484400D01*
X115585600Y-70484400D01*
X115585600Y-72637600D01*
X115585600Y-72637600D01*
G37*
G36*
X116855600Y-72637600D02*
X116062400Y-72637600D01*
X116062400Y-70484400D01*
X116855600Y-70484400D01*
X116855600Y-72637600D01*
X116855600Y-72637600D01*
G37*
G36*
X114419800Y-69409280D02*
X114016600Y-69409280D01*
X114016600Y-69260080D01*
X114015624Y-69250169D01*
X114012733Y-69240640D01*
X114008039Y-69231857D01*
X114001721Y-69224159D01*
X113994023Y-69217841D01*
X113985240Y-69213147D01*
X113975711Y-69210256D01*
X113965800Y-69209280D01*
X113516600Y-69209280D01*
X113516600Y-68306080D01*
X113965800Y-68306080D01*
X113975711Y-68305104D01*
X113985240Y-68302213D01*
X113994023Y-68297519D01*
X114001721Y-68291201D01*
X114008039Y-68283503D01*
X114012733Y-68274720D01*
X114015624Y-68265191D01*
X114016600Y-68255280D01*
X114016600Y-68106080D01*
X114419800Y-68106080D01*
X114419800Y-69409280D01*
X114419800Y-69409280D01*
G37*
G36*
X109469800Y-68255280D02*
X109470776Y-68265191D01*
X109473667Y-68274720D01*
X109478361Y-68283503D01*
X109484679Y-68291201D01*
X109492377Y-68297519D01*
X109501160Y-68302213D01*
X109510689Y-68305104D01*
X109520600Y-68306080D01*
X109969800Y-68306080D01*
X109969800Y-69209280D01*
X109520600Y-69209280D01*
X109510689Y-69210256D01*
X109501160Y-69213147D01*
X109492377Y-69217841D01*
X109484679Y-69224159D01*
X109478361Y-69231857D01*
X109473667Y-69240640D01*
X109470776Y-69250169D01*
X109469800Y-69260080D01*
X109469800Y-69409280D01*
X109066600Y-69409280D01*
X109066600Y-68106080D01*
X109469800Y-68106080D01*
X109469800Y-68255280D01*
X109469800Y-68255280D01*
G37*
G36*
X109469800Y-64755280D02*
X109470776Y-64765191D01*
X109473667Y-64774720D01*
X109478361Y-64783503D01*
X109484679Y-64791201D01*
X109492377Y-64797519D01*
X109501160Y-64802213D01*
X109510689Y-64805104D01*
X109520600Y-64806080D01*
X109969800Y-64806080D01*
X109969800Y-65709280D01*
X109520600Y-65709280D01*
X109510689Y-65710256D01*
X109501160Y-65713147D01*
X109492377Y-65717841D01*
X109484679Y-65724159D01*
X109478361Y-65731857D01*
X109473667Y-65740640D01*
X109470776Y-65750169D01*
X109469800Y-65760080D01*
X109469800Y-65909280D01*
X109066600Y-65909280D01*
X109066600Y-64606080D01*
X109469800Y-64606080D01*
X109469800Y-64755280D01*
X109469800Y-64755280D01*
G37*
G36*
X114419800Y-65909280D02*
X114016600Y-65909280D01*
X114016600Y-65760080D01*
X114015624Y-65750169D01*
X114012733Y-65740640D01*
X114008039Y-65731857D01*
X114001721Y-65724159D01*
X113994023Y-65717841D01*
X113985240Y-65713147D01*
X113975711Y-65710256D01*
X113965800Y-65709280D01*
X113516600Y-65709280D01*
X113516600Y-64806080D01*
X113965800Y-64806080D01*
X113975711Y-64805104D01*
X113985240Y-64802213D01*
X113994023Y-64797519D01*
X114001721Y-64791201D01*
X114008039Y-64783503D01*
X114012733Y-64774720D01*
X114015624Y-64765191D01*
X114016600Y-64755280D01*
X114016600Y-64606080D01*
X114419800Y-64606080D01*
X114419800Y-65909280D01*
X114419800Y-65909280D01*
G37*
M02*
