G04 #@! TF.GenerationSoftware,KiCad,Pcbnew,5.0.2-bee76a0~70~ubuntu18.04.1*
G04 #@! TF.CreationDate,2019-08-08T16:15:43+02:00*
G04 #@! TF.ProjectId,Badge (copy),42616467-6520-4286-936f-7079292e6b69,V01*
G04 #@! TF.SameCoordinates,Original*
G04 #@! TF.FileFunction,Legend,Bot*
G04 #@! TF.FilePolarity,Positive*
%FSLAX46Y46*%
G04 Gerber Fmt 4.6, Leading zero omitted, Abs format (unit mm)*
G04 Created by KiCad (PCBNEW 5.0.2-bee76a0~70~ubuntu18.04.1) date Thu 08 Aug 2019 04:15:43 PM SAST*
%MOMM*%
%LPD*%
G01*
G04 APERTURE LIST*
%ADD10C,0.100000*%
%ADD11C,0.120000*%
G04 APERTURE END LIST*
D10*
X111979211Y-67727070D02*
X111979211Y-68084213D01*
X112003020Y-68155641D01*
X112050640Y-68203260D01*
X112122068Y-68227070D01*
X112169687Y-68227070D01*
X111741116Y-68227070D02*
X111741116Y-67727070D01*
X111622068Y-67727070D01*
X111550640Y-67750880D01*
X111503020Y-67798499D01*
X111479211Y-67846118D01*
X111455401Y-67941356D01*
X111455401Y-68012784D01*
X111479211Y-68108022D01*
X111503020Y-68155641D01*
X111550640Y-68203260D01*
X111622068Y-68227070D01*
X111741116Y-68227070D01*
X116158777Y-106697910D02*
X116396872Y-106697910D01*
X116396872Y-106197910D01*
X115777824Y-106364577D02*
X115777824Y-106697910D01*
X115992110Y-106364577D02*
X115992110Y-106626481D01*
X115968300Y-106674100D01*
X115920681Y-106697910D01*
X115849253Y-106697910D01*
X115801634Y-106674100D01*
X115777824Y-106650291D01*
X115539729Y-106697910D02*
X115539729Y-106364577D01*
X115539729Y-106412196D02*
X115515920Y-106388386D01*
X115468300Y-106364577D01*
X115396872Y-106364577D01*
X115349253Y-106388386D01*
X115325443Y-106436005D01*
X115325443Y-106697910D01*
X115325443Y-106436005D02*
X115301634Y-106388386D01*
X115254015Y-106364577D01*
X115182586Y-106364577D01*
X115134967Y-106388386D01*
X115111158Y-106436005D01*
X115111158Y-106697910D01*
X114873062Y-106697910D02*
X114873062Y-106197910D01*
X114825443Y-106507434D02*
X114682586Y-106697910D01*
X114682586Y-106364577D02*
X114873062Y-106555053D01*
X114254015Y-106697910D02*
X114254015Y-106436005D01*
X114277824Y-106388386D01*
X114325443Y-106364577D01*
X114420681Y-106364577D01*
X114468300Y-106388386D01*
X114254015Y-106674100D02*
X114301634Y-106697910D01*
X114420681Y-106697910D01*
X114468300Y-106674100D01*
X114492110Y-106626481D01*
X114492110Y-106578862D01*
X114468300Y-106531243D01*
X114420681Y-106507434D01*
X114301634Y-106507434D01*
X114254015Y-106483624D01*
X114015920Y-106364577D02*
X114015920Y-106697910D01*
X114015920Y-106412196D02*
X113992110Y-106388386D01*
X113944491Y-106364577D01*
X113873062Y-106364577D01*
X113825443Y-106388386D01*
X113801634Y-106436005D01*
X113801634Y-106697910D01*
X113563539Y-106697910D02*
X113563539Y-106364577D01*
X113563539Y-106197910D02*
X113587348Y-106221720D01*
X113563539Y-106245529D01*
X113539729Y-106221720D01*
X113563539Y-106197910D01*
X113563539Y-106245529D01*
X112825443Y-106864577D02*
X112825443Y-106150291D01*
X112134967Y-106364577D02*
X112015920Y-106697910D01*
X111896872Y-106364577D01*
X111444491Y-106697910D02*
X111730205Y-106697910D01*
X111587348Y-106697910D02*
X111587348Y-106197910D01*
X111634967Y-106269339D01*
X111682586Y-106316958D01*
X111730205Y-106340767D01*
X111230205Y-106650291D02*
X111206396Y-106674100D01*
X111230205Y-106697910D01*
X111254015Y-106674100D01*
X111230205Y-106650291D01*
X111230205Y-106697910D01*
X110730205Y-106697910D02*
X111015920Y-106697910D01*
X110873062Y-106697910D02*
X110873062Y-106197910D01*
X110920681Y-106269339D01*
X110968300Y-106316958D01*
X111015920Y-106340767D01*
X110515920Y-106650291D02*
X110492110Y-106674100D01*
X110515920Y-106697910D01*
X110539729Y-106674100D01*
X110515920Y-106650291D01*
X110515920Y-106697910D01*
X110182586Y-106197910D02*
X110134967Y-106197910D01*
X110087348Y-106221720D01*
X110063539Y-106245529D01*
X110039729Y-106293148D01*
X110015920Y-106388386D01*
X110015920Y-106507434D01*
X110039729Y-106602672D01*
X110063539Y-106650291D01*
X110087348Y-106674100D01*
X110134967Y-106697910D01*
X110182586Y-106697910D01*
X110230205Y-106674100D01*
X110254015Y-106650291D01*
X110277824Y-106602672D01*
X110301634Y-106507434D01*
X110301634Y-106388386D01*
X110277824Y-106293148D01*
X110254015Y-106245529D01*
X110230205Y-106221720D01*
X110182586Y-106197910D01*
X109301634Y-106864577D02*
X109301634Y-106150291D01*
X108587348Y-106555053D02*
X108349253Y-106555053D01*
X108634967Y-106697910D02*
X108468300Y-106197910D01*
X108301634Y-106697910D01*
X107920681Y-106364577D02*
X107920681Y-106697910D01*
X108134967Y-106364577D02*
X108134967Y-106626481D01*
X108111158Y-106674100D01*
X108063539Y-106697910D01*
X107992110Y-106697910D01*
X107944491Y-106674100D01*
X107920681Y-106650291D01*
X107468300Y-106364577D02*
X107468300Y-106769339D01*
X107492110Y-106816958D01*
X107515920Y-106840767D01*
X107563539Y-106864577D01*
X107634967Y-106864577D01*
X107682586Y-106840767D01*
X107468300Y-106674100D02*
X107515920Y-106697910D01*
X107611158Y-106697910D01*
X107658777Y-106674100D01*
X107682586Y-106650291D01*
X107706396Y-106602672D01*
X107706396Y-106459815D01*
X107682586Y-106412196D01*
X107658777Y-106388386D01*
X107611158Y-106364577D01*
X107515920Y-106364577D01*
X107468300Y-106388386D01*
X106968300Y-106697910D02*
X107254015Y-106697910D01*
X107111158Y-106697910D02*
X107111158Y-106197910D01*
X107158777Y-106269339D01*
X107206396Y-106316958D01*
X107254015Y-106340767D01*
X106730205Y-106697910D02*
X106634967Y-106697910D01*
X106587348Y-106674100D01*
X106563539Y-106650291D01*
X106515920Y-106578862D01*
X106492110Y-106483624D01*
X106492110Y-106293148D01*
X106515920Y-106245529D01*
X106539729Y-106221720D01*
X106587348Y-106197910D01*
X106682586Y-106197910D01*
X106730205Y-106221720D01*
X106754015Y-106245529D01*
X106777824Y-106293148D01*
X106777824Y-106412196D01*
X106754015Y-106459815D01*
X106730205Y-106483624D01*
X106682586Y-106507434D01*
X106587348Y-106507434D01*
X106539729Y-106483624D01*
X106515920Y-106459815D01*
X106492110Y-106412196D01*
G04 #@! TO.C,BT1*
X117955601Y-83356536D02*
G75*
G03X105951000Y-83353000I-6004601J-7806464D01*
G01*
X117954354Y-83369530D02*
G75*
G03X121291000Y-82383000I1306646J1716530D01*
G01*
X122731000Y-78433000D02*
X121291000Y-82383000D01*
X120651000Y-67263000D02*
X122731000Y-69343000D01*
X103251000Y-67263000D02*
X120651000Y-67263000D01*
X103251000Y-67263000D02*
X101171000Y-69343000D01*
X101171000Y-78433000D02*
X102611000Y-82383000D01*
X102625756Y-82391169D02*
G75*
G03X105951000Y-83353000I2015244J738169D01*
G01*
X122731000Y-69343000D02*
X122731000Y-71803000D01*
X122731000Y-77803000D02*
X122731000Y-78433000D01*
X101171000Y-69343000D02*
X101171000Y-71803000D01*
X101171000Y-77803000D02*
X101171000Y-78433000D01*
D11*
G04 #@! TO.C,TP1*
X107507000Y-86106000D02*
G75*
G03X107507000Y-86106000I-700000J0D01*
G01*
G04 #@! TO.C,TP2*
X117667000Y-86106000D02*
G75*
G03X117667000Y-86106000I-700000J0D01*
G01*
G04 #@! TO.C,TP3*
X115127000Y-86106000D02*
G75*
G03X115127000Y-86106000I-700000J0D01*
G01*
G04 #@! TO.C,TP4*
X110047000Y-86106000D02*
G75*
G03X110047000Y-86106000I-700000J0D01*
G01*
G04 #@! TO.C,TP5*
X112587000Y-86106000D02*
G75*
G03X112587000Y-86106000I-700000J0D01*
G01*
G04 #@! TD*
M02*
