G04 #@! TF.GenerationSoftware,KiCad,Pcbnew,5.0.2-bee76a0~70~ubuntu18.04.1*
G04 #@! TF.CreationDate,2019-08-08T16:15:43+02:00*
G04 #@! TF.ProjectId,Badge (copy),42616467-6520-4286-936f-7079292e6b69,V01*
G04 #@! TF.SameCoordinates,Original*
G04 #@! TF.FileFunction,Legend,Top*
G04 #@! TF.FilePolarity,Positive*
%FSLAX46Y46*%
G04 Gerber Fmt 4.6, Leading zero omitted, Abs format (unit mm)*
G04 Created by KiCad (PCBNEW 5.0.2-bee76a0~70~ubuntu18.04.1) date Thu 08 Aug 2019 04:15:43 PM SAST*
%MOMM*%
%LPD*%
G01*
G04 APERTURE LIST*
%ADD10C,0.120000*%
%ADD11C,0.127000*%
%ADD12C,0.200000*%
%ADD13C,0.010000*%
%ADD14C,0.100000*%
G04 APERTURE END LIST*
D10*
G04 #@! TO.C,R14*
X104612221Y-92331000D02*
X104937779Y-92331000D01*
X104612221Y-91311000D02*
X104937779Y-91311000D01*
G04 #@! TO.C,C1*
X109438221Y-78738000D02*
X109763779Y-78738000D01*
X109438221Y-79758000D02*
X109763779Y-79758000D01*
G04 #@! TO.C,C2*
X106424000Y-78297721D02*
X106424000Y-78623279D01*
X107444000Y-78297721D02*
X107444000Y-78623279D01*
G04 #@! TO.C,C3*
X106424000Y-74645639D02*
X106424000Y-74320081D01*
X107444000Y-74645639D02*
X107444000Y-74320081D01*
G04 #@! TO.C,R1*
X95442721Y-81028000D02*
X95768279Y-81028000D01*
X95442721Y-80008000D02*
X95768279Y-80008000D01*
G04 #@! TO.C,R2*
X96763721Y-96264000D02*
X97089279Y-96264000D01*
X96763721Y-97284000D02*
X97089279Y-97284000D01*
G04 #@! TO.C,R3*
X105907721Y-104396000D02*
X106233279Y-104396000D01*
X105907721Y-103376000D02*
X106233279Y-103376000D01*
G04 #@! TO.C,R4*
X118455221Y-103376000D02*
X118780779Y-103376000D01*
X118455221Y-104396000D02*
X118780779Y-104396000D01*
G04 #@! TO.C,R5*
X127091221Y-96264000D02*
X127416779Y-96264000D01*
X127091221Y-97284000D02*
X127416779Y-97284000D01*
G04 #@! TO.C,R6*
X128386721Y-80008000D02*
X128712279Y-80008000D01*
X128386721Y-81028000D02*
X128712279Y-81028000D01*
G04 #@! TO.C,R7*
X124297221Y-84203000D02*
X124622779Y-84203000D01*
X124297221Y-83183000D02*
X124622779Y-83183000D01*
G04 #@! TO.C,R8*
X119979221Y-96772000D02*
X120304779Y-96772000D01*
X119979221Y-97792000D02*
X120304779Y-97792000D01*
G04 #@! TO.C,R9*
X103596221Y-97665000D02*
X103921779Y-97665000D01*
X103596221Y-96645000D02*
X103921779Y-96645000D01*
G04 #@! TO.C,R10*
X99532221Y-83056000D02*
X99857779Y-83056000D01*
X99532221Y-84076000D02*
X99857779Y-84076000D01*
G04 #@! TO.C,R11*
X129478721Y-92331000D02*
X129804279Y-92331000D01*
X129478721Y-91311000D02*
X129804279Y-91311000D01*
G04 #@! TO.C,R12*
X94579221Y-92331000D02*
X94904779Y-92331000D01*
X94579221Y-91311000D02*
X94904779Y-91311000D01*
G04 #@! TO.C,R13*
X103977221Y-83818000D02*
X104302779Y-83818000D01*
X103977221Y-84838000D02*
X104302779Y-84838000D01*
G04 #@! TO.C,R15*
X118582221Y-92585000D02*
X118907779Y-92585000D01*
X118582221Y-91565000D02*
X118907779Y-91565000D01*
G04 #@! TO.C,R16*
X94325221Y-84711000D02*
X94650779Y-84711000D01*
X94325221Y-83691000D02*
X94650779Y-83691000D01*
G04 #@! TO.C,R17*
X119598221Y-83818000D02*
X119923779Y-83818000D01*
X119598221Y-84838000D02*
X119923779Y-84838000D01*
G04 #@! TO.C,R18*
X129504221Y-83691000D02*
X129829779Y-83691000D01*
X129504221Y-84711000D02*
X129829779Y-84711000D01*
G04 #@! TO.C,R19*
X126456221Y-77726000D02*
X126781779Y-77726000D01*
X126456221Y-76706000D02*
X126781779Y-76706000D01*
G04 #@! TO.C,R20*
X97246221Y-77853000D02*
X97571779Y-77853000D01*
X97246221Y-76833000D02*
X97571779Y-76833000D01*
D11*
G04 #@! TO.C,U1*
X108230000Y-76041000D02*
X108230000Y-72041000D01*
X117068000Y-76041000D02*
X117068000Y-72041000D01*
D12*
X108939000Y-78101000D02*
G75*
G03X108939000Y-78101000I-100000J0D01*
G01*
D13*
G04 #@! TO.C,G\002A\002A\002A*
G36*
X111410601Y-81193747D02*
X111424085Y-81293244D01*
X111444566Y-81486630D01*
X111501241Y-81746071D01*
X111586956Y-82048374D01*
X111694557Y-82370346D01*
X111816891Y-82688794D01*
X111940440Y-82967350D01*
X112119858Y-83324116D01*
X112300263Y-83644161D01*
X112493746Y-83943540D01*
X112712397Y-84238307D01*
X112968309Y-84544517D01*
X113273573Y-84878225D01*
X113640278Y-85255486D01*
X113736041Y-85351561D01*
X114159299Y-85785871D01*
X114510364Y-86173496D01*
X114796955Y-86526559D01*
X115026792Y-86857184D01*
X115207593Y-87177493D01*
X115347078Y-87499609D01*
X115452965Y-87835658D01*
X115526630Y-88163779D01*
X115572286Y-88655849D01*
X115532577Y-89169576D01*
X115412999Y-89686753D01*
X115219044Y-90189172D01*
X114956207Y-90658626D01*
X114656406Y-91047848D01*
X114237704Y-91445432D01*
X113760696Y-91776986D01*
X113244866Y-92030577D01*
X112831838Y-92165622D01*
X112461624Y-92231945D01*
X112040840Y-92261241D01*
X111608972Y-92253560D01*
X111205507Y-92208952D01*
X110988986Y-92163310D01*
X110495900Y-91995010D01*
X110043883Y-91755295D01*
X109614979Y-91433511D01*
X109363308Y-91198664D01*
X108992167Y-90779715D01*
X108704248Y-90342595D01*
X108493034Y-89872115D01*
X108352007Y-89353090D01*
X108274651Y-88770333D01*
X108266076Y-88641793D01*
X108266977Y-88292750D01*
X110438312Y-88292750D01*
X110472754Y-88775424D01*
X110573465Y-89205277D01*
X110738059Y-89575231D01*
X110964153Y-89878205D01*
X111249362Y-90107120D01*
X111264578Y-90116171D01*
X111637514Y-90283463D01*
X112015361Y-90352117D01*
X112395236Y-90321954D01*
X112743024Y-90207232D01*
X113060682Y-90010335D01*
X113329158Y-89731860D01*
X113494585Y-89471092D01*
X113564609Y-89323084D01*
X113605764Y-89186175D01*
X113625285Y-89024126D01*
X113630403Y-88800698D01*
X113630411Y-88790621D01*
X113624995Y-88557114D01*
X113604606Y-88388923D01*
X113563229Y-88252548D01*
X113515961Y-88153170D01*
X113281173Y-87813402D01*
X112958076Y-87508072D01*
X112649470Y-87298393D01*
X112369277Y-87107950D01*
X112083048Y-86869626D01*
X111811751Y-86604644D01*
X111576352Y-86334228D01*
X111397819Y-86079598D01*
X111340482Y-85973445D01*
X111191827Y-85661543D01*
X111036312Y-85953319D01*
X110887784Y-86273950D01*
X110745180Y-86657321D01*
X110619811Y-87067100D01*
X110522986Y-87466954D01*
X110472522Y-87764335D01*
X110438312Y-88292750D01*
X108266977Y-88292750D01*
X108268007Y-87893792D01*
X108353973Y-87110335D01*
X108520445Y-86302630D01*
X108763898Y-85481883D01*
X109080803Y-84659301D01*
X109467633Y-83846091D01*
X109920861Y-83053459D01*
X110124224Y-82738278D01*
X110303507Y-82476818D01*
X110495617Y-82208706D01*
X110690813Y-81946284D01*
X110879356Y-81701896D01*
X111051505Y-81487884D01*
X111197522Y-81316591D01*
X111307665Y-81200360D01*
X111372197Y-81151532D01*
X111376933Y-81150778D01*
X111410601Y-81193747D01*
X111410601Y-81193747D01*
G37*
X111410601Y-81193747D02*
X111424085Y-81293244D01*
X111444566Y-81486630D01*
X111501241Y-81746071D01*
X111586956Y-82048374D01*
X111694557Y-82370346D01*
X111816891Y-82688794D01*
X111940440Y-82967350D01*
X112119858Y-83324116D01*
X112300263Y-83644161D01*
X112493746Y-83943540D01*
X112712397Y-84238307D01*
X112968309Y-84544517D01*
X113273573Y-84878225D01*
X113640278Y-85255486D01*
X113736041Y-85351561D01*
X114159299Y-85785871D01*
X114510364Y-86173496D01*
X114796955Y-86526559D01*
X115026792Y-86857184D01*
X115207593Y-87177493D01*
X115347078Y-87499609D01*
X115452965Y-87835658D01*
X115526630Y-88163779D01*
X115572286Y-88655849D01*
X115532577Y-89169576D01*
X115412999Y-89686753D01*
X115219044Y-90189172D01*
X114956207Y-90658626D01*
X114656406Y-91047848D01*
X114237704Y-91445432D01*
X113760696Y-91776986D01*
X113244866Y-92030577D01*
X112831838Y-92165622D01*
X112461624Y-92231945D01*
X112040840Y-92261241D01*
X111608972Y-92253560D01*
X111205507Y-92208952D01*
X110988986Y-92163310D01*
X110495900Y-91995010D01*
X110043883Y-91755295D01*
X109614979Y-91433511D01*
X109363308Y-91198664D01*
X108992167Y-90779715D01*
X108704248Y-90342595D01*
X108493034Y-89872115D01*
X108352007Y-89353090D01*
X108274651Y-88770333D01*
X108266076Y-88641793D01*
X108266977Y-88292750D01*
X110438312Y-88292750D01*
X110472754Y-88775424D01*
X110573465Y-89205277D01*
X110738059Y-89575231D01*
X110964153Y-89878205D01*
X111249362Y-90107120D01*
X111264578Y-90116171D01*
X111637514Y-90283463D01*
X112015361Y-90352117D01*
X112395236Y-90321954D01*
X112743024Y-90207232D01*
X113060682Y-90010335D01*
X113329158Y-89731860D01*
X113494585Y-89471092D01*
X113564609Y-89323084D01*
X113605764Y-89186175D01*
X113625285Y-89024126D01*
X113630403Y-88800698D01*
X113630411Y-88790621D01*
X113624995Y-88557114D01*
X113604606Y-88388923D01*
X113563229Y-88252548D01*
X113515961Y-88153170D01*
X113281173Y-87813402D01*
X112958076Y-87508072D01*
X112649470Y-87298393D01*
X112369277Y-87107950D01*
X112083048Y-86869626D01*
X111811751Y-86604644D01*
X111576352Y-86334228D01*
X111397819Y-86079598D01*
X111340482Y-85973445D01*
X111191827Y-85661543D01*
X111036312Y-85953319D01*
X110887784Y-86273950D01*
X110745180Y-86657321D01*
X110619811Y-87067100D01*
X110522986Y-87466954D01*
X110472522Y-87764335D01*
X110438312Y-88292750D01*
X108266977Y-88292750D01*
X108268007Y-87893792D01*
X108353973Y-87110335D01*
X108520445Y-86302630D01*
X108763898Y-85481883D01*
X109080803Y-84659301D01*
X109467633Y-83846091D01*
X109920861Y-83053459D01*
X110124224Y-82738278D01*
X110303507Y-82476818D01*
X110495617Y-82208706D01*
X110690813Y-81946284D01*
X110879356Y-81701896D01*
X111051505Y-81487884D01*
X111197522Y-81316591D01*
X111307665Y-81200360D01*
X111372197Y-81151532D01*
X111376933Y-81150778D01*
X111410601Y-81193747D01*
G36*
X117604002Y-79703973D02*
X117909485Y-79847573D01*
X118218764Y-80057617D01*
X118330902Y-80150838D01*
X118787079Y-80592424D01*
X119238500Y-81109303D01*
X119667884Y-81678344D01*
X120057946Y-82276415D01*
X120391405Y-82880383D01*
X120432135Y-82963156D01*
X120802822Y-83840277D01*
X121081589Y-84746216D01*
X121268234Y-85672727D01*
X121362556Y-86611564D01*
X121364352Y-87554480D01*
X121273420Y-88493229D01*
X121089558Y-89419566D01*
X120812565Y-90325245D01*
X120624137Y-90802950D01*
X120202268Y-91667137D01*
X119701315Y-92475243D01*
X119126774Y-93223051D01*
X118484143Y-93906347D01*
X117778920Y-94520914D01*
X117016604Y-95062539D01*
X116202691Y-95527003D01*
X115342680Y-95910094D01*
X114442068Y-96207594D01*
X113506354Y-96415289D01*
X113253178Y-96454745D01*
X112929169Y-96488760D01*
X112537452Y-96510992D01*
X112105716Y-96521514D01*
X111661654Y-96520397D01*
X111232955Y-96507712D01*
X110847309Y-96483530D01*
X110532408Y-96447923D01*
X110531116Y-96447726D01*
X109583974Y-96254025D01*
X108673493Y-95971173D01*
X107804765Y-95603462D01*
X106982882Y-95155185D01*
X106212936Y-94630635D01*
X105500019Y-94034105D01*
X104849222Y-93369887D01*
X104265638Y-92642275D01*
X103754359Y-91855562D01*
X103320476Y-91014040D01*
X102969082Y-90122002D01*
X102946116Y-90052945D01*
X102697376Y-89139247D01*
X102542573Y-88207147D01*
X102480808Y-87265486D01*
X102511182Y-86323104D01*
X102632795Y-85388842D01*
X102844748Y-84471539D01*
X103146140Y-83580036D01*
X103536073Y-82723173D01*
X103727689Y-82372867D01*
X104038630Y-81866483D01*
X104362394Y-81411761D01*
X104724467Y-80975446D01*
X105123694Y-80551186D01*
X105419783Y-80262069D01*
X105670757Y-80043978D01*
X105890854Y-79888433D01*
X106094317Y-79786953D01*
X106295385Y-79731059D01*
X106508300Y-79712271D01*
X106532763Y-79712106D01*
X106796584Y-79752082D01*
X107000099Y-79870461D01*
X107140409Y-80064915D01*
X107199943Y-80247291D01*
X107228661Y-80515462D01*
X107195458Y-80781443D01*
X107095351Y-81056434D01*
X106923355Y-81351635D01*
X106674488Y-81678247D01*
X106449150Y-81934527D01*
X105892367Y-82610560D01*
X105420920Y-83330435D01*
X105036619Y-84087622D01*
X104741277Y-84875589D01*
X104536704Y-85687804D01*
X104424710Y-86517735D01*
X104407107Y-87358850D01*
X104485707Y-88204618D01*
X104575518Y-88692111D01*
X104805692Y-89519961D01*
X105123197Y-90305862D01*
X105523082Y-91044314D01*
X106000395Y-91729815D01*
X106550186Y-92356865D01*
X107167504Y-92919961D01*
X107847397Y-93413602D01*
X108584913Y-93832288D01*
X109375103Y-94170516D01*
X109565993Y-94237091D01*
X110376864Y-94456480D01*
X111206162Y-94581371D01*
X112044422Y-94612487D01*
X112882181Y-94550547D01*
X113709975Y-94396274D01*
X114518340Y-94150387D01*
X115297813Y-93813608D01*
X115328618Y-93798073D01*
X116067479Y-93369659D01*
X116741763Y-92870126D01*
X117348417Y-92306196D01*
X117884392Y-91684590D01*
X118346634Y-91012030D01*
X118732092Y-90295237D01*
X119037714Y-89540931D01*
X119260449Y-88755834D01*
X119397245Y-87946668D01*
X119445051Y-87120153D01*
X119400814Y-86283010D01*
X119261483Y-85441961D01*
X119213776Y-85241154D01*
X118961463Y-84429263D01*
X118624374Y-83665410D01*
X118199699Y-82944458D01*
X117684630Y-82261270D01*
X117420254Y-81962246D01*
X117240550Y-81761862D01*
X117067802Y-81558051D01*
X116924318Y-81377727D01*
X116847186Y-81270873D01*
X116675590Y-80957825D01*
X116572214Y-80647481D01*
X116537114Y-80353670D01*
X116570345Y-80090223D01*
X116671964Y-79870969D01*
X116840924Y-79710430D01*
X117056663Y-79631541D01*
X117315376Y-79630676D01*
X117604002Y-79703973D01*
X117604002Y-79703973D01*
G37*
X117604002Y-79703973D02*
X117909485Y-79847573D01*
X118218764Y-80057617D01*
X118330902Y-80150838D01*
X118787079Y-80592424D01*
X119238500Y-81109303D01*
X119667884Y-81678344D01*
X120057946Y-82276415D01*
X120391405Y-82880383D01*
X120432135Y-82963156D01*
X120802822Y-83840277D01*
X121081589Y-84746216D01*
X121268234Y-85672727D01*
X121362556Y-86611564D01*
X121364352Y-87554480D01*
X121273420Y-88493229D01*
X121089558Y-89419566D01*
X120812565Y-90325245D01*
X120624137Y-90802950D01*
X120202268Y-91667137D01*
X119701315Y-92475243D01*
X119126774Y-93223051D01*
X118484143Y-93906347D01*
X117778920Y-94520914D01*
X117016604Y-95062539D01*
X116202691Y-95527003D01*
X115342680Y-95910094D01*
X114442068Y-96207594D01*
X113506354Y-96415289D01*
X113253178Y-96454745D01*
X112929169Y-96488760D01*
X112537452Y-96510992D01*
X112105716Y-96521514D01*
X111661654Y-96520397D01*
X111232955Y-96507712D01*
X110847309Y-96483530D01*
X110532408Y-96447923D01*
X110531116Y-96447726D01*
X109583974Y-96254025D01*
X108673493Y-95971173D01*
X107804765Y-95603462D01*
X106982882Y-95155185D01*
X106212936Y-94630635D01*
X105500019Y-94034105D01*
X104849222Y-93369887D01*
X104265638Y-92642275D01*
X103754359Y-91855562D01*
X103320476Y-91014040D01*
X102969082Y-90122002D01*
X102946116Y-90052945D01*
X102697376Y-89139247D01*
X102542573Y-88207147D01*
X102480808Y-87265486D01*
X102511182Y-86323104D01*
X102632795Y-85388842D01*
X102844748Y-84471539D01*
X103146140Y-83580036D01*
X103536073Y-82723173D01*
X103727689Y-82372867D01*
X104038630Y-81866483D01*
X104362394Y-81411761D01*
X104724467Y-80975446D01*
X105123694Y-80551186D01*
X105419783Y-80262069D01*
X105670757Y-80043978D01*
X105890854Y-79888433D01*
X106094317Y-79786953D01*
X106295385Y-79731059D01*
X106508300Y-79712271D01*
X106532763Y-79712106D01*
X106796584Y-79752082D01*
X107000099Y-79870461D01*
X107140409Y-80064915D01*
X107199943Y-80247291D01*
X107228661Y-80515462D01*
X107195458Y-80781443D01*
X107095351Y-81056434D01*
X106923355Y-81351635D01*
X106674488Y-81678247D01*
X106449150Y-81934527D01*
X105892367Y-82610560D01*
X105420920Y-83330435D01*
X105036619Y-84087622D01*
X104741277Y-84875589D01*
X104536704Y-85687804D01*
X104424710Y-86517735D01*
X104407107Y-87358850D01*
X104485707Y-88204618D01*
X104575518Y-88692111D01*
X104805692Y-89519961D01*
X105123197Y-90305862D01*
X105523082Y-91044314D01*
X106000395Y-91729815D01*
X106550186Y-92356865D01*
X107167504Y-92919961D01*
X107847397Y-93413602D01*
X108584913Y-93832288D01*
X109375103Y-94170516D01*
X109565993Y-94237091D01*
X110376864Y-94456480D01*
X111206162Y-94581371D01*
X112044422Y-94612487D01*
X112882181Y-94550547D01*
X113709975Y-94396274D01*
X114518340Y-94150387D01*
X115297813Y-93813608D01*
X115328618Y-93798073D01*
X116067479Y-93369659D01*
X116741763Y-92870126D01*
X117348417Y-92306196D01*
X117884392Y-91684590D01*
X118346634Y-91012030D01*
X118732092Y-90295237D01*
X119037714Y-89540931D01*
X119260449Y-88755834D01*
X119397245Y-87946668D01*
X119445051Y-87120153D01*
X119400814Y-86283010D01*
X119261483Y-85441961D01*
X119213776Y-85241154D01*
X118961463Y-84429263D01*
X118624374Y-83665410D01*
X118199699Y-82944458D01*
X117684630Y-82261270D01*
X117420254Y-81962246D01*
X117240550Y-81761862D01*
X117067802Y-81558051D01*
X116924318Y-81377727D01*
X116847186Y-81270873D01*
X116675590Y-80957825D01*
X116572214Y-80647481D01*
X116537114Y-80353670D01*
X116570345Y-80090223D01*
X116671964Y-79870969D01*
X116840924Y-79710430D01*
X117056663Y-79631541D01*
X117315376Y-79630676D01*
X117604002Y-79703973D01*
G36*
X120151214Y-75856533D02*
X120495939Y-75978807D01*
X120871496Y-76177837D01*
X120972383Y-76241620D01*
X121156832Y-76374331D01*
X121383150Y-76555680D01*
X121624208Y-76763004D01*
X121852875Y-76973644D01*
X121879267Y-76999108D01*
X122660575Y-77825505D01*
X123375199Y-78720811D01*
X124017069Y-79675384D01*
X124580115Y-80679580D01*
X125058270Y-81723759D01*
X125355751Y-82522065D01*
X125681026Y-83638502D01*
X125913126Y-84774708D01*
X126052632Y-85923415D01*
X126100123Y-87077360D01*
X126056178Y-88229275D01*
X125921377Y-89371897D01*
X125696300Y-90497959D01*
X125381527Y-91600196D01*
X124977636Y-92671343D01*
X124485208Y-93704134D01*
X124459922Y-93751559D01*
X123857063Y-94774515D01*
X123181530Y-95732733D01*
X122437956Y-96623664D01*
X121630978Y-97444758D01*
X120765231Y-98193466D01*
X119845349Y-98867239D01*
X118875969Y-99463528D01*
X117861724Y-99979784D01*
X116807250Y-100413458D01*
X115717183Y-100762001D01*
X114596157Y-101022863D01*
X113448808Y-101193496D01*
X112279771Y-101271350D01*
X111093681Y-101253877D01*
X110846698Y-101238135D01*
X109713659Y-101107284D01*
X108584562Y-100879782D01*
X107468048Y-100558081D01*
X106372758Y-100144636D01*
X105404535Y-99692157D01*
X104406934Y-99126188D01*
X103460267Y-98478832D01*
X102569460Y-97756075D01*
X101739441Y-96963899D01*
X100975137Y-96108290D01*
X100281475Y-95195230D01*
X99663381Y-94230704D01*
X99125783Y-93220695D01*
X98673608Y-92171188D01*
X98311782Y-91088167D01*
X98307275Y-91072421D01*
X98026874Y-89916120D01*
X97842876Y-88754838D01*
X97753988Y-87593807D01*
X97758917Y-86438261D01*
X97856372Y-85293433D01*
X98045059Y-84164554D01*
X98323687Y-83056859D01*
X98690964Y-81975579D01*
X99145597Y-80925948D01*
X99686294Y-79913198D01*
X100311763Y-78942563D01*
X101020711Y-78019275D01*
X101723455Y-77238911D01*
X102112802Y-76855730D01*
X102468630Y-76546231D01*
X102806660Y-76297958D01*
X103142614Y-76098457D01*
X103200704Y-76068468D01*
X103555257Y-75923709D01*
X103875195Y-75861281D01*
X104153887Y-75878283D01*
X104384703Y-75971811D01*
X104561014Y-76138963D01*
X104676187Y-76376837D01*
X104723593Y-76682528D01*
X104724449Y-76735543D01*
X104690907Y-77033430D01*
X104597381Y-77370654D01*
X104453953Y-77716303D01*
X104329376Y-77946533D01*
X104235509Y-78082682D01*
X104089423Y-78270769D01*
X103907365Y-78490924D01*
X103705583Y-78723276D01*
X103585804Y-78855919D01*
X103371732Y-79091876D01*
X103158655Y-79331311D01*
X102965516Y-79552628D01*
X102811259Y-79734225D01*
X102752688Y-79805806D01*
X102194121Y-80574222D01*
X101689517Y-81411762D01*
X101248485Y-82298798D01*
X100880633Y-83215701D01*
X100595570Y-84142844D01*
X100559407Y-84286235D01*
X100451121Y-84754933D01*
X100369150Y-85177950D01*
X100310320Y-85583097D01*
X100271455Y-85998187D01*
X100249382Y-86451030D01*
X100240925Y-86969438D01*
X100240594Y-87079098D01*
X100245428Y-87613539D01*
X100263606Y-88077654D01*
X100298372Y-88499821D01*
X100352969Y-88908416D01*
X100430643Y-89331819D01*
X100534638Y-89798405D01*
X100566716Y-89931637D01*
X100860684Y-90931805D01*
X101244226Y-91897542D01*
X101712302Y-92823019D01*
X102259872Y-93702409D01*
X102881897Y-94529886D01*
X103573337Y-95299621D01*
X104329151Y-96005787D01*
X105144302Y-96642556D01*
X106013748Y-97204103D01*
X106932450Y-97684598D01*
X107474709Y-97919375D01*
X108512887Y-98287588D01*
X109548628Y-98557128D01*
X110585653Y-98728347D01*
X111627681Y-98801600D01*
X112678431Y-98777241D01*
X113741622Y-98655622D01*
X114251819Y-98563935D01*
X115283220Y-98307843D01*
X116276482Y-97962707D01*
X117227045Y-97532843D01*
X118130350Y-97022571D01*
X118981838Y-96436208D01*
X119776950Y-95778073D01*
X120511126Y-95052484D01*
X121179809Y-94263759D01*
X121778438Y-93416217D01*
X122302455Y-92514175D01*
X122747301Y-91561952D01*
X123108415Y-90563866D01*
X123260891Y-90030856D01*
X123408845Y-89388230D01*
X123514216Y-88747166D01*
X123581514Y-88074283D01*
X123612910Y-87426363D01*
X123601473Y-86372989D01*
X123504311Y-85361963D01*
X123318960Y-84381668D01*
X123042956Y-83420489D01*
X122673834Y-82466810D01*
X122463860Y-82010374D01*
X122131121Y-81364762D01*
X121776310Y-80765948D01*
X121384392Y-80192462D01*
X120940329Y-79622834D01*
X120429086Y-79035596D01*
X120228922Y-78819182D01*
X119827330Y-78361131D01*
X119513928Y-77935808D01*
X119285524Y-77537293D01*
X119138926Y-77159667D01*
X119070941Y-76797010D01*
X119065052Y-76661129D01*
X119099269Y-76350478D01*
X119200178Y-76108695D01*
X119361805Y-75937095D01*
X119578171Y-75836991D01*
X119843299Y-75809699D01*
X120151214Y-75856533D01*
X120151214Y-75856533D01*
G37*
X120151214Y-75856533D02*
X120495939Y-75978807D01*
X120871496Y-76177837D01*
X120972383Y-76241620D01*
X121156832Y-76374331D01*
X121383150Y-76555680D01*
X121624208Y-76763004D01*
X121852875Y-76973644D01*
X121879267Y-76999108D01*
X122660575Y-77825505D01*
X123375199Y-78720811D01*
X124017069Y-79675384D01*
X124580115Y-80679580D01*
X125058270Y-81723759D01*
X125355751Y-82522065D01*
X125681026Y-83638502D01*
X125913126Y-84774708D01*
X126052632Y-85923415D01*
X126100123Y-87077360D01*
X126056178Y-88229275D01*
X125921377Y-89371897D01*
X125696300Y-90497959D01*
X125381527Y-91600196D01*
X124977636Y-92671343D01*
X124485208Y-93704134D01*
X124459922Y-93751559D01*
X123857063Y-94774515D01*
X123181530Y-95732733D01*
X122437956Y-96623664D01*
X121630978Y-97444758D01*
X120765231Y-98193466D01*
X119845349Y-98867239D01*
X118875969Y-99463528D01*
X117861724Y-99979784D01*
X116807250Y-100413458D01*
X115717183Y-100762001D01*
X114596157Y-101022863D01*
X113448808Y-101193496D01*
X112279771Y-101271350D01*
X111093681Y-101253877D01*
X110846698Y-101238135D01*
X109713659Y-101107284D01*
X108584562Y-100879782D01*
X107468048Y-100558081D01*
X106372758Y-100144636D01*
X105404535Y-99692157D01*
X104406934Y-99126188D01*
X103460267Y-98478832D01*
X102569460Y-97756075D01*
X101739441Y-96963899D01*
X100975137Y-96108290D01*
X100281475Y-95195230D01*
X99663381Y-94230704D01*
X99125783Y-93220695D01*
X98673608Y-92171188D01*
X98311782Y-91088167D01*
X98307275Y-91072421D01*
X98026874Y-89916120D01*
X97842876Y-88754838D01*
X97753988Y-87593807D01*
X97758917Y-86438261D01*
X97856372Y-85293433D01*
X98045059Y-84164554D01*
X98323687Y-83056859D01*
X98690964Y-81975579D01*
X99145597Y-80925948D01*
X99686294Y-79913198D01*
X100311763Y-78942563D01*
X101020711Y-78019275D01*
X101723455Y-77238911D01*
X102112802Y-76855730D01*
X102468630Y-76546231D01*
X102806660Y-76297958D01*
X103142614Y-76098457D01*
X103200704Y-76068468D01*
X103555257Y-75923709D01*
X103875195Y-75861281D01*
X104153887Y-75878283D01*
X104384703Y-75971811D01*
X104561014Y-76138963D01*
X104676187Y-76376837D01*
X104723593Y-76682528D01*
X104724449Y-76735543D01*
X104690907Y-77033430D01*
X104597381Y-77370654D01*
X104453953Y-77716303D01*
X104329376Y-77946533D01*
X104235509Y-78082682D01*
X104089423Y-78270769D01*
X103907365Y-78490924D01*
X103705583Y-78723276D01*
X103585804Y-78855919D01*
X103371732Y-79091876D01*
X103158655Y-79331311D01*
X102965516Y-79552628D01*
X102811259Y-79734225D01*
X102752688Y-79805806D01*
X102194121Y-80574222D01*
X101689517Y-81411762D01*
X101248485Y-82298798D01*
X100880633Y-83215701D01*
X100595570Y-84142844D01*
X100559407Y-84286235D01*
X100451121Y-84754933D01*
X100369150Y-85177950D01*
X100310320Y-85583097D01*
X100271455Y-85998187D01*
X100249382Y-86451030D01*
X100240925Y-86969438D01*
X100240594Y-87079098D01*
X100245428Y-87613539D01*
X100263606Y-88077654D01*
X100298372Y-88499821D01*
X100352969Y-88908416D01*
X100430643Y-89331819D01*
X100534638Y-89798405D01*
X100566716Y-89931637D01*
X100860684Y-90931805D01*
X101244226Y-91897542D01*
X101712302Y-92823019D01*
X102259872Y-93702409D01*
X102881897Y-94529886D01*
X103573337Y-95299621D01*
X104329151Y-96005787D01*
X105144302Y-96642556D01*
X106013748Y-97204103D01*
X106932450Y-97684598D01*
X107474709Y-97919375D01*
X108512887Y-98287588D01*
X109548628Y-98557128D01*
X110585653Y-98728347D01*
X111627681Y-98801600D01*
X112678431Y-98777241D01*
X113741622Y-98655622D01*
X114251819Y-98563935D01*
X115283220Y-98307843D01*
X116276482Y-97962707D01*
X117227045Y-97532843D01*
X118130350Y-97022571D01*
X118981838Y-96436208D01*
X119776950Y-95778073D01*
X120511126Y-95052484D01*
X121179809Y-94263759D01*
X121778438Y-93416217D01*
X122302455Y-92514175D01*
X122747301Y-91561952D01*
X123108415Y-90563866D01*
X123260891Y-90030856D01*
X123408845Y-89388230D01*
X123514216Y-88747166D01*
X123581514Y-88074283D01*
X123612910Y-87426363D01*
X123601473Y-86372989D01*
X123504311Y-85361963D01*
X123318960Y-84381668D01*
X123042956Y-83420489D01*
X122673834Y-82466810D01*
X122463860Y-82010374D01*
X122131121Y-81364762D01*
X121776310Y-80765948D01*
X121384392Y-80192462D01*
X120940329Y-79622834D01*
X120429086Y-79035596D01*
X120228922Y-78819182D01*
X119827330Y-78361131D01*
X119513928Y-77935808D01*
X119285524Y-77537293D01*
X119138926Y-77159667D01*
X119070941Y-76797010D01*
X119065052Y-76661129D01*
X119099269Y-76350478D01*
X119200178Y-76108695D01*
X119361805Y-75937095D01*
X119578171Y-75836991D01*
X119843299Y-75809699D01*
X120151214Y-75856533D01*
G36*
X101454645Y-71636109D02*
X101684361Y-71728647D01*
X101858050Y-71893624D01*
X101945174Y-72040186D01*
X102038216Y-72345630D01*
X102046267Y-72701376D01*
X101969414Y-73106680D01*
X101807745Y-73560796D01*
X101750943Y-73688693D01*
X101620835Y-73955557D01*
X101481902Y-74205641D01*
X101324657Y-74451422D01*
X101139613Y-74705376D01*
X100917284Y-74979981D01*
X100648183Y-75287713D01*
X100322824Y-75641048D01*
X100037792Y-75941793D01*
X99228521Y-76859652D01*
X98494431Y-77840246D01*
X97837636Y-78879185D01*
X97260254Y-79972078D01*
X96764400Y-81114535D01*
X96352189Y-82302166D01*
X96025737Y-83530581D01*
X95794480Y-84747457D01*
X95749260Y-85110704D01*
X95711894Y-85549731D01*
X95682984Y-86041362D01*
X95663127Y-86562424D01*
X95652925Y-87089743D01*
X95652978Y-87600145D01*
X95663885Y-88070455D01*
X95686246Y-88477500D01*
X95695184Y-88582808D01*
X95862939Y-89856667D01*
X96124748Y-91099169D01*
X96480201Y-92309306D01*
X96928891Y-93486071D01*
X97470408Y-94628456D01*
X98104343Y-95735455D01*
X98830286Y-96806059D01*
X99263869Y-97373043D01*
X99501978Y-97655875D01*
X99798768Y-97983270D01*
X100136031Y-98337078D01*
X100495558Y-98699153D01*
X100859141Y-99051345D01*
X101208573Y-99375507D01*
X101525645Y-99653490D01*
X101675843Y-99777088D01*
X102715137Y-100545854D01*
X103794888Y-101224036D01*
X104915218Y-101811687D01*
X106076244Y-102308857D01*
X107278086Y-102715600D01*
X108520865Y-103031967D01*
X109626992Y-103232471D01*
X110007325Y-103278263D01*
X110462204Y-103315564D01*
X110967269Y-103343748D01*
X111498161Y-103362188D01*
X112030518Y-103370261D01*
X112539982Y-103367340D01*
X113002191Y-103352800D01*
X113366353Y-103328478D01*
X114634606Y-103164559D01*
X115872793Y-102907294D01*
X117077122Y-102559015D01*
X118243803Y-102122050D01*
X119369044Y-101598731D01*
X120449056Y-100991388D01*
X121480048Y-100302352D01*
X122458228Y-99533953D01*
X123379805Y-98688522D01*
X124240990Y-97768388D01*
X125037992Y-96775883D01*
X125767019Y-95713337D01*
X125775775Y-95699480D01*
X126147192Y-95066746D01*
X126511160Y-94362827D01*
X126855436Y-93615642D01*
X127167779Y-92853111D01*
X127435946Y-92103152D01*
X127622128Y-91488712D01*
X127843435Y-90602468D01*
X128008193Y-89754010D01*
X128120683Y-88911210D01*
X128185180Y-88041939D01*
X128205964Y-87114071D01*
X128205966Y-87103903D01*
X128164920Y-85859410D01*
X128040267Y-84661386D01*
X127829489Y-83499129D01*
X127530070Y-82361938D01*
X127139494Y-81239109D01*
X126655243Y-80119941D01*
X126478535Y-79757733D01*
X126123625Y-79084264D01*
X125751010Y-78449760D01*
X125349033Y-77838026D01*
X124906036Y-77232867D01*
X124410360Y-76618086D01*
X123850347Y-75977488D01*
X123428688Y-75520835D01*
X122969315Y-75008766D01*
X122593721Y-74536167D01*
X122298033Y-74096025D01*
X122078374Y-73681325D01*
X121930869Y-73285051D01*
X121851644Y-72900190D01*
X121834748Y-72635657D01*
X121866164Y-72289589D01*
X121964640Y-72016498D01*
X122128857Y-71817475D01*
X122357492Y-71693608D01*
X122649224Y-71645985D01*
X123000537Y-71675303D01*
X123397320Y-71784611D01*
X123820569Y-71976807D01*
X124272743Y-72253573D01*
X124756298Y-72616590D01*
X125273690Y-73067542D01*
X125827378Y-73608109D01*
X125835699Y-73616629D01*
X126582353Y-74419295D01*
X127252527Y-75222908D01*
X127860916Y-76048330D01*
X128422219Y-76916422D01*
X128951131Y-77848046D01*
X129308555Y-78546285D01*
X129881169Y-79819359D01*
X130356898Y-81113714D01*
X130735643Y-82428793D01*
X131017305Y-83764039D01*
X131201786Y-85118892D01*
X131288985Y-86492797D01*
X131278803Y-87885194D01*
X131189403Y-89123488D01*
X131001025Y-90483585D01*
X130716376Y-91824083D01*
X130337330Y-93139944D01*
X129865760Y-94426132D01*
X129303539Y-95677610D01*
X128652541Y-96889342D01*
X127914639Y-98056290D01*
X127810979Y-98206518D01*
X127344464Y-98838182D01*
X126812253Y-99493396D01*
X126234546Y-100150210D01*
X125631547Y-100786671D01*
X125023458Y-101380828D01*
X124430479Y-101910729D01*
X124306507Y-102014482D01*
X123203945Y-102861668D01*
X122051773Y-103623594D01*
X120853411Y-104298858D01*
X119612278Y-104886060D01*
X118331793Y-105383797D01*
X117015375Y-105790668D01*
X115666444Y-106105273D01*
X114288418Y-106326210D01*
X113606897Y-106399553D01*
X113402951Y-106412738D01*
X113119792Y-106423654D01*
X112777403Y-106432187D01*
X112395766Y-106438220D01*
X111994865Y-106441639D01*
X111594681Y-106442327D01*
X111215198Y-106440169D01*
X110876397Y-106435049D01*
X110598263Y-106426852D01*
X110431897Y-106417930D01*
X110119983Y-106389414D01*
X109741865Y-106345890D01*
X109328673Y-106291609D01*
X108911536Y-106230823D01*
X108521583Y-106167784D01*
X108273890Y-106123154D01*
X106939841Y-105819526D01*
X105642825Y-105426386D01*
X104386293Y-104947229D01*
X103173698Y-104385552D01*
X102008492Y-103744851D01*
X100894125Y-103028623D01*
X99834050Y-102240364D01*
X98831719Y-101383570D01*
X97890584Y-100461738D01*
X97014096Y-99478364D01*
X96205708Y-98436944D01*
X95468871Y-97340975D01*
X94807037Y-96193953D01*
X94223658Y-94999375D01*
X93722186Y-93760736D01*
X93306073Y-92481534D01*
X92978770Y-91165264D01*
X92850695Y-90501165D01*
X92758648Y-89938188D01*
X92687643Y-89414675D01*
X92636027Y-88906783D01*
X92602143Y-88390668D01*
X92584338Y-87842487D01*
X92580957Y-87238396D01*
X92587377Y-86707028D01*
X92599412Y-86166326D01*
X92615699Y-85703060D01*
X92638309Y-85295469D01*
X92669312Y-84921795D01*
X92710779Y-84560277D01*
X92764782Y-84189156D01*
X92833390Y-83786673D01*
X92898752Y-83434989D01*
X93206425Y-82082298D01*
X93606465Y-80764152D01*
X94097240Y-79483886D01*
X94677118Y-78244838D01*
X95344468Y-77050344D01*
X96097657Y-75903741D01*
X96935053Y-74808365D01*
X97363860Y-74304684D01*
X97960867Y-73655078D01*
X98529479Y-73093544D01*
X99068692Y-72620798D01*
X99577500Y-72237553D01*
X100054899Y-71944522D01*
X100499884Y-71742420D01*
X100911449Y-71631961D01*
X101157326Y-71609685D01*
X101454645Y-71636109D01*
X101454645Y-71636109D01*
G37*
X101454645Y-71636109D02*
X101684361Y-71728647D01*
X101858050Y-71893624D01*
X101945174Y-72040186D01*
X102038216Y-72345630D01*
X102046267Y-72701376D01*
X101969414Y-73106680D01*
X101807745Y-73560796D01*
X101750943Y-73688693D01*
X101620835Y-73955557D01*
X101481902Y-74205641D01*
X101324657Y-74451422D01*
X101139613Y-74705376D01*
X100917284Y-74979981D01*
X100648183Y-75287713D01*
X100322824Y-75641048D01*
X100037792Y-75941793D01*
X99228521Y-76859652D01*
X98494431Y-77840246D01*
X97837636Y-78879185D01*
X97260254Y-79972078D01*
X96764400Y-81114535D01*
X96352189Y-82302166D01*
X96025737Y-83530581D01*
X95794480Y-84747457D01*
X95749260Y-85110704D01*
X95711894Y-85549731D01*
X95682984Y-86041362D01*
X95663127Y-86562424D01*
X95652925Y-87089743D01*
X95652978Y-87600145D01*
X95663885Y-88070455D01*
X95686246Y-88477500D01*
X95695184Y-88582808D01*
X95862939Y-89856667D01*
X96124748Y-91099169D01*
X96480201Y-92309306D01*
X96928891Y-93486071D01*
X97470408Y-94628456D01*
X98104343Y-95735455D01*
X98830286Y-96806059D01*
X99263869Y-97373043D01*
X99501978Y-97655875D01*
X99798768Y-97983270D01*
X100136031Y-98337078D01*
X100495558Y-98699153D01*
X100859141Y-99051345D01*
X101208573Y-99375507D01*
X101525645Y-99653490D01*
X101675843Y-99777088D01*
X102715137Y-100545854D01*
X103794888Y-101224036D01*
X104915218Y-101811687D01*
X106076244Y-102308857D01*
X107278086Y-102715600D01*
X108520865Y-103031967D01*
X109626992Y-103232471D01*
X110007325Y-103278263D01*
X110462204Y-103315564D01*
X110967269Y-103343748D01*
X111498161Y-103362188D01*
X112030518Y-103370261D01*
X112539982Y-103367340D01*
X113002191Y-103352800D01*
X113366353Y-103328478D01*
X114634606Y-103164559D01*
X115872793Y-102907294D01*
X117077122Y-102559015D01*
X118243803Y-102122050D01*
X119369044Y-101598731D01*
X120449056Y-100991388D01*
X121480048Y-100302352D01*
X122458228Y-99533953D01*
X123379805Y-98688522D01*
X124240990Y-97768388D01*
X125037992Y-96775883D01*
X125767019Y-95713337D01*
X125775775Y-95699480D01*
X126147192Y-95066746D01*
X126511160Y-94362827D01*
X126855436Y-93615642D01*
X127167779Y-92853111D01*
X127435946Y-92103152D01*
X127622128Y-91488712D01*
X127843435Y-90602468D01*
X128008193Y-89754010D01*
X128120683Y-88911210D01*
X128185180Y-88041939D01*
X128205964Y-87114071D01*
X128205966Y-87103903D01*
X128164920Y-85859410D01*
X128040267Y-84661386D01*
X127829489Y-83499129D01*
X127530070Y-82361938D01*
X127139494Y-81239109D01*
X126655243Y-80119941D01*
X126478535Y-79757733D01*
X126123625Y-79084264D01*
X125751010Y-78449760D01*
X125349033Y-77838026D01*
X124906036Y-77232867D01*
X124410360Y-76618086D01*
X123850347Y-75977488D01*
X123428688Y-75520835D01*
X122969315Y-75008766D01*
X122593721Y-74536167D01*
X122298033Y-74096025D01*
X122078374Y-73681325D01*
X121930869Y-73285051D01*
X121851644Y-72900190D01*
X121834748Y-72635657D01*
X121866164Y-72289589D01*
X121964640Y-72016498D01*
X122128857Y-71817475D01*
X122357492Y-71693608D01*
X122649224Y-71645985D01*
X123000537Y-71675303D01*
X123397320Y-71784611D01*
X123820569Y-71976807D01*
X124272743Y-72253573D01*
X124756298Y-72616590D01*
X125273690Y-73067542D01*
X125827378Y-73608109D01*
X125835699Y-73616629D01*
X126582353Y-74419295D01*
X127252527Y-75222908D01*
X127860916Y-76048330D01*
X128422219Y-76916422D01*
X128951131Y-77848046D01*
X129308555Y-78546285D01*
X129881169Y-79819359D01*
X130356898Y-81113714D01*
X130735643Y-82428793D01*
X131017305Y-83764039D01*
X131201786Y-85118892D01*
X131288985Y-86492797D01*
X131278803Y-87885194D01*
X131189403Y-89123488D01*
X131001025Y-90483585D01*
X130716376Y-91824083D01*
X130337330Y-93139944D01*
X129865760Y-94426132D01*
X129303539Y-95677610D01*
X128652541Y-96889342D01*
X127914639Y-98056290D01*
X127810979Y-98206518D01*
X127344464Y-98838182D01*
X126812253Y-99493396D01*
X126234546Y-100150210D01*
X125631547Y-100786671D01*
X125023458Y-101380828D01*
X124430479Y-101910729D01*
X124306507Y-102014482D01*
X123203945Y-102861668D01*
X122051773Y-103623594D01*
X120853411Y-104298858D01*
X119612278Y-104886060D01*
X118331793Y-105383797D01*
X117015375Y-105790668D01*
X115666444Y-106105273D01*
X114288418Y-106326210D01*
X113606897Y-106399553D01*
X113402951Y-106412738D01*
X113119792Y-106423654D01*
X112777403Y-106432187D01*
X112395766Y-106438220D01*
X111994865Y-106441639D01*
X111594681Y-106442327D01*
X111215198Y-106440169D01*
X110876397Y-106435049D01*
X110598263Y-106426852D01*
X110431897Y-106417930D01*
X110119983Y-106389414D01*
X109741865Y-106345890D01*
X109328673Y-106291609D01*
X108911536Y-106230823D01*
X108521583Y-106167784D01*
X108273890Y-106123154D01*
X106939841Y-105819526D01*
X105642825Y-105426386D01*
X104386293Y-104947229D01*
X103173698Y-104385552D01*
X102008492Y-103744851D01*
X100894125Y-103028623D01*
X99834050Y-102240364D01*
X98831719Y-101383570D01*
X97890584Y-100461738D01*
X97014096Y-99478364D01*
X96205708Y-98436944D01*
X95468871Y-97340975D01*
X94807037Y-96193953D01*
X94223658Y-94999375D01*
X93722186Y-93760736D01*
X93306073Y-92481534D01*
X92978770Y-91165264D01*
X92850695Y-90501165D01*
X92758648Y-89938188D01*
X92687643Y-89414675D01*
X92636027Y-88906783D01*
X92602143Y-88390668D01*
X92584338Y-87842487D01*
X92580957Y-87238396D01*
X92587377Y-86707028D01*
X92599412Y-86166326D01*
X92615699Y-85703060D01*
X92638309Y-85295469D01*
X92669312Y-84921795D01*
X92710779Y-84560277D01*
X92764782Y-84189156D01*
X92833390Y-83786673D01*
X92898752Y-83434989D01*
X93206425Y-82082298D01*
X93606465Y-80764152D01*
X94097240Y-79483886D01*
X94677118Y-78244838D01*
X95344468Y-77050344D01*
X96097657Y-75903741D01*
X96935053Y-74808365D01*
X97363860Y-74304684D01*
X97960867Y-73655078D01*
X98529479Y-73093544D01*
X99068692Y-72620798D01*
X99577500Y-72237553D01*
X100054899Y-71944522D01*
X100499884Y-71742420D01*
X100911449Y-71631961D01*
X101157326Y-71609685D01*
X101454645Y-71636109D01*
D14*
G04 #@! TO.C,S1*
X111743200Y-69407680D02*
X112343200Y-69407680D01*
X111743200Y-69407680D02*
X111143200Y-69407680D01*
X109343200Y-67007680D02*
X109343200Y-66407680D01*
X109343200Y-67007680D02*
X109343200Y-67607680D01*
X111743200Y-64607680D02*
X112343200Y-64607680D01*
X111743200Y-64607680D02*
X111143200Y-64607680D01*
X114143200Y-67007680D02*
X114143200Y-66407680D01*
X114143200Y-67007680D02*
X114143200Y-67607680D01*
G04 #@! TD*
M02*
