G04 #@! TF.GenerationSoftware,KiCad,Pcbnew,5.0.2-bee76a0~70~ubuntu18.04.1*
G04 #@! TF.CreationDate,2019-08-08T16:15:43+02:00*
G04 #@! TF.ProjectId,Badge (copy),42616467-6520-4286-936f-7079292e6b69,V01*
G04 #@! TF.SameCoordinates,Original*
G04 #@! TF.FileFunction,Copper,L2,Bot*
G04 #@! TF.FilePolarity,Positive*
%FSLAX46Y46*%
G04 Gerber Fmt 4.6, Leading zero omitted, Abs format (unit mm)*
G04 Created by KiCad (PCBNEW 5.0.2-bee76a0~70~ubuntu18.04.1) date Thu 08 Aug 2019 04:15:43 PM SAST*
%MOMM*%
%LPD*%
G01*
G04 APERTURE LIST*
G04 #@! TA.AperFunction,SMDPad,CuDef*
%ADD10R,3.960000X3.960000*%
G04 #@! TD*
G04 #@! TA.AperFunction,SMDPad,CuDef*
%ADD11R,1.270000X5.080000*%
G04 #@! TD*
G04 #@! TA.AperFunction,BGAPad,CuDef*
%ADD12C,1.000000*%
G04 #@! TD*
G04 #@! TA.AperFunction,ViaPad*
%ADD13C,0.762000*%
G04 #@! TD*
G04 #@! TA.AperFunction,Conductor*
%ADD14C,0.254000*%
G04 #@! TD*
G04 #@! TA.AperFunction,Conductor*
%ADD15C,0.800000*%
G04 #@! TD*
G04 APERTURE END LIST*
D10*
G04 #@! TO.P,BT1,2*
G04 #@! TO.N,GNDREF*
X111951000Y-74803000D03*
D11*
G04 #@! TO.P,BT1,1*
G04 #@! TO.N,3V0*
X100966000Y-74803000D03*
X122936000Y-74803000D03*
G04 #@! TD*
D12*
G04 #@! TO.P,TP1,1*
G04 #@! TO.N,ICSPCLK*
X106807000Y-86106000D03*
G04 #@! TD*
G04 #@! TO.P,TP2,1*
G04 #@! TO.N,MCLR*
X116967000Y-86106000D03*
G04 #@! TD*
G04 #@! TO.P,TP3,1*
G04 #@! TO.N,VCC*
X114427000Y-86106000D03*
G04 #@! TD*
G04 #@! TO.P,TP4,1*
G04 #@! TO.N,ICSPDAT*
X109347000Y-86106000D03*
G04 #@! TD*
G04 #@! TO.P,TP5,1*
G04 #@! TO.N,GNDREF*
X111887000Y-86106000D03*
G04 #@! TD*
D13*
G04 #@! TO.N,GNDREF*
X118237000Y-75565000D03*
X109443520Y-104749600D03*
X126238000Y-99060000D03*
X117983000Y-95504000D03*
X98679000Y-98171000D03*
X115407000Y-83306000D03*
X108077000Y-94869000D03*
X117221000Y-93980000D03*
X110871023Y-90296957D03*
X105765903Y-94200982D03*
X106121373Y-88902840D03*
X126873000Y-82804000D03*
X129286000Y-89662000D03*
X116840000Y-79375000D03*
X119761000Y-71247000D03*
X102703177Y-95089823D03*
X109088133Y-97531133D03*
X93218000Y-78867000D03*
X104648000Y-90678000D03*
X108051490Y-82887882D03*
X119380000Y-89535000D03*
X117551200Y-90540840D03*
X115265200Y-104998520D03*
X115808760Y-74620120D03*
X111978440Y-66720720D03*
X95758000Y-74803000D03*
X107518200Y-67157600D03*
X102082600Y-71132700D03*
X104051121Y-74828400D03*
X101854000Y-85293200D03*
X100379377Y-87488877D03*
X122643900Y-86677500D03*
X122888035Y-79376018D03*
G04 #@! TO.N,3V0*
X126649823Y-72359177D03*
X98108199Y-73278991D03*
G04 #@! TO.N,Net-(C1-Pad1)*
X103633751Y-90618339D03*
X98716803Y-88005055D03*
X100064646Y-69869090D03*
X104495590Y-86080600D03*
G04 #@! TO.N,VCC*
X92964000Y-76844727D03*
X131173133Y-85731153D03*
X133247322Y-86232999D03*
X121964990Y-92329000D03*
X130460049Y-75855062D03*
X95472397Y-72886274D03*
X100965000Y-82042000D03*
X96519964Y-82423000D03*
X100386500Y-92286019D03*
X103913655Y-93439020D03*
X124542137Y-92309773D03*
X100411126Y-99893374D03*
X113797080Y-104226360D03*
X100144705Y-80155590D03*
X111885514Y-90352354D03*
G04 #@! TO.N,Net-(D1-Pad1)*
X94688381Y-77850988D03*
X97403908Y-78662309D03*
G04 #@! TO.N,Net-(D9-Pad1)*
X123489000Y-92971069D03*
X122180846Y-97591075D03*
G04 #@! TO.N,Net-(D10-Pad1)*
X109093000Y-100330000D03*
X104767370Y-100964970D03*
X99570579Y-94969770D03*
X97911920Y-93009720D03*
X97110010Y-91313014D03*
X98281866Y-86484189D03*
G04 #@! TO.N,Net-(D12-Pad1)*
X94824750Y-90285021D03*
X97176398Y-85427043D03*
G04 #@! TO.N,Net-(D13-Pad1)*
X96668469Y-83460043D03*
X101882838Y-83223090D03*
G04 #@! TO.N,Net-(D14-Pad1)*
X119137046Y-93744410D03*
X120650000Y-90551000D03*
X116235816Y-96488010D03*
X121157990Y-90170000D03*
X104640107Y-99956959D03*
X127889000Y-86106000D03*
X100305959Y-94097829D03*
X97775845Y-88388283D03*
G04 #@! TO.N,Net-(D15-Pad1)*
X125221225Y-84813176D03*
X123489000Y-94862365D03*
X124378488Y-82512218D03*
X113538000Y-100203000D03*
X111233914Y-98580323D03*
X120410189Y-98668850D03*
G04 #@! TO.N,Net-(D16-Pad1)*
X121157990Y-88900000D03*
X91816146Y-84708979D03*
X127487712Y-88901342D03*
X95818935Y-90560769D03*
X98781947Y-94329193D03*
X97104200Y-94335600D03*
X92982497Y-80287692D03*
X96459061Y-86781221D03*
G04 #@! TO.N,RA2*
X93842535Y-90025146D03*
X94406499Y-81787535D03*
G04 #@! TO.N,RA4*
X121671452Y-102195471D03*
X114190727Y-94408955D03*
X110113974Y-93345098D03*
X108590089Y-92965423D03*
X108193957Y-89934854D03*
X116586000Y-98552000D03*
G04 #@! TO.N,RA5*
X107569003Y-91059003D03*
X128651000Y-82804000D03*
G04 #@! TO.N,RC0*
X126365002Y-75692000D03*
X124460000Y-75565000D03*
X125094996Y-81153000D03*
X123726080Y-71500881D03*
G04 #@! TO.N,RC1*
X124205973Y-84854605D03*
X124253941Y-93639759D03*
X108077000Y-100330008D03*
X124333000Y-90170021D03*
X125706365Y-73911784D03*
X125094992Y-72428441D03*
X126665960Y-79995314D03*
X128015990Y-76200000D03*
X128651000Y-78867000D03*
X125475988Y-92710000D03*
X114974089Y-99265684D03*
X127876959Y-78581271D03*
X119098643Y-98446846D03*
X121404786Y-80816614D03*
G04 #@! TO.N,RC2*
X101859573Y-102419452D03*
X131127330Y-81547721D03*
X127861435Y-95337889D03*
X95475156Y-94234165D03*
X96185388Y-97948835D03*
X97919763Y-99629456D03*
X128015990Y-74454146D03*
X126903967Y-73360759D03*
X130302000Y-78867000D03*
X129981960Y-94147640D03*
G04 #@! TO.N,MCLR*
X112808814Y-91430097D03*
X112395000Y-97282000D03*
X110218238Y-98606437D03*
G04 #@! TO.N,RC5*
X115900190Y-90805004D03*
X115900190Y-88645988D03*
G04 #@! TO.N,RC3*
X127635000Y-98171000D03*
X125603000Y-100457000D03*
X104215334Y-104313881D03*
X100743098Y-102380608D03*
X128787294Y-95756297D03*
X108585000Y-103759000D03*
X94678460Y-96607927D03*
X97860063Y-100643712D03*
X123698011Y-102235000D03*
X121347438Y-103719482D03*
X115824000Y-103759000D03*
X107057765Y-92568998D03*
X129589492Y-85520569D03*
X130683000Y-88773000D03*
X130556000Y-90551000D03*
X129534895Y-93220205D03*
X95176887Y-85376969D03*
X102084451Y-89102744D03*
X120078432Y-82709985D03*
G04 #@! TO.N,RC4*
X99562677Y-76651677D03*
X115443000Y-94869000D03*
X114935004Y-91567000D03*
X107061001Y-98044001D03*
X109552963Y-95884990D03*
X126619000Y-78867004D03*
X126701022Y-91440000D03*
X126373898Y-87514744D03*
X114890035Y-88900000D03*
X103916977Y-89043892D03*
G04 #@! TO.N,ICSPDAT*
X106680000Y-90424000D03*
X108666174Y-87615343D03*
X100863133Y-80874019D03*
X92882487Y-81540708D03*
G04 #@! TO.N,ICSPCLK*
X114306875Y-97654116D03*
X101607000Y-96466000D03*
X113833258Y-91591100D03*
X98953320Y-78988920D03*
X99181207Y-80512932D03*
G04 #@! TD*
D14*
G04 #@! TO.N,3V0*
X126268824Y-72740176D02*
X126649823Y-72359177D01*
X125247068Y-73190442D02*
X125460753Y-73190442D01*
X125460753Y-73190442D02*
X125911019Y-72740176D01*
X125911019Y-72740176D02*
X126268824Y-72740176D01*
X123634510Y-74803000D02*
X122999510Y-74803000D01*
X125247068Y-73190442D02*
X123634510Y-74803000D01*
D15*
X98108199Y-73817806D02*
X99093393Y-74803000D01*
X98108199Y-73278991D02*
X98108199Y-73817806D01*
X99093393Y-74803000D02*
X100437990Y-74803000D01*
D14*
G04 #@! TO.N,Net-(C1-Pad1)*
X101330087Y-90618339D02*
X99097802Y-88386054D01*
X103633751Y-90618339D02*
X101330087Y-90618339D01*
X99097802Y-88386054D02*
X98716803Y-88005055D01*
X96774000Y-75148440D02*
X101727001Y-80101441D01*
X101727001Y-80101441D02*
X101727002Y-81422238D01*
X101727002Y-81422238D02*
X104495590Y-84190826D01*
X104495590Y-85541785D02*
X104495590Y-86080600D01*
X100064646Y-69869090D02*
X96774000Y-73159736D01*
X96774000Y-73159736D02*
X96774000Y-75148440D01*
X104495590Y-84190826D02*
X104495590Y-85541785D01*
G04 #@! TO.N,VCC*
X131173133Y-85731153D02*
X132745476Y-85731153D01*
X132745476Y-85731153D02*
X133247322Y-86232999D01*
X102930635Y-92456000D02*
X103532656Y-93058021D01*
X100457000Y-92456000D02*
X102930635Y-92456000D01*
X103532656Y-93058021D02*
X103913655Y-93439020D01*
X122365216Y-91928774D02*
X121964990Y-92329000D01*
X124542137Y-92309773D02*
X124161138Y-91928774D01*
X124161138Y-91928774D02*
X122365216Y-91928774D01*
X103453333Y-102935581D02*
X101554126Y-101036374D01*
X110301581Y-102935581D02*
X103453333Y-102935581D01*
X101554126Y-101036374D02*
X100411126Y-99893374D01*
X112790905Y-103759000D02*
X111125000Y-103759000D01*
X113258265Y-104226360D02*
X112790905Y-103759000D01*
X113797080Y-104226360D02*
X113258265Y-104226360D01*
X111125000Y-103759000D02*
X110301581Y-102935581D01*
D15*
X100443045Y-82563955D02*
X98281514Y-82563955D01*
X100965000Y-82042000D02*
X100443045Y-82563955D01*
X97058779Y-82423000D02*
X96519964Y-82423000D01*
X98140559Y-82423000D02*
X97058779Y-82423000D01*
X98281514Y-82563955D02*
X98140559Y-82423000D01*
D14*
X99522327Y-81274934D02*
X99968556Y-80828705D01*
X98815445Y-81274934D02*
X99522327Y-81274934D01*
X92964000Y-77383542D02*
X96714436Y-81133978D01*
X92964000Y-76844727D02*
X92964000Y-77383542D01*
X98674489Y-81133978D02*
X98815445Y-81274934D01*
X99968556Y-80331739D02*
X100144705Y-80155590D01*
X99968556Y-80828705D02*
X99968556Y-80331739D01*
X96714436Y-81133978D02*
X98674489Y-81133978D01*
X113497360Y-87035640D02*
X113497360Y-89291160D01*
X113497360Y-89291160D02*
X112436166Y-90352354D01*
X112436166Y-90352354D02*
X111885514Y-90352354D01*
X114427000Y-86106000D02*
X113497360Y-87035640D01*
G04 #@! TO.N,Net-(D1-Pad1)*
X97022909Y-78281310D02*
X97403908Y-78662309D01*
X94688381Y-77850988D02*
X96592587Y-77850988D01*
X96592587Y-77850988D02*
X97022909Y-78281310D01*
G04 #@! TO.N,Net-(D9-Pad1)*
X123489000Y-92971069D02*
X122180846Y-94279223D01*
X122180846Y-94279223D02*
X122180846Y-97052260D01*
X122180846Y-97052260D02*
X122180846Y-97591075D01*
G04 #@! TO.N,Net-(D10-Pad1)*
X109093000Y-100868815D02*
X108869805Y-101092010D01*
X105306185Y-100964970D02*
X104767370Y-100964970D01*
X109093000Y-100330000D02*
X109093000Y-100868815D01*
X105433225Y-101092010D02*
X105306185Y-100964970D01*
X108869805Y-101092010D02*
X105433225Y-101092010D01*
X99570579Y-94430955D02*
X99543949Y-94404325D01*
X99570579Y-94969770D02*
X99570579Y-94430955D01*
X98590238Y-93009720D02*
X98450735Y-93009720D01*
X98450735Y-93009720D02*
X97911920Y-93009720D01*
X99543949Y-93963431D02*
X98590238Y-93009720D01*
X99543949Y-94404325D02*
X99543949Y-93963431D01*
X95615760Y-89150295D02*
X97900867Y-86865188D01*
X95615760Y-89279949D02*
X95615760Y-89150295D01*
X97110010Y-90774199D02*
X95615760Y-89279949D01*
X97110010Y-91313014D02*
X97110010Y-90774199D01*
X97900867Y-86865188D02*
X98281866Y-86484189D01*
G04 #@! TO.N,Net-(D12-Pad1)*
X95729665Y-86100931D02*
X96115745Y-86100931D01*
X96115745Y-86100931D02*
X96408634Y-85808042D01*
X94824750Y-89925811D02*
X94599740Y-89700801D01*
X96408634Y-85808042D02*
X96795399Y-85808042D01*
X96795399Y-85808042D02*
X97176398Y-85427043D01*
X94824750Y-90285021D02*
X94824750Y-89925811D01*
X94599740Y-89700801D02*
X94599740Y-87230856D01*
X94599740Y-87230856D02*
X95729665Y-86100931D01*
G04 #@! TO.N,Net-(D13-Pad1)*
X96668469Y-83460043D02*
X101645885Y-83460043D01*
X101645885Y-83460043D02*
X101882838Y-83223090D01*
G04 #@! TO.N,Net-(D14-Pad1)*
X119137046Y-93744410D02*
X119137046Y-92063954D01*
X119137046Y-92063954D02*
X120650000Y-90551000D01*
X116235816Y-96488010D02*
X111208901Y-96488010D01*
X105021106Y-99575960D02*
X104640107Y-99956959D01*
X105664066Y-98933000D02*
X105021106Y-99575960D01*
X111208901Y-96488010D02*
X108763911Y-98933000D01*
X108763911Y-98933000D02*
X105664066Y-98933000D01*
X121157990Y-90170000D02*
X122554990Y-88773000D01*
X128269999Y-89246817D02*
X128269999Y-86486999D01*
X128269999Y-86486999D02*
X127889000Y-86106000D01*
X127853473Y-89663343D02*
X128269999Y-89246817D01*
X126676299Y-89663343D02*
X127853473Y-89663343D01*
X125785956Y-88773000D02*
X126676299Y-89663343D01*
X122554990Y-88773000D02*
X125785956Y-88773000D01*
X99364800Y-92617855D02*
X99364800Y-89977238D01*
X100305959Y-94097829D02*
X100305959Y-93559014D01*
X98156844Y-88769282D02*
X97775845Y-88388283D01*
X99364800Y-89977238D02*
X98156844Y-88769282D01*
X100305959Y-93559014D02*
X99364800Y-92617855D01*
G04 #@! TO.N,Net-(D15-Pad1)*
X125221225Y-84813176D02*
X125221225Y-83354955D01*
X124759487Y-82893217D02*
X124378488Y-82512218D01*
X125221225Y-83354955D02*
X124759487Y-82893217D01*
X111614913Y-98961322D02*
X111233914Y-98580323D01*
X112856591Y-100203000D02*
X111614913Y-98961322D01*
X113538000Y-100203000D02*
X112856591Y-100203000D01*
X122568272Y-99049849D02*
X120791188Y-99049849D01*
X120791188Y-99049849D02*
X120410189Y-98668850D01*
X123489000Y-98129121D02*
X122568272Y-99049849D01*
X123489000Y-94862365D02*
X123489000Y-98129121D01*
G04 #@! TO.N,Net-(D16-Pad1)*
X121793001Y-88264989D02*
X125996381Y-88264989D01*
X125996381Y-88264989D02*
X126632734Y-88901342D01*
X126632734Y-88901342D02*
X126948897Y-88901342D01*
X126948897Y-88901342D02*
X127487712Y-88901342D01*
X121157990Y-88900000D02*
X121793001Y-88264989D01*
X97110607Y-94329193D02*
X97104200Y-94335600D01*
X98781947Y-94329193D02*
X97110607Y-94329193D01*
X91816146Y-81454043D02*
X92601498Y-80668691D01*
X92601498Y-80668691D02*
X92982497Y-80287692D01*
X91816146Y-84708979D02*
X91816146Y-81454043D01*
X95107750Y-88132532D02*
X96078062Y-87162220D01*
X95818935Y-90560769D02*
X95818935Y-90201560D01*
X95818935Y-90201560D02*
X95107750Y-89490375D01*
X95107750Y-89490375D02*
X95107750Y-88132532D01*
X96078062Y-87162220D02*
X96459061Y-86781221D01*
G04 #@! TO.N,RA2*
X94406499Y-81977663D02*
X94406499Y-81787535D01*
X93842535Y-82541627D02*
X94406499Y-81977663D01*
X93842535Y-90025146D02*
X93842535Y-82541627D01*
G04 #@! TO.N,RA4*
X111177831Y-94408955D02*
X110494973Y-93726097D01*
X114190727Y-94408955D02*
X111177831Y-94408955D01*
X110494973Y-93726097D02*
X110113974Y-93345098D01*
X107076239Y-91694001D02*
X107203242Y-91821004D01*
X106295763Y-92934760D02*
X106295763Y-92203236D01*
X108574956Y-91180812D02*
X108574956Y-90315853D01*
X106804998Y-91694001D02*
X107076239Y-91694001D01*
X108590089Y-92965423D02*
X108051274Y-92965423D01*
X108051274Y-92965423D02*
X107685697Y-93331000D01*
X106692003Y-93331000D02*
X106295763Y-92934760D01*
X108574956Y-90315853D02*
X108193957Y-89934854D01*
X106295763Y-92203236D02*
X106804998Y-91694001D01*
X107685697Y-93331000D02*
X106692003Y-93331000D01*
X107934764Y-91821004D02*
X108574956Y-91180812D01*
X107203242Y-91821004D02*
X107934764Y-91821004D01*
X121671452Y-102195471D02*
X119678982Y-100203001D01*
X116586000Y-99090815D02*
X116586000Y-98552000D01*
X119678982Y-100203001D02*
X117698186Y-100203001D01*
X117698186Y-100203001D02*
X116586000Y-99090815D01*
G04 #@! TO.N,RA5*
X105787752Y-91936010D02*
X105787752Y-93145185D01*
X109743238Y-92582998D02*
X110601762Y-92582998D01*
X128651000Y-83342815D02*
X128651000Y-82804000D01*
X105787752Y-93145185D02*
X106481578Y-93839011D01*
X106537761Y-91186001D02*
X105787752Y-91936010D01*
X109352091Y-92974145D02*
X109743238Y-92582998D01*
X108844265Y-93839011D02*
X109352091Y-93331185D01*
X107569003Y-91059003D02*
X107442005Y-91186001D01*
X116731996Y-93394203D02*
X118618012Y-91508188D01*
X120395988Y-89646774D02*
X120395988Y-88534238D01*
X113638162Y-93883875D02*
X114127837Y-93394203D01*
X107442005Y-91186001D02*
X106537761Y-91186001D01*
X110601762Y-92582998D02*
X111902639Y-93883875D01*
X120395988Y-88534238D02*
X121173247Y-87756979D01*
X128493185Y-83342815D02*
X128651000Y-83342815D01*
X118618013Y-91424749D02*
X120395988Y-89646774D01*
X106481578Y-93839011D02*
X108844265Y-93839011D01*
X109352091Y-93331185D02*
X109352091Y-92974145D01*
X111902639Y-93883875D02*
X113638162Y-93883875D01*
X114127837Y-93394203D02*
X116731996Y-93394203D01*
X121173247Y-87756979D02*
X124079021Y-87756979D01*
X118618012Y-91508188D02*
X118618013Y-91424749D01*
X124079021Y-87756979D02*
X128493185Y-83342815D01*
G04 #@! TO.N,RC0*
X125094996Y-76199996D02*
X125094996Y-80614185D01*
X125094996Y-80614185D02*
X125094996Y-81153000D01*
X124460000Y-75565000D02*
X125094996Y-76199996D01*
X126365002Y-75692000D02*
X127816281Y-77143279D01*
X128778000Y-73377990D02*
X126900891Y-71500881D01*
X126900891Y-71500881D02*
X124264895Y-71500881D01*
X127816281Y-77143279D02*
X128708483Y-77143279D01*
X128778000Y-77073762D02*
X128778000Y-73377990D01*
X128708483Y-77143279D02*
X128778000Y-77073762D01*
X124264895Y-71500881D02*
X123726080Y-71500881D01*
G04 #@! TO.N,RC1*
X125706365Y-73911784D02*
X126245180Y-73911784D01*
X126245180Y-73911784D02*
X128015990Y-75682594D01*
X128015990Y-75682594D02*
X128015990Y-76200000D01*
X124713999Y-90551020D02*
X124333000Y-90170021D01*
X125475988Y-92710000D02*
X125475988Y-91313009D01*
X125475988Y-91313009D02*
X124713999Y-90551020D01*
X108541425Y-99441011D02*
X109331773Y-99441011D01*
X111109700Y-101218938D02*
X115511826Y-101218938D01*
X109331773Y-99441011D02*
X111109700Y-101218938D01*
X115355088Y-99646683D02*
X114974089Y-99265684D01*
X115567999Y-101162765D02*
X115567999Y-99859594D01*
X108077000Y-100330008D02*
X108077000Y-99905436D01*
X115511826Y-101218938D02*
X115567999Y-101162765D01*
X115567999Y-99859594D02*
X115355088Y-99646683D01*
X108077000Y-99905436D02*
X108541425Y-99441011D01*
X128112185Y-78867000D02*
X127876959Y-78631774D01*
X128651000Y-78867000D02*
X128112185Y-78867000D01*
X127876959Y-78631774D02*
X127876959Y-78581271D01*
X127635000Y-80964354D02*
X127046959Y-80376313D01*
X124205973Y-85393420D02*
X124387730Y-85575177D01*
X127635000Y-83482564D02*
X127635000Y-80964354D01*
X124387730Y-85575177D02*
X125542387Y-85575177D01*
X125542387Y-85575177D02*
X127635000Y-83482564D01*
X127046959Y-80376313D02*
X126665960Y-79995314D01*
X124205973Y-84854605D02*
X124205973Y-85393420D01*
X124253941Y-93639759D02*
X123872942Y-94020758D01*
X123872942Y-94020758D02*
X123157747Y-94020758D01*
X119780890Y-97764599D02*
X119479642Y-98065847D01*
X123157747Y-94020758D02*
X122714679Y-94463826D01*
X122546608Y-98353077D02*
X121380719Y-98353077D01*
X122714679Y-94463826D02*
X122714679Y-96931181D01*
X120792241Y-97764599D02*
X119780890Y-97764599D01*
X119479642Y-98065847D02*
X119098643Y-98446846D01*
X122942848Y-97159350D02*
X122942848Y-97956837D01*
X121380719Y-98353077D02*
X120792241Y-97764599D01*
X122714679Y-96931181D02*
X122942848Y-97159350D01*
X122942848Y-97956837D02*
X122546608Y-98353077D01*
X121404786Y-82053418D02*
X121404786Y-81355429D01*
X121404786Y-81355429D02*
X121404786Y-80816614D01*
X124205973Y-84854605D02*
X121404786Y-82053418D01*
G04 #@! TO.N,RC2*
X95475156Y-94234165D02*
X95475156Y-97238603D01*
X95475156Y-97238603D02*
X95804389Y-97567836D01*
X95804389Y-97567836D02*
X96185388Y-97948835D01*
X99069577Y-99629456D02*
X98458578Y-99629456D01*
X101859573Y-102419452D02*
X99069577Y-99629456D01*
X98458578Y-99629456D02*
X97919763Y-99629456D01*
X126922603Y-73360759D02*
X126903967Y-73360759D01*
X128015990Y-74454146D02*
X126922603Y-73360759D01*
X130302000Y-80722391D02*
X130302000Y-79405815D01*
X130302000Y-79405815D02*
X130302000Y-78867000D01*
X131127330Y-81547721D02*
X130302000Y-80722391D01*
X129051684Y-94147640D02*
X129443145Y-94147640D01*
X127861435Y-95337889D02*
X129051684Y-94147640D01*
X129443145Y-94147640D02*
X129981960Y-94147640D01*
G04 #@! TO.N,MCLR*
X110218238Y-98454282D02*
X111390520Y-97282000D01*
X111390520Y-97282000D02*
X111856185Y-97282000D01*
X111856185Y-97282000D02*
X112395000Y-97282000D01*
X110218238Y-98606437D02*
X110218238Y-98454282D01*
X116259894Y-86106000D02*
X114005371Y-88360523D01*
X116967000Y-86106000D02*
X116259894Y-86106000D01*
X114005371Y-90233540D02*
X113189813Y-91049098D01*
X114005371Y-88360523D02*
X114005371Y-90233540D01*
X113189813Y-91049098D02*
X112808814Y-91430097D01*
G04 #@! TO.N,RC5*
X115900190Y-88645988D02*
X115900190Y-90805004D01*
G04 #@! TO.N,RC3*
X127635000Y-96908591D02*
X128406295Y-96137296D01*
X127635000Y-98171000D02*
X127635000Y-96908591D01*
X128406295Y-96137296D02*
X128787294Y-95756297D01*
X104215334Y-104313881D02*
X108030119Y-104313881D01*
X108204001Y-104139999D02*
X108585000Y-103759000D01*
X108030119Y-104313881D02*
X108204001Y-104139999D01*
X98241062Y-101024711D02*
X97860063Y-100643712D01*
X99596959Y-102380608D02*
X98241062Y-101024711D01*
X100743098Y-102380608D02*
X99596959Y-102380608D01*
X123825000Y-102235000D02*
X123698011Y-102235000D01*
X125603000Y-100457000D02*
X123825000Y-102235000D01*
X115863518Y-103719482D02*
X115824000Y-103759000D01*
X121347438Y-103719482D02*
X115863518Y-103719482D01*
X129589492Y-87679492D02*
X130302001Y-88392001D01*
X129589492Y-85520569D02*
X129589492Y-87679492D01*
X130302001Y-88392001D02*
X130683000Y-88773000D01*
X130556000Y-90551000D02*
X130556000Y-92199100D01*
X129915894Y-92839206D02*
X129534895Y-93220205D01*
X130556000Y-92199100D02*
X129915894Y-92839206D01*
X95176887Y-81430159D02*
X95176887Y-84838154D01*
X94772261Y-81025533D02*
X95176887Y-81430159D01*
X93644497Y-82021229D02*
X93644497Y-81421773D01*
X93238429Y-82427297D02*
X93644497Y-82021229D01*
X93644497Y-81421773D02*
X94040737Y-81025533D01*
X93238429Y-89501490D02*
X93238429Y-82427297D01*
X94040737Y-81025533D02*
X94772261Y-81025533D01*
X95176887Y-84838154D02*
X95176887Y-85376969D01*
X93080534Y-89659385D02*
X93238429Y-89501490D01*
X94678460Y-91977992D02*
X93080534Y-90380066D01*
X94678460Y-96607927D02*
X94678460Y-91977992D01*
X93080534Y-90380066D02*
X93080534Y-89659385D01*
X102628700Y-88558495D02*
X102084451Y-89102744D01*
X102628700Y-87376000D02*
X102628700Y-88558495D01*
X99237800Y-83985100D02*
X102628700Y-87376000D01*
X95176887Y-85376969D02*
X96121271Y-85376969D01*
X97513140Y-83985100D02*
X99237800Y-83985100D01*
X96121271Y-85376969D02*
X97513140Y-83985100D01*
X112113064Y-93375864D02*
X113427738Y-93375864D01*
X107836565Y-92329013D02*
X108145187Y-92329013D01*
X110812187Y-92074987D02*
X112113064Y-93375864D01*
X113427738Y-93375864D02*
X113917412Y-92886192D01*
X120078432Y-84298450D02*
X120078432Y-83248800D01*
X120078432Y-83248800D02*
X120078432Y-82709985D01*
X116521571Y-92886192D02*
X116662200Y-92745563D01*
X116662200Y-92745563D02*
X116662200Y-87714682D01*
X113917412Y-92886192D02*
X116521571Y-92886192D01*
X107057765Y-92568998D02*
X107596580Y-92568998D01*
X107596580Y-92568998D02*
X107836565Y-92329013D01*
X108399213Y-92074987D02*
X110812187Y-92074987D01*
X116662200Y-87714682D02*
X120078432Y-84298450D01*
X108145187Y-92329013D02*
X108399213Y-92074987D01*
G04 #@! TO.N,RC4*
X114123823Y-92378181D02*
X114554005Y-91947999D01*
X109601002Y-91142439D02*
X110025541Y-91566978D01*
X106187239Y-89661999D02*
X107339048Y-89661999D01*
X107339048Y-89661999D02*
X107828195Y-89172852D01*
X112450489Y-92867853D02*
X113217314Y-92867853D01*
X108559719Y-89172852D02*
X109601002Y-90214135D01*
X104647999Y-89535001D02*
X104901997Y-89788999D01*
X114554005Y-91947999D02*
X114935004Y-91567000D01*
X104901997Y-89788999D02*
X106060239Y-89788999D01*
X109601002Y-90214135D02*
X109601002Y-91142439D01*
X111149614Y-91566978D02*
X112450489Y-92867853D01*
X106060239Y-89788999D02*
X106187239Y-89661999D01*
X110025541Y-91566978D02*
X111149614Y-91566978D01*
X113217314Y-92867853D02*
X113706987Y-92378181D01*
X113706987Y-92378181D02*
X114123823Y-92378181D01*
X107828195Y-89172852D02*
X108559719Y-89172852D01*
X109933962Y-95503991D02*
X109552963Y-95884990D01*
X115443000Y-94869000D02*
X114904185Y-94869000D01*
X114602229Y-95170956D02*
X110266997Y-95170956D01*
X114904185Y-94869000D02*
X114602229Y-95170956D01*
X110266997Y-95170956D02*
X109933962Y-95503991D01*
X127269239Y-98933001D02*
X126701022Y-98364784D01*
X114935004Y-91567000D02*
X114935004Y-88944969D01*
X114935004Y-88944969D02*
X114890035Y-88900000D01*
X127508003Y-79248003D02*
X126999999Y-79248003D01*
X130351494Y-82091494D02*
X127508003Y-79248003D01*
X130351494Y-87313730D02*
X130351494Y-82091494D01*
X128000761Y-98933001D02*
X131085511Y-95848251D01*
X127269239Y-98933001D02*
X128000761Y-98933001D01*
X131570409Y-94866480D02*
X132241359Y-93152981D01*
X132241359Y-89203595D02*
X130351494Y-87313730D01*
X126999999Y-79248003D02*
X126619000Y-78867004D01*
X131085511Y-95848251D02*
X131570409Y-94866480D01*
X132241359Y-93152981D02*
X132241359Y-89203595D01*
X105425301Y-98044001D02*
X106522186Y-98044001D01*
X104378299Y-101726980D02*
X103878105Y-101226786D01*
X103878105Y-99591197D02*
X105425301Y-98044001D01*
X120075199Y-101726980D02*
X104378299Y-101726980D01*
X121305691Y-102957472D02*
X120075199Y-101726980D01*
X106522186Y-98044001D02*
X107061001Y-98044001D01*
X126634237Y-98297999D02*
X124109481Y-98297999D01*
X103878105Y-101226786D02*
X103878105Y-99591197D01*
X122936001Y-102058684D02*
X122037213Y-102957472D01*
X122936001Y-99471479D02*
X122936001Y-102058684D01*
X124109481Y-98297999D02*
X122936001Y-99471479D01*
X127269239Y-98933001D02*
X126634237Y-98297999D01*
X122037213Y-102957472D02*
X121305691Y-102957472D01*
X124114560Y-98292920D02*
X124109481Y-98297999D01*
X124114560Y-95321120D02*
X124114560Y-98292920D01*
X126701022Y-91440000D02*
X126701022Y-92734658D01*
X126701022Y-92734658D02*
X124114560Y-95321120D01*
X104297976Y-89424891D02*
X103916977Y-89043892D01*
X104408086Y-89535001D02*
X104297976Y-89424891D01*
X104647999Y-89535001D02*
X104408086Y-89535001D01*
X104647999Y-87487763D02*
X104647999Y-89535001D01*
X105257600Y-86878162D02*
X104647999Y-87487763D01*
X105257600Y-84234400D02*
X105257600Y-86878162D01*
X101234251Y-78890255D02*
X102235012Y-79891016D01*
X100194985Y-77713829D02*
X101234251Y-78753095D01*
X102235012Y-79891016D02*
X102235012Y-81211812D01*
X102235012Y-81211812D02*
X105257600Y-84234400D01*
X100086014Y-77713829D02*
X100194985Y-77713829D01*
X101234251Y-78753095D02*
X101234251Y-78890255D01*
X99562677Y-76651677D02*
X99562677Y-77190492D01*
X99562677Y-77190492D02*
X100086014Y-77713829D01*
G04 #@! TO.N,ICSPDAT*
X109347000Y-86106000D02*
X109347000Y-86934517D01*
X109047173Y-87234344D02*
X108666174Y-87615343D01*
X109347000Y-86934517D02*
X109047173Y-87234344D01*
X98605020Y-81782945D02*
X98464064Y-81641989D01*
X96551149Y-98710836D02*
X95653607Y-98710836D01*
X101467090Y-94201021D02*
X99936340Y-95731771D01*
X96107153Y-81641989D02*
X94982686Y-80517522D01*
X99954207Y-81782945D02*
X98605020Y-81782945D01*
X106680000Y-90424000D02*
X106141185Y-90424000D01*
X106141185Y-90424000D02*
X105159422Y-91405763D01*
X94982686Y-80517522D02*
X93830311Y-80517523D01*
X92582228Y-81840967D02*
X92882487Y-81540708D01*
X99936340Y-95731771D02*
X99530214Y-95731771D01*
X105159422Y-91405763D02*
X105159422Y-93313939D01*
X98464064Y-81641989D02*
X96107153Y-81641989D01*
X105159422Y-93313939D02*
X104272340Y-94201021D01*
X104272340Y-94201021D02*
X101467090Y-94201021D01*
X92882487Y-81465347D02*
X92882487Y-81540708D01*
X93726000Y-91754809D02*
X92572523Y-90601332D01*
X93830311Y-80517523D02*
X92882487Y-81465347D01*
X100863133Y-80874019D02*
X99954207Y-81782945D01*
X95653607Y-98710836D02*
X93726000Y-96783229D01*
X92572523Y-89448960D02*
X92582228Y-89439255D01*
X93726000Y-96783229D02*
X93726000Y-91754809D01*
X92572523Y-90601332D02*
X92572523Y-89448960D01*
X99530214Y-95731771D02*
X96551149Y-98710836D01*
X92582228Y-89439255D02*
X92582228Y-81840967D01*
G04 #@! TO.N,ICSPCLK*
X107807196Y-95896000D02*
X102177000Y-95896000D01*
X114306875Y-97654116D02*
X114679002Y-97281989D01*
X116952633Y-95726000D02*
X111030000Y-95726000D01*
X117617251Y-96390618D02*
X116952633Y-95726000D01*
X102177000Y-95896000D02*
X101607000Y-96466000D01*
X114679002Y-97281989D02*
X117617251Y-97281989D01*
X108558196Y-96647000D02*
X107807196Y-95896000D01*
X117617251Y-97281989D02*
X117617251Y-96390618D01*
X111030000Y-95726000D02*
X110109000Y-96647000D01*
X110109000Y-96647000D02*
X108558196Y-96647000D01*
X106807000Y-87106764D02*
X108365078Y-88664842D01*
X113775607Y-91591100D02*
X113833258Y-91591100D01*
X108365078Y-88664842D02*
X108770145Y-88664842D01*
X110235966Y-91058967D02*
X111360040Y-91058968D01*
X110109013Y-90932013D02*
X110235966Y-91058967D01*
X113006865Y-92359842D02*
X113775607Y-91591100D01*
X110109013Y-90003710D02*
X110109013Y-90932013D01*
X111360040Y-91058968D02*
X112660914Y-92359842D01*
X106807000Y-86106000D02*
X106807000Y-87106764D01*
X112660914Y-92359842D02*
X113006865Y-92359842D01*
X108770145Y-88664842D02*
X110109013Y-90003710D01*
X99181207Y-80512932D02*
X99181207Y-79216807D01*
X99181207Y-79216807D02*
X98953320Y-78988920D01*
G04 #@! TD*
G04 #@! TO.N,GNDREF*
G36*
X92202000Y-76996298D02*
X92318008Y-77276365D01*
X92451229Y-77409586D01*
X92485475Y-77581753D01*
X92569412Y-77707374D01*
X92569415Y-77707377D01*
X92597754Y-77749789D01*
X92640166Y-77778128D01*
X94871560Y-80009522D01*
X93880343Y-80009524D01*
X93830311Y-79999572D01*
X93698774Y-80025736D01*
X93628489Y-79856054D01*
X93414135Y-79641700D01*
X93134068Y-79525692D01*
X92830926Y-79525692D01*
X92550859Y-79641700D01*
X92336505Y-79856054D01*
X92220497Y-80136121D01*
X92220497Y-80331272D01*
X91492312Y-81059457D01*
X91449900Y-81087796D01*
X91421561Y-81130208D01*
X91421558Y-81130211D01*
X91337621Y-81255832D01*
X91298195Y-81454043D01*
X91308147Y-81504076D01*
X91308146Y-84139349D01*
X91170154Y-84277341D01*
X91054146Y-84557408D01*
X91054146Y-84860550D01*
X91170154Y-85140617D01*
X91384508Y-85354971D01*
X91664575Y-85470979D01*
X91967717Y-85470979D01*
X92074229Y-85426860D01*
X92074228Y-89350141D01*
X92054572Y-89448960D01*
X92064524Y-89498992D01*
X92064523Y-90551304D01*
X92054572Y-90601332D01*
X92064523Y-90651360D01*
X92064523Y-90651363D01*
X92085930Y-90758981D01*
X92093998Y-90799543D01*
X92172659Y-90917267D01*
X92206276Y-90967579D01*
X92248691Y-90995920D01*
X93218001Y-91965231D01*
X93218000Y-96733201D01*
X93208049Y-96783229D01*
X93218000Y-96833257D01*
X93218000Y-96833260D01*
X93234407Y-96915742D01*
X93247475Y-96981440D01*
X93328226Y-97102292D01*
X93359753Y-97149476D01*
X93402168Y-97177817D01*
X95259021Y-99034671D01*
X95287360Y-99077083D01*
X95329772Y-99105422D01*
X95329774Y-99105424D01*
X95438937Y-99178364D01*
X95455395Y-99189361D01*
X95603575Y-99218836D01*
X95603579Y-99218836D01*
X95653607Y-99228787D01*
X95703635Y-99218836D01*
X96501121Y-99218836D01*
X96551149Y-99228787D01*
X96601177Y-99218836D01*
X96601181Y-99218836D01*
X96749361Y-99189361D01*
X96917396Y-99077083D01*
X96945737Y-99034668D01*
X99740635Y-96239771D01*
X99886312Y-96239771D01*
X99936340Y-96249722D01*
X99986368Y-96239771D01*
X99986372Y-96239771D01*
X100134552Y-96210296D01*
X100302587Y-96098018D01*
X100330928Y-96055603D01*
X101677510Y-94709021D01*
X104222312Y-94709021D01*
X104272340Y-94718972D01*
X104322368Y-94709021D01*
X104322372Y-94709021D01*
X104470552Y-94679546D01*
X104638587Y-94567268D01*
X104666928Y-94524853D01*
X105483254Y-93708527D01*
X105525669Y-93680186D01*
X105557177Y-93633031D01*
X106086992Y-94162846D01*
X106115331Y-94205258D01*
X106157743Y-94233597D01*
X106157745Y-94233599D01*
X106255941Y-94299211D01*
X106283366Y-94317536D01*
X106431546Y-94347011D01*
X106431549Y-94347011D01*
X106481577Y-94356962D01*
X106531605Y-94347011D01*
X108794237Y-94347011D01*
X108844265Y-94356962D01*
X108894293Y-94347011D01*
X108894297Y-94347011D01*
X109042477Y-94317536D01*
X109210512Y-94205258D01*
X109238853Y-94162843D01*
X109546471Y-93855225D01*
X109682336Y-93991090D01*
X109962403Y-94107098D01*
X110157553Y-94107098D01*
X110171140Y-94120685D01*
X110171143Y-94120687D01*
X110713411Y-94662956D01*
X110317025Y-94662956D01*
X110266997Y-94653005D01*
X110216969Y-94662956D01*
X110216965Y-94662956D01*
X110068785Y-94692431D01*
X110031373Y-94717429D01*
X109943164Y-94776368D01*
X109943162Y-94776370D01*
X109900750Y-94804709D01*
X109872411Y-94847121D01*
X109596542Y-95122990D01*
X109401392Y-95122990D01*
X109121325Y-95238998D01*
X108906971Y-95453352D01*
X108790963Y-95733419D01*
X108790963Y-96036561D01*
X108833395Y-96139000D01*
X108768616Y-96139000D01*
X108201784Y-95572168D01*
X108173443Y-95529753D01*
X108005408Y-95417475D01*
X107857228Y-95388000D01*
X107857224Y-95388000D01*
X107807196Y-95378049D01*
X107757168Y-95388000D01*
X102227028Y-95388000D01*
X102177000Y-95378049D01*
X102126972Y-95388000D01*
X102126968Y-95388000D01*
X101978788Y-95417475D01*
X101853167Y-95501412D01*
X101853165Y-95501414D01*
X101810753Y-95529753D01*
X101782414Y-95572165D01*
X101650579Y-95704000D01*
X101455429Y-95704000D01*
X101175362Y-95820008D01*
X100961008Y-96034362D01*
X100845000Y-96314429D01*
X100845000Y-96617571D01*
X100961008Y-96897638D01*
X101175362Y-97111992D01*
X101455429Y-97228000D01*
X101758571Y-97228000D01*
X102038638Y-97111992D01*
X102252992Y-96897638D01*
X102369000Y-96617571D01*
X102369000Y-96422421D01*
X102387421Y-96404000D01*
X107596776Y-96404000D01*
X108163608Y-96970832D01*
X108191949Y-97013247D01*
X108359984Y-97125525D01*
X108508164Y-97155000D01*
X108508167Y-97155000D01*
X108558195Y-97164951D01*
X108608223Y-97155000D01*
X109823490Y-97155000D01*
X108553491Y-98425000D01*
X107727968Y-98425000D01*
X107823001Y-98195572D01*
X107823001Y-97892430D01*
X107706993Y-97612363D01*
X107492639Y-97398009D01*
X107212572Y-97282001D01*
X106909430Y-97282001D01*
X106629363Y-97398009D01*
X106491371Y-97536001D01*
X105475329Y-97536001D01*
X105425301Y-97526050D01*
X105375273Y-97536001D01*
X105375269Y-97536001D01*
X105227089Y-97565476D01*
X105059054Y-97677754D01*
X105030713Y-97720169D01*
X103554271Y-99196611D01*
X103511859Y-99224950D01*
X103483520Y-99267362D01*
X103483517Y-99267365D01*
X103399580Y-99392986D01*
X103360154Y-99591197D01*
X103370106Y-99641230D01*
X103370105Y-101176758D01*
X103360154Y-101226786D01*
X103370105Y-101276814D01*
X103370105Y-101276817D01*
X103388860Y-101371103D01*
X103399580Y-101424997D01*
X103469081Y-101529012D01*
X103511858Y-101593033D01*
X103554272Y-101621374D01*
X103983713Y-102050815D01*
X104012052Y-102093227D01*
X104054464Y-102121566D01*
X104054466Y-102121568D01*
X104173550Y-102201137D01*
X104180087Y-102205505D01*
X104328267Y-102234980D01*
X104328270Y-102234980D01*
X104378298Y-102244931D01*
X104428326Y-102234980D01*
X119864779Y-102234980D01*
X120809545Y-103179746D01*
X120777808Y-103211482D01*
X116354112Y-103211482D01*
X116255638Y-103113008D01*
X115975571Y-102997000D01*
X115672429Y-102997000D01*
X115392362Y-103113008D01*
X115178008Y-103327362D01*
X115062000Y-103607429D01*
X115062000Y-103910571D01*
X115178008Y-104190638D01*
X115392362Y-104404992D01*
X115672429Y-104521000D01*
X115975571Y-104521000D01*
X116255638Y-104404992D01*
X116433148Y-104227482D01*
X120777808Y-104227482D01*
X120915800Y-104365474D01*
X121195867Y-104481482D01*
X121499009Y-104481482D01*
X121779076Y-104365474D01*
X121993430Y-104151120D01*
X122109438Y-103871053D01*
X122109438Y-103567911D01*
X122068546Y-103469190D01*
X122087241Y-103465472D01*
X122087245Y-103465472D01*
X122235425Y-103435997D01*
X122403460Y-103323719D01*
X122431801Y-103281304D01*
X123050393Y-102662713D01*
X123052019Y-102666638D01*
X123266373Y-102880992D01*
X123546440Y-102997000D01*
X123849582Y-102997000D01*
X124129649Y-102880992D01*
X124344003Y-102666638D01*
X124460011Y-102386571D01*
X124460011Y-102318409D01*
X125559421Y-101219000D01*
X125754571Y-101219000D01*
X126034638Y-101102992D01*
X126248992Y-100888638D01*
X126365000Y-100608571D01*
X126365000Y-100305429D01*
X126248992Y-100025362D01*
X126034638Y-99811008D01*
X125754571Y-99695000D01*
X125451429Y-99695000D01*
X125171362Y-99811008D01*
X124957008Y-100025362D01*
X124841000Y-100305429D01*
X124841000Y-100500579D01*
X123863015Y-101478564D01*
X123849582Y-101473000D01*
X123546440Y-101473000D01*
X123444001Y-101515432D01*
X123444001Y-99681899D01*
X124319901Y-98805999D01*
X126423817Y-98805999D01*
X126874653Y-99256836D01*
X126902992Y-99299248D01*
X126945404Y-99327587D01*
X126945406Y-99327589D01*
X127043280Y-99392986D01*
X127071027Y-99411526D01*
X127219207Y-99441001D01*
X127219210Y-99441001D01*
X127269238Y-99450952D01*
X127319266Y-99441001D01*
X127950733Y-99441001D01*
X128000761Y-99450952D01*
X128050789Y-99441001D01*
X128050793Y-99441001D01*
X128198973Y-99411526D01*
X128367008Y-99299248D01*
X128395349Y-99256833D01*
X130873313Y-96778870D01*
X130444695Y-97548562D01*
X129427551Y-99061540D01*
X128287389Y-100484077D01*
X127032187Y-101806225D01*
X125670740Y-103018715D01*
X124212626Y-104113015D01*
X122668048Y-105081472D01*
X121047852Y-105917284D01*
X119363390Y-106614595D01*
X117626506Y-107168500D01*
X115849333Y-107575133D01*
X114044398Y-107831624D01*
X112224314Y-107936182D01*
X110401876Y-107888075D01*
X108589828Y-107687636D01*
X106800937Y-107336277D01*
X105047707Y-106836454D01*
X103342456Y-106191682D01*
X101697132Y-105406476D01*
X100123289Y-104486350D01*
X98631956Y-103437753D01*
X97233595Y-102268039D01*
X95938028Y-100985427D01*
X95516902Y-100492141D01*
X97098063Y-100492141D01*
X97098063Y-100795283D01*
X97214071Y-101075350D01*
X97428425Y-101289704D01*
X97708492Y-101405712D01*
X97903642Y-101405712D01*
X97917229Y-101419299D01*
X97917232Y-101419301D01*
X99202373Y-102704443D01*
X99230712Y-102746855D01*
X99273124Y-102775194D01*
X99273126Y-102775196D01*
X99372302Y-102841463D01*
X99398747Y-102859133D01*
X99546927Y-102888608D01*
X99546931Y-102888608D01*
X99596959Y-102898559D01*
X99646987Y-102888608D01*
X100173468Y-102888608D01*
X100311460Y-103026600D01*
X100591527Y-103142608D01*
X100894669Y-103142608D01*
X101174736Y-103026600D01*
X101281914Y-102919423D01*
X101427935Y-103065444D01*
X101708002Y-103181452D01*
X102011144Y-103181452D01*
X102291211Y-103065444D01*
X102505565Y-102851090D01*
X102547993Y-102748661D01*
X103058747Y-103259416D01*
X103087086Y-103301828D01*
X103129498Y-103330167D01*
X103129500Y-103330169D01*
X103207755Y-103382457D01*
X103255121Y-103414106D01*
X103403301Y-103443581D01*
X103403304Y-103443581D01*
X103453332Y-103453532D01*
X103503360Y-103443581D01*
X107890868Y-103443581D01*
X107823000Y-103607429D01*
X107823000Y-103802580D01*
X107819699Y-103805881D01*
X104784964Y-103805881D01*
X104646972Y-103667889D01*
X104366905Y-103551881D01*
X104063763Y-103551881D01*
X103783696Y-103667889D01*
X103569342Y-103882243D01*
X103453334Y-104162310D01*
X103453334Y-104465452D01*
X103569342Y-104745519D01*
X103783696Y-104959873D01*
X104063763Y-105075881D01*
X104366905Y-105075881D01*
X104646972Y-104959873D01*
X104784964Y-104821881D01*
X107980091Y-104821881D01*
X108030119Y-104831832D01*
X108080147Y-104821881D01*
X108080151Y-104821881D01*
X108228331Y-104792406D01*
X108396366Y-104680128D01*
X108424707Y-104637713D01*
X108541420Y-104521000D01*
X108736571Y-104521000D01*
X109016638Y-104404992D01*
X109230992Y-104190638D01*
X109347000Y-103910571D01*
X109347000Y-103607429D01*
X109279132Y-103443581D01*
X110091161Y-103443581D01*
X110730412Y-104082832D01*
X110758753Y-104125247D01*
X110926788Y-104237525D01*
X111074968Y-104267000D01*
X111074971Y-104267000D01*
X111124999Y-104276951D01*
X111175027Y-104267000D01*
X112580485Y-104267000D01*
X112863679Y-104550195D01*
X112892018Y-104592607D01*
X112934430Y-104620946D01*
X112934432Y-104620948D01*
X113023500Y-104680461D01*
X113060053Y-104704885D01*
X113208233Y-104734360D01*
X113208237Y-104734360D01*
X113232221Y-104739131D01*
X113365442Y-104872352D01*
X113645509Y-104988360D01*
X113948651Y-104988360D01*
X114228718Y-104872352D01*
X114443072Y-104657998D01*
X114559080Y-104377931D01*
X114559080Y-104074789D01*
X114443072Y-103794722D01*
X114228718Y-103580368D01*
X113948651Y-103464360D01*
X113645509Y-103464360D01*
X113365442Y-103580368D01*
X113348068Y-103597742D01*
X113185493Y-103435167D01*
X113157152Y-103392753D01*
X112989117Y-103280475D01*
X112840937Y-103251000D01*
X112840933Y-103251000D01*
X112790905Y-103241049D01*
X112740877Y-103251000D01*
X111335420Y-103251000D01*
X110696168Y-102611748D01*
X110667828Y-102569334D01*
X110499793Y-102457056D01*
X110351613Y-102427581D01*
X110351609Y-102427581D01*
X110301581Y-102417630D01*
X110251553Y-102427581D01*
X103663754Y-102427581D01*
X101948716Y-100712544D01*
X101948714Y-100712541D01*
X101173126Y-99936954D01*
X101173126Y-99741803D01*
X101057118Y-99461736D01*
X100842764Y-99247382D01*
X100562697Y-99131374D01*
X100259555Y-99131374D01*
X99979488Y-99247382D01*
X99765134Y-99461736D01*
X99722706Y-99564165D01*
X99464165Y-99305624D01*
X99435824Y-99263209D01*
X99267789Y-99150931D01*
X99119609Y-99121456D01*
X99119605Y-99121456D01*
X99069577Y-99111505D01*
X99019549Y-99121456D01*
X98489393Y-99121456D01*
X98351401Y-98983464D01*
X98071334Y-98867456D01*
X97768192Y-98867456D01*
X97488125Y-98983464D01*
X97273771Y-99197818D01*
X97157763Y-99477885D01*
X97157763Y-99781027D01*
X97273771Y-100061094D01*
X97319411Y-100106734D01*
X97214071Y-100212074D01*
X97098063Y-100492141D01*
X95516902Y-100492141D01*
X94754320Y-99598891D01*
X93690790Y-98118171D01*
X92754897Y-96553658D01*
X91953194Y-94916304D01*
X91291318Y-93217617D01*
X90773905Y-91469505D01*
X90404583Y-89684219D01*
X90185946Y-87874292D01*
X90119526Y-86052423D01*
X90205790Y-84231390D01*
X90444133Y-82423947D01*
X90832879Y-80642805D01*
X91369308Y-78900425D01*
X92049654Y-77209042D01*
X92202000Y-76906296D01*
X92202000Y-76996298D01*
X92202000Y-76996298D01*
G37*
X92202000Y-76996298D02*
X92318008Y-77276365D01*
X92451229Y-77409586D01*
X92485475Y-77581753D01*
X92569412Y-77707374D01*
X92569415Y-77707377D01*
X92597754Y-77749789D01*
X92640166Y-77778128D01*
X94871560Y-80009522D01*
X93880343Y-80009524D01*
X93830311Y-79999572D01*
X93698774Y-80025736D01*
X93628489Y-79856054D01*
X93414135Y-79641700D01*
X93134068Y-79525692D01*
X92830926Y-79525692D01*
X92550859Y-79641700D01*
X92336505Y-79856054D01*
X92220497Y-80136121D01*
X92220497Y-80331272D01*
X91492312Y-81059457D01*
X91449900Y-81087796D01*
X91421561Y-81130208D01*
X91421558Y-81130211D01*
X91337621Y-81255832D01*
X91298195Y-81454043D01*
X91308147Y-81504076D01*
X91308146Y-84139349D01*
X91170154Y-84277341D01*
X91054146Y-84557408D01*
X91054146Y-84860550D01*
X91170154Y-85140617D01*
X91384508Y-85354971D01*
X91664575Y-85470979D01*
X91967717Y-85470979D01*
X92074229Y-85426860D01*
X92074228Y-89350141D01*
X92054572Y-89448960D01*
X92064524Y-89498992D01*
X92064523Y-90551304D01*
X92054572Y-90601332D01*
X92064523Y-90651360D01*
X92064523Y-90651363D01*
X92085930Y-90758981D01*
X92093998Y-90799543D01*
X92172659Y-90917267D01*
X92206276Y-90967579D01*
X92248691Y-90995920D01*
X93218001Y-91965231D01*
X93218000Y-96733201D01*
X93208049Y-96783229D01*
X93218000Y-96833257D01*
X93218000Y-96833260D01*
X93234407Y-96915742D01*
X93247475Y-96981440D01*
X93328226Y-97102292D01*
X93359753Y-97149476D01*
X93402168Y-97177817D01*
X95259021Y-99034671D01*
X95287360Y-99077083D01*
X95329772Y-99105422D01*
X95329774Y-99105424D01*
X95438937Y-99178364D01*
X95455395Y-99189361D01*
X95603575Y-99218836D01*
X95603579Y-99218836D01*
X95653607Y-99228787D01*
X95703635Y-99218836D01*
X96501121Y-99218836D01*
X96551149Y-99228787D01*
X96601177Y-99218836D01*
X96601181Y-99218836D01*
X96749361Y-99189361D01*
X96917396Y-99077083D01*
X96945737Y-99034668D01*
X99740635Y-96239771D01*
X99886312Y-96239771D01*
X99936340Y-96249722D01*
X99986368Y-96239771D01*
X99986372Y-96239771D01*
X100134552Y-96210296D01*
X100302587Y-96098018D01*
X100330928Y-96055603D01*
X101677510Y-94709021D01*
X104222312Y-94709021D01*
X104272340Y-94718972D01*
X104322368Y-94709021D01*
X104322372Y-94709021D01*
X104470552Y-94679546D01*
X104638587Y-94567268D01*
X104666928Y-94524853D01*
X105483254Y-93708527D01*
X105525669Y-93680186D01*
X105557177Y-93633031D01*
X106086992Y-94162846D01*
X106115331Y-94205258D01*
X106157743Y-94233597D01*
X106157745Y-94233599D01*
X106255941Y-94299211D01*
X106283366Y-94317536D01*
X106431546Y-94347011D01*
X106431549Y-94347011D01*
X106481577Y-94356962D01*
X106531605Y-94347011D01*
X108794237Y-94347011D01*
X108844265Y-94356962D01*
X108894293Y-94347011D01*
X108894297Y-94347011D01*
X109042477Y-94317536D01*
X109210512Y-94205258D01*
X109238853Y-94162843D01*
X109546471Y-93855225D01*
X109682336Y-93991090D01*
X109962403Y-94107098D01*
X110157553Y-94107098D01*
X110171140Y-94120685D01*
X110171143Y-94120687D01*
X110713411Y-94662956D01*
X110317025Y-94662956D01*
X110266997Y-94653005D01*
X110216969Y-94662956D01*
X110216965Y-94662956D01*
X110068785Y-94692431D01*
X110031373Y-94717429D01*
X109943164Y-94776368D01*
X109943162Y-94776370D01*
X109900750Y-94804709D01*
X109872411Y-94847121D01*
X109596542Y-95122990D01*
X109401392Y-95122990D01*
X109121325Y-95238998D01*
X108906971Y-95453352D01*
X108790963Y-95733419D01*
X108790963Y-96036561D01*
X108833395Y-96139000D01*
X108768616Y-96139000D01*
X108201784Y-95572168D01*
X108173443Y-95529753D01*
X108005408Y-95417475D01*
X107857228Y-95388000D01*
X107857224Y-95388000D01*
X107807196Y-95378049D01*
X107757168Y-95388000D01*
X102227028Y-95388000D01*
X102177000Y-95378049D01*
X102126972Y-95388000D01*
X102126968Y-95388000D01*
X101978788Y-95417475D01*
X101853167Y-95501412D01*
X101853165Y-95501414D01*
X101810753Y-95529753D01*
X101782414Y-95572165D01*
X101650579Y-95704000D01*
X101455429Y-95704000D01*
X101175362Y-95820008D01*
X100961008Y-96034362D01*
X100845000Y-96314429D01*
X100845000Y-96617571D01*
X100961008Y-96897638D01*
X101175362Y-97111992D01*
X101455429Y-97228000D01*
X101758571Y-97228000D01*
X102038638Y-97111992D01*
X102252992Y-96897638D01*
X102369000Y-96617571D01*
X102369000Y-96422421D01*
X102387421Y-96404000D01*
X107596776Y-96404000D01*
X108163608Y-96970832D01*
X108191949Y-97013247D01*
X108359984Y-97125525D01*
X108508164Y-97155000D01*
X108508167Y-97155000D01*
X108558195Y-97164951D01*
X108608223Y-97155000D01*
X109823490Y-97155000D01*
X108553491Y-98425000D01*
X107727968Y-98425000D01*
X107823001Y-98195572D01*
X107823001Y-97892430D01*
X107706993Y-97612363D01*
X107492639Y-97398009D01*
X107212572Y-97282001D01*
X106909430Y-97282001D01*
X106629363Y-97398009D01*
X106491371Y-97536001D01*
X105475329Y-97536001D01*
X105425301Y-97526050D01*
X105375273Y-97536001D01*
X105375269Y-97536001D01*
X105227089Y-97565476D01*
X105059054Y-97677754D01*
X105030713Y-97720169D01*
X103554271Y-99196611D01*
X103511859Y-99224950D01*
X103483520Y-99267362D01*
X103483517Y-99267365D01*
X103399580Y-99392986D01*
X103360154Y-99591197D01*
X103370106Y-99641230D01*
X103370105Y-101176758D01*
X103360154Y-101226786D01*
X103370105Y-101276814D01*
X103370105Y-101276817D01*
X103388860Y-101371103D01*
X103399580Y-101424997D01*
X103469081Y-101529012D01*
X103511858Y-101593033D01*
X103554272Y-101621374D01*
X103983713Y-102050815D01*
X104012052Y-102093227D01*
X104054464Y-102121566D01*
X104054466Y-102121568D01*
X104173550Y-102201137D01*
X104180087Y-102205505D01*
X104328267Y-102234980D01*
X104328270Y-102234980D01*
X104378298Y-102244931D01*
X104428326Y-102234980D01*
X119864779Y-102234980D01*
X120809545Y-103179746D01*
X120777808Y-103211482D01*
X116354112Y-103211482D01*
X116255638Y-103113008D01*
X115975571Y-102997000D01*
X115672429Y-102997000D01*
X115392362Y-103113008D01*
X115178008Y-103327362D01*
X115062000Y-103607429D01*
X115062000Y-103910571D01*
X115178008Y-104190638D01*
X115392362Y-104404992D01*
X115672429Y-104521000D01*
X115975571Y-104521000D01*
X116255638Y-104404992D01*
X116433148Y-104227482D01*
X120777808Y-104227482D01*
X120915800Y-104365474D01*
X121195867Y-104481482D01*
X121499009Y-104481482D01*
X121779076Y-104365474D01*
X121993430Y-104151120D01*
X122109438Y-103871053D01*
X122109438Y-103567911D01*
X122068546Y-103469190D01*
X122087241Y-103465472D01*
X122087245Y-103465472D01*
X122235425Y-103435997D01*
X122403460Y-103323719D01*
X122431801Y-103281304D01*
X123050393Y-102662713D01*
X123052019Y-102666638D01*
X123266373Y-102880992D01*
X123546440Y-102997000D01*
X123849582Y-102997000D01*
X124129649Y-102880992D01*
X124344003Y-102666638D01*
X124460011Y-102386571D01*
X124460011Y-102318409D01*
X125559421Y-101219000D01*
X125754571Y-101219000D01*
X126034638Y-101102992D01*
X126248992Y-100888638D01*
X126365000Y-100608571D01*
X126365000Y-100305429D01*
X126248992Y-100025362D01*
X126034638Y-99811008D01*
X125754571Y-99695000D01*
X125451429Y-99695000D01*
X125171362Y-99811008D01*
X124957008Y-100025362D01*
X124841000Y-100305429D01*
X124841000Y-100500579D01*
X123863015Y-101478564D01*
X123849582Y-101473000D01*
X123546440Y-101473000D01*
X123444001Y-101515432D01*
X123444001Y-99681899D01*
X124319901Y-98805999D01*
X126423817Y-98805999D01*
X126874653Y-99256836D01*
X126902992Y-99299248D01*
X126945404Y-99327587D01*
X126945406Y-99327589D01*
X127043280Y-99392986D01*
X127071027Y-99411526D01*
X127219207Y-99441001D01*
X127219210Y-99441001D01*
X127269238Y-99450952D01*
X127319266Y-99441001D01*
X127950733Y-99441001D01*
X128000761Y-99450952D01*
X128050789Y-99441001D01*
X128050793Y-99441001D01*
X128198973Y-99411526D01*
X128367008Y-99299248D01*
X128395349Y-99256833D01*
X130873313Y-96778870D01*
X130444695Y-97548562D01*
X129427551Y-99061540D01*
X128287389Y-100484077D01*
X127032187Y-101806225D01*
X125670740Y-103018715D01*
X124212626Y-104113015D01*
X122668048Y-105081472D01*
X121047852Y-105917284D01*
X119363390Y-106614595D01*
X117626506Y-107168500D01*
X115849333Y-107575133D01*
X114044398Y-107831624D01*
X112224314Y-107936182D01*
X110401876Y-107888075D01*
X108589828Y-107687636D01*
X106800937Y-107336277D01*
X105047707Y-106836454D01*
X103342456Y-106191682D01*
X101697132Y-105406476D01*
X100123289Y-104486350D01*
X98631956Y-103437753D01*
X97233595Y-102268039D01*
X95938028Y-100985427D01*
X95516902Y-100492141D01*
X97098063Y-100492141D01*
X97098063Y-100795283D01*
X97214071Y-101075350D01*
X97428425Y-101289704D01*
X97708492Y-101405712D01*
X97903642Y-101405712D01*
X97917229Y-101419299D01*
X97917232Y-101419301D01*
X99202373Y-102704443D01*
X99230712Y-102746855D01*
X99273124Y-102775194D01*
X99273126Y-102775196D01*
X99372302Y-102841463D01*
X99398747Y-102859133D01*
X99546927Y-102888608D01*
X99546931Y-102888608D01*
X99596959Y-102898559D01*
X99646987Y-102888608D01*
X100173468Y-102888608D01*
X100311460Y-103026600D01*
X100591527Y-103142608D01*
X100894669Y-103142608D01*
X101174736Y-103026600D01*
X101281914Y-102919423D01*
X101427935Y-103065444D01*
X101708002Y-103181452D01*
X102011144Y-103181452D01*
X102291211Y-103065444D01*
X102505565Y-102851090D01*
X102547993Y-102748661D01*
X103058747Y-103259416D01*
X103087086Y-103301828D01*
X103129498Y-103330167D01*
X103129500Y-103330169D01*
X103207755Y-103382457D01*
X103255121Y-103414106D01*
X103403301Y-103443581D01*
X103403304Y-103443581D01*
X103453332Y-103453532D01*
X103503360Y-103443581D01*
X107890868Y-103443581D01*
X107823000Y-103607429D01*
X107823000Y-103802580D01*
X107819699Y-103805881D01*
X104784964Y-103805881D01*
X104646972Y-103667889D01*
X104366905Y-103551881D01*
X104063763Y-103551881D01*
X103783696Y-103667889D01*
X103569342Y-103882243D01*
X103453334Y-104162310D01*
X103453334Y-104465452D01*
X103569342Y-104745519D01*
X103783696Y-104959873D01*
X104063763Y-105075881D01*
X104366905Y-105075881D01*
X104646972Y-104959873D01*
X104784964Y-104821881D01*
X107980091Y-104821881D01*
X108030119Y-104831832D01*
X108080147Y-104821881D01*
X108080151Y-104821881D01*
X108228331Y-104792406D01*
X108396366Y-104680128D01*
X108424707Y-104637713D01*
X108541420Y-104521000D01*
X108736571Y-104521000D01*
X109016638Y-104404992D01*
X109230992Y-104190638D01*
X109347000Y-103910571D01*
X109347000Y-103607429D01*
X109279132Y-103443581D01*
X110091161Y-103443581D01*
X110730412Y-104082832D01*
X110758753Y-104125247D01*
X110926788Y-104237525D01*
X111074968Y-104267000D01*
X111074971Y-104267000D01*
X111124999Y-104276951D01*
X111175027Y-104267000D01*
X112580485Y-104267000D01*
X112863679Y-104550195D01*
X112892018Y-104592607D01*
X112934430Y-104620946D01*
X112934432Y-104620948D01*
X113023500Y-104680461D01*
X113060053Y-104704885D01*
X113208233Y-104734360D01*
X113208237Y-104734360D01*
X113232221Y-104739131D01*
X113365442Y-104872352D01*
X113645509Y-104988360D01*
X113948651Y-104988360D01*
X114228718Y-104872352D01*
X114443072Y-104657998D01*
X114559080Y-104377931D01*
X114559080Y-104074789D01*
X114443072Y-103794722D01*
X114228718Y-103580368D01*
X113948651Y-103464360D01*
X113645509Y-103464360D01*
X113365442Y-103580368D01*
X113348068Y-103597742D01*
X113185493Y-103435167D01*
X113157152Y-103392753D01*
X112989117Y-103280475D01*
X112840937Y-103251000D01*
X112840933Y-103251000D01*
X112790905Y-103241049D01*
X112740877Y-103251000D01*
X111335420Y-103251000D01*
X110696168Y-102611748D01*
X110667828Y-102569334D01*
X110499793Y-102457056D01*
X110351613Y-102427581D01*
X110351609Y-102427581D01*
X110301581Y-102417630D01*
X110251553Y-102427581D01*
X103663754Y-102427581D01*
X101948716Y-100712544D01*
X101948714Y-100712541D01*
X101173126Y-99936954D01*
X101173126Y-99741803D01*
X101057118Y-99461736D01*
X100842764Y-99247382D01*
X100562697Y-99131374D01*
X100259555Y-99131374D01*
X99979488Y-99247382D01*
X99765134Y-99461736D01*
X99722706Y-99564165D01*
X99464165Y-99305624D01*
X99435824Y-99263209D01*
X99267789Y-99150931D01*
X99119609Y-99121456D01*
X99119605Y-99121456D01*
X99069577Y-99111505D01*
X99019549Y-99121456D01*
X98489393Y-99121456D01*
X98351401Y-98983464D01*
X98071334Y-98867456D01*
X97768192Y-98867456D01*
X97488125Y-98983464D01*
X97273771Y-99197818D01*
X97157763Y-99477885D01*
X97157763Y-99781027D01*
X97273771Y-100061094D01*
X97319411Y-100106734D01*
X97214071Y-100212074D01*
X97098063Y-100492141D01*
X95516902Y-100492141D01*
X94754320Y-99598891D01*
X93690790Y-98118171D01*
X92754897Y-96553658D01*
X91953194Y-94916304D01*
X91291318Y-93217617D01*
X90773905Y-91469505D01*
X90404583Y-89684219D01*
X90185946Y-87874292D01*
X90119526Y-86052423D01*
X90205790Y-84231390D01*
X90444133Y-82423947D01*
X90832879Y-80642805D01*
X91369308Y-78900425D01*
X92049654Y-77209042D01*
X92202000Y-76906296D01*
X92202000Y-76996298D01*
G36*
X129843495Y-82301915D02*
X129843494Y-84800998D01*
X129741063Y-84758569D01*
X129437921Y-84758569D01*
X129157854Y-84874577D01*
X128943500Y-85088931D01*
X128827492Y-85368998D01*
X128827492Y-85672140D01*
X128943500Y-85952207D01*
X129081492Y-86090199D01*
X129081493Y-87629459D01*
X129071541Y-87679492D01*
X129110967Y-87877703D01*
X129194904Y-88003324D01*
X129194907Y-88003327D01*
X129223246Y-88045739D01*
X129265658Y-88074078D01*
X129921000Y-88729421D01*
X129921000Y-88924571D01*
X130037008Y-89204638D01*
X130251362Y-89418992D01*
X130531429Y-89535000D01*
X130834571Y-89535000D01*
X131114638Y-89418992D01*
X131328992Y-89204638D01*
X131386103Y-89066760D01*
X131733360Y-89414017D01*
X131733359Y-93057066D01*
X131105310Y-94661008D01*
X130667109Y-95548232D01*
X128338103Y-97877239D01*
X128280992Y-97739362D01*
X128143000Y-97601370D01*
X128143000Y-97119011D01*
X128743715Y-96518297D01*
X128938865Y-96518297D01*
X129218932Y-96402289D01*
X129433286Y-96187935D01*
X129549294Y-95907868D01*
X129549294Y-95604726D01*
X129433286Y-95324659D01*
X129218932Y-95110305D01*
X128938865Y-94994297D01*
X128923448Y-94994297D01*
X129262105Y-94655640D01*
X129412330Y-94655640D01*
X129550322Y-94793632D01*
X129830389Y-94909640D01*
X130133531Y-94909640D01*
X130413598Y-94793632D01*
X130627952Y-94579278D01*
X130743960Y-94299211D01*
X130743960Y-93996069D01*
X130627952Y-93716002D01*
X130413598Y-93501648D01*
X130268069Y-93441368D01*
X130296895Y-93371776D01*
X130296895Y-93176626D01*
X130310482Y-93163039D01*
X130310484Y-93163036D01*
X130879832Y-92593688D01*
X130922247Y-92565347D01*
X131034525Y-92397312D01*
X131064000Y-92249132D01*
X131064000Y-92249128D01*
X131073951Y-92199100D01*
X131064000Y-92149072D01*
X131064000Y-91120630D01*
X131201992Y-90982638D01*
X131318000Y-90702571D01*
X131318000Y-90399429D01*
X131201992Y-90119362D01*
X130987638Y-89905008D01*
X130707571Y-89789000D01*
X130404429Y-89789000D01*
X130124362Y-89905008D01*
X129910008Y-90119362D01*
X129794000Y-90399429D01*
X129794000Y-90702571D01*
X129910008Y-90982638D01*
X130048000Y-91120630D01*
X130048001Y-91988679D01*
X129592064Y-92444616D01*
X129592061Y-92444618D01*
X129578474Y-92458205D01*
X129383324Y-92458205D01*
X129103257Y-92574213D01*
X128888903Y-92788567D01*
X128772895Y-93068634D01*
X128772895Y-93371776D01*
X128888903Y-93651843D01*
X128897431Y-93660371D01*
X128868172Y-93666191D01*
X128853472Y-93669115D01*
X128727851Y-93753052D01*
X128727849Y-93753054D01*
X128685437Y-93781393D01*
X128657098Y-93823805D01*
X127905015Y-94575889D01*
X127709864Y-94575889D01*
X127429797Y-94691897D01*
X127215443Y-94906251D01*
X127099435Y-95186318D01*
X127099435Y-95489460D01*
X127215443Y-95769527D01*
X127429797Y-95983881D01*
X127709864Y-96099889D01*
X127725281Y-96099889D01*
X127311166Y-96514005D01*
X127268754Y-96542344D01*
X127240415Y-96584756D01*
X127240412Y-96584759D01*
X127156475Y-96710380D01*
X127117049Y-96908591D01*
X127127001Y-96958623D01*
X127127000Y-97601370D01*
X126989008Y-97739362D01*
X126929080Y-97884041D01*
X126832449Y-97819474D01*
X126684269Y-97789999D01*
X126684265Y-97789999D01*
X126634237Y-97780048D01*
X126584209Y-97789999D01*
X124622560Y-97789999D01*
X124622560Y-95531540D01*
X127024857Y-93129244D01*
X127067269Y-93100905D01*
X127095608Y-93058493D01*
X127095610Y-93058491D01*
X127154022Y-92971070D01*
X127179547Y-92932870D01*
X127209022Y-92784690D01*
X127209022Y-92784686D01*
X127218973Y-92734658D01*
X127209022Y-92684630D01*
X127209022Y-92009630D01*
X127347014Y-91871638D01*
X127463022Y-91591571D01*
X127463022Y-91288429D01*
X127347014Y-91008362D01*
X127132660Y-90794008D01*
X126852593Y-90678000D01*
X126549451Y-90678000D01*
X126269384Y-90794008D01*
X126055030Y-91008362D01*
X125972820Y-91206833D01*
X125954513Y-91114797D01*
X125945239Y-91100917D01*
X125870576Y-90989176D01*
X125870574Y-90989174D01*
X125842235Y-90946762D01*
X125799823Y-90918423D01*
X125108589Y-90227190D01*
X125108587Y-90227187D01*
X125095000Y-90213600D01*
X125095000Y-90018450D01*
X124978992Y-89738383D01*
X124764638Y-89524029D01*
X124484571Y-89408021D01*
X124181429Y-89408021D01*
X123901362Y-89524029D01*
X123687008Y-89738383D01*
X123571000Y-90018450D01*
X123571000Y-90321592D01*
X123687008Y-90601659D01*
X123901362Y-90816013D01*
X124181429Y-90932021D01*
X124376579Y-90932021D01*
X124390166Y-90945608D01*
X124390169Y-90945610D01*
X124967989Y-91523431D01*
X124967989Y-91661384D01*
X124693708Y-91547773D01*
X124505304Y-91547773D01*
X124359350Y-91450249D01*
X124211170Y-91420774D01*
X124211166Y-91420774D01*
X124161138Y-91410823D01*
X124111110Y-91420774D01*
X122415243Y-91420774D01*
X122365215Y-91410823D01*
X122315187Y-91420774D01*
X122315184Y-91420774D01*
X122175636Y-91448532D01*
X122167004Y-91450249D01*
X122041383Y-91534186D01*
X122041381Y-91534188D01*
X121998969Y-91562527D01*
X121995980Y-91567000D01*
X121813419Y-91567000D01*
X121533352Y-91683008D01*
X121318998Y-91897362D01*
X121202990Y-92177429D01*
X121202990Y-92480571D01*
X121318998Y-92760638D01*
X121533352Y-92974992D01*
X121813419Y-93091000D01*
X122116561Y-93091000D01*
X122396628Y-92974992D01*
X122610982Y-92760638D01*
X122726990Y-92480571D01*
X122726990Y-92436774D01*
X122945665Y-92436774D01*
X122843008Y-92539431D01*
X122727000Y-92819498D01*
X122727000Y-93014648D01*
X121857014Y-93884635D01*
X121814599Y-93912976D01*
X121786259Y-93955390D01*
X121786258Y-93955391D01*
X121727915Y-94042708D01*
X121702321Y-94081012D01*
X121672846Y-94229192D01*
X121672846Y-94229195D01*
X121662895Y-94279223D01*
X121672846Y-94329251D01*
X121672847Y-97002224D01*
X121672846Y-97002229D01*
X121672846Y-97021445D01*
X121534854Y-97159437D01*
X121418846Y-97439504D01*
X121418846Y-97672784D01*
X121186829Y-97440767D01*
X121158488Y-97398352D01*
X120990453Y-97286074D01*
X120842273Y-97256599D01*
X120842269Y-97256599D01*
X120792241Y-97246648D01*
X120742213Y-97256599D01*
X119830917Y-97256599D01*
X119780889Y-97246648D01*
X119730861Y-97256599D01*
X119730858Y-97256599D01*
X119582678Y-97286074D01*
X119414643Y-97398352D01*
X119386302Y-97440767D01*
X119155812Y-97671257D01*
X119155809Y-97671259D01*
X119142222Y-97684846D01*
X118947072Y-97684846D01*
X118667005Y-97800854D01*
X118452651Y-98015208D01*
X118336643Y-98295275D01*
X118336643Y-98598417D01*
X118452651Y-98878484D01*
X118667005Y-99092838D01*
X118947072Y-99208846D01*
X119250214Y-99208846D01*
X119530281Y-99092838D01*
X119693444Y-98929675D01*
X119764197Y-99100488D01*
X119978551Y-99314842D01*
X120258618Y-99430850D01*
X120447022Y-99430850D01*
X120467353Y-99444435D01*
X120467355Y-99444437D01*
X120565795Y-99510212D01*
X120592976Y-99528374D01*
X120741156Y-99557849D01*
X120741160Y-99557849D01*
X120791188Y-99567800D01*
X120841216Y-99557849D01*
X122428001Y-99557849D01*
X122428002Y-101848262D01*
X122374555Y-101901710D01*
X122317444Y-101763833D01*
X122103090Y-101549479D01*
X121823023Y-101433471D01*
X121627873Y-101433471D01*
X120073570Y-99879169D01*
X120045229Y-99836754D01*
X119877194Y-99724476D01*
X119729014Y-99695001D01*
X119729010Y-99695001D01*
X119678982Y-99685050D01*
X119628954Y-99695001D01*
X117908606Y-99695001D01*
X117214618Y-99001013D01*
X117231992Y-98983638D01*
X117348000Y-98703571D01*
X117348000Y-98400429D01*
X117231992Y-98120362D01*
X117017638Y-97906008D01*
X116737571Y-97790000D01*
X116434429Y-97790000D01*
X116154362Y-97906008D01*
X115940008Y-98120362D01*
X115824000Y-98400429D01*
X115824000Y-98703571D01*
X115940008Y-98983638D01*
X116073229Y-99116859D01*
X116078000Y-99140843D01*
X116078000Y-99140846D01*
X116101295Y-99257956D01*
X116107475Y-99289026D01*
X116184330Y-99404047D01*
X116219753Y-99457062D01*
X116262168Y-99485403D01*
X117303598Y-100526833D01*
X117331939Y-100569248D01*
X117499974Y-100681526D01*
X117648154Y-100711001D01*
X117648158Y-100711001D01*
X117698186Y-100720952D01*
X117748214Y-100711001D01*
X119468562Y-100711001D01*
X119976541Y-101218980D01*
X116074769Y-101218980D01*
X116075999Y-101212797D01*
X116075999Y-101212793D01*
X116085950Y-101162765D01*
X116075999Y-101112737D01*
X116075999Y-99909622D01*
X116085950Y-99859594D01*
X116075999Y-99809566D01*
X116075999Y-99809562D01*
X116046524Y-99661382D01*
X115934246Y-99493347D01*
X115891831Y-99465006D01*
X115749678Y-99322853D01*
X115749676Y-99322850D01*
X115736089Y-99309263D01*
X115736089Y-99114113D01*
X115620081Y-98834046D01*
X115405727Y-98619692D01*
X115125660Y-98503684D01*
X114822518Y-98503684D01*
X114542451Y-98619692D01*
X114328097Y-98834046D01*
X114212089Y-99114113D01*
X114212089Y-99417255D01*
X114328097Y-99697322D01*
X114542451Y-99911676D01*
X114822518Y-100027684D01*
X115017668Y-100027684D01*
X115031255Y-100041271D01*
X115031258Y-100041273D01*
X115060000Y-100070015D01*
X115059999Y-100710938D01*
X114107692Y-100710938D01*
X114183992Y-100634638D01*
X114300000Y-100354571D01*
X114300000Y-100051429D01*
X114183992Y-99771362D01*
X113969638Y-99557008D01*
X113689571Y-99441000D01*
X113386429Y-99441000D01*
X113106362Y-99557008D01*
X113017691Y-99645679D01*
X112009503Y-98637492D01*
X112009501Y-98637489D01*
X111995914Y-98623902D01*
X111995914Y-98428752D01*
X111879906Y-98148685D01*
X111665552Y-97934331D01*
X111517808Y-97873133D01*
X111600941Y-97790000D01*
X111825370Y-97790000D01*
X111963362Y-97927992D01*
X112243429Y-98044000D01*
X112546571Y-98044000D01*
X112826638Y-97927992D01*
X113040992Y-97713638D01*
X113157000Y-97433571D01*
X113157000Y-97130429D01*
X113101322Y-96996010D01*
X113904483Y-96996010D01*
X113875237Y-97008124D01*
X113660883Y-97222478D01*
X113544875Y-97502545D01*
X113544875Y-97805687D01*
X113660883Y-98085754D01*
X113875237Y-98300108D01*
X114155304Y-98416116D01*
X114458446Y-98416116D01*
X114738513Y-98300108D01*
X114952867Y-98085754D01*
X115068875Y-97805687D01*
X115068875Y-97789989D01*
X117567219Y-97789989D01*
X117617251Y-97799941D01*
X117667283Y-97789989D01*
X117815463Y-97760514D01*
X117983498Y-97648236D01*
X118095776Y-97480201D01*
X118104076Y-97438473D01*
X118125251Y-97332021D01*
X118125251Y-97332020D01*
X118135203Y-97281989D01*
X118125251Y-97231957D01*
X118125251Y-96440646D01*
X118135202Y-96390618D01*
X118125251Y-96340590D01*
X118125251Y-96340586D01*
X118095776Y-96192406D01*
X118059196Y-96137660D01*
X118011839Y-96066785D01*
X118011837Y-96066783D01*
X117983498Y-96024371D01*
X117941086Y-95996032D01*
X117347221Y-95402168D01*
X117318880Y-95359753D01*
X117150845Y-95247475D01*
X117002665Y-95218000D01*
X117002661Y-95218000D01*
X116952633Y-95208049D01*
X116902605Y-95218000D01*
X116123222Y-95218000D01*
X116205000Y-95020571D01*
X116205000Y-94717429D01*
X116088992Y-94437362D01*
X115874638Y-94223008D01*
X115594571Y-94107000D01*
X115291429Y-94107000D01*
X115011362Y-94223008D01*
X114952727Y-94281643D01*
X114952727Y-94257384D01*
X114836719Y-93977317D01*
X114761605Y-93902203D01*
X116681968Y-93902203D01*
X116731996Y-93912154D01*
X116782024Y-93902203D01*
X116782028Y-93902203D01*
X116930208Y-93872728D01*
X117098243Y-93760450D01*
X117126584Y-93718035D01*
X118629047Y-92215574D01*
X118629046Y-93174780D01*
X118491054Y-93312772D01*
X118375046Y-93592839D01*
X118375046Y-93895981D01*
X118491054Y-94176048D01*
X118705408Y-94390402D01*
X118985475Y-94506410D01*
X119288617Y-94506410D01*
X119568684Y-94390402D01*
X119783038Y-94176048D01*
X119899046Y-93895981D01*
X119899046Y-93592839D01*
X119783038Y-93312772D01*
X119645046Y-93174780D01*
X119645046Y-92274374D01*
X120606421Y-91313000D01*
X120801571Y-91313000D01*
X121081638Y-91196992D01*
X121295992Y-90982638D01*
X121318501Y-90928297D01*
X121589628Y-90815992D01*
X121803982Y-90601638D01*
X121919990Y-90321571D01*
X121919990Y-90126420D01*
X122765410Y-89281000D01*
X125575536Y-89281000D01*
X126281713Y-89987178D01*
X126310052Y-90029590D01*
X126352464Y-90057929D01*
X126352466Y-90057931D01*
X126453290Y-90125299D01*
X126478087Y-90141868D01*
X126626267Y-90171343D01*
X126626270Y-90171343D01*
X126676298Y-90181294D01*
X126726326Y-90171343D01*
X127803445Y-90171343D01*
X127853473Y-90181294D01*
X127903501Y-90171343D01*
X127903505Y-90171343D01*
X128051685Y-90141868D01*
X128219720Y-90029590D01*
X128248061Y-89987176D01*
X128593834Y-89641403D01*
X128636246Y-89613064D01*
X128664585Y-89570652D01*
X128664587Y-89570650D01*
X128748524Y-89445029D01*
X128748524Y-89445028D01*
X128777999Y-89296849D01*
X128777999Y-89296845D01*
X128787950Y-89246817D01*
X128777999Y-89196789D01*
X128777999Y-86537027D01*
X128787950Y-86486999D01*
X128777999Y-86436971D01*
X128777999Y-86436967D01*
X128748524Y-86288787D01*
X128737436Y-86272192D01*
X128664587Y-86163166D01*
X128664585Y-86163164D01*
X128651000Y-86142833D01*
X128651000Y-85954429D01*
X128534992Y-85674362D01*
X128320638Y-85460008D01*
X128040571Y-85344000D01*
X127737429Y-85344000D01*
X127457362Y-85460008D01*
X127243008Y-85674362D01*
X127127000Y-85954429D01*
X127127000Y-86257571D01*
X127243008Y-86537638D01*
X127457362Y-86751992D01*
X127737429Y-86868000D01*
X127762000Y-86868000D01*
X127761999Y-88190173D01*
X127639283Y-88139342D01*
X127336141Y-88139342D01*
X127056074Y-88255350D01*
X126918082Y-88393342D01*
X126843155Y-88393342D01*
X126667659Y-88217847D01*
X126805536Y-88160736D01*
X127019890Y-87946382D01*
X127135898Y-87666315D01*
X127135898Y-87363173D01*
X127019890Y-87083106D01*
X126805536Y-86868752D01*
X126525469Y-86752744D01*
X126222327Y-86752744D01*
X125942260Y-86868752D01*
X125727906Y-87083106D01*
X125611898Y-87363173D01*
X125611898Y-87666315D01*
X125649457Y-87756989D01*
X124797431Y-87756989D01*
X128704244Y-83850176D01*
X128849212Y-83821340D01*
X129017247Y-83709062D01*
X129129525Y-83541027D01*
X129163772Y-83368858D01*
X129296992Y-83235638D01*
X129413000Y-82955571D01*
X129413000Y-82652429D01*
X129296992Y-82372362D01*
X129082638Y-82158008D01*
X128802571Y-82042000D01*
X128499429Y-82042000D01*
X128219362Y-82158008D01*
X128143000Y-82234370D01*
X128143000Y-81014382D01*
X128152951Y-80964354D01*
X128143000Y-80914326D01*
X128143000Y-80914322D01*
X128113525Y-80766142D01*
X128001247Y-80598107D01*
X127958832Y-80569766D01*
X127441549Y-80052483D01*
X127441547Y-80052480D01*
X127427960Y-80038893D01*
X127427960Y-79886380D01*
X129843495Y-82301915D01*
X129843495Y-82301915D01*
G37*
X129843495Y-82301915D02*
X129843494Y-84800998D01*
X129741063Y-84758569D01*
X129437921Y-84758569D01*
X129157854Y-84874577D01*
X128943500Y-85088931D01*
X128827492Y-85368998D01*
X128827492Y-85672140D01*
X128943500Y-85952207D01*
X129081492Y-86090199D01*
X129081493Y-87629459D01*
X129071541Y-87679492D01*
X129110967Y-87877703D01*
X129194904Y-88003324D01*
X129194907Y-88003327D01*
X129223246Y-88045739D01*
X129265658Y-88074078D01*
X129921000Y-88729421D01*
X129921000Y-88924571D01*
X130037008Y-89204638D01*
X130251362Y-89418992D01*
X130531429Y-89535000D01*
X130834571Y-89535000D01*
X131114638Y-89418992D01*
X131328992Y-89204638D01*
X131386103Y-89066760D01*
X131733360Y-89414017D01*
X131733359Y-93057066D01*
X131105310Y-94661008D01*
X130667109Y-95548232D01*
X128338103Y-97877239D01*
X128280992Y-97739362D01*
X128143000Y-97601370D01*
X128143000Y-97119011D01*
X128743715Y-96518297D01*
X128938865Y-96518297D01*
X129218932Y-96402289D01*
X129433286Y-96187935D01*
X129549294Y-95907868D01*
X129549294Y-95604726D01*
X129433286Y-95324659D01*
X129218932Y-95110305D01*
X128938865Y-94994297D01*
X128923448Y-94994297D01*
X129262105Y-94655640D01*
X129412330Y-94655640D01*
X129550322Y-94793632D01*
X129830389Y-94909640D01*
X130133531Y-94909640D01*
X130413598Y-94793632D01*
X130627952Y-94579278D01*
X130743960Y-94299211D01*
X130743960Y-93996069D01*
X130627952Y-93716002D01*
X130413598Y-93501648D01*
X130268069Y-93441368D01*
X130296895Y-93371776D01*
X130296895Y-93176626D01*
X130310482Y-93163039D01*
X130310484Y-93163036D01*
X130879832Y-92593688D01*
X130922247Y-92565347D01*
X131034525Y-92397312D01*
X131064000Y-92249132D01*
X131064000Y-92249128D01*
X131073951Y-92199100D01*
X131064000Y-92149072D01*
X131064000Y-91120630D01*
X131201992Y-90982638D01*
X131318000Y-90702571D01*
X131318000Y-90399429D01*
X131201992Y-90119362D01*
X130987638Y-89905008D01*
X130707571Y-89789000D01*
X130404429Y-89789000D01*
X130124362Y-89905008D01*
X129910008Y-90119362D01*
X129794000Y-90399429D01*
X129794000Y-90702571D01*
X129910008Y-90982638D01*
X130048000Y-91120630D01*
X130048001Y-91988679D01*
X129592064Y-92444616D01*
X129592061Y-92444618D01*
X129578474Y-92458205D01*
X129383324Y-92458205D01*
X129103257Y-92574213D01*
X128888903Y-92788567D01*
X128772895Y-93068634D01*
X128772895Y-93371776D01*
X128888903Y-93651843D01*
X128897431Y-93660371D01*
X128868172Y-93666191D01*
X128853472Y-93669115D01*
X128727851Y-93753052D01*
X128727849Y-93753054D01*
X128685437Y-93781393D01*
X128657098Y-93823805D01*
X127905015Y-94575889D01*
X127709864Y-94575889D01*
X127429797Y-94691897D01*
X127215443Y-94906251D01*
X127099435Y-95186318D01*
X127099435Y-95489460D01*
X127215443Y-95769527D01*
X127429797Y-95983881D01*
X127709864Y-96099889D01*
X127725281Y-96099889D01*
X127311166Y-96514005D01*
X127268754Y-96542344D01*
X127240415Y-96584756D01*
X127240412Y-96584759D01*
X127156475Y-96710380D01*
X127117049Y-96908591D01*
X127127001Y-96958623D01*
X127127000Y-97601370D01*
X126989008Y-97739362D01*
X126929080Y-97884041D01*
X126832449Y-97819474D01*
X126684269Y-97789999D01*
X126684265Y-97789999D01*
X126634237Y-97780048D01*
X126584209Y-97789999D01*
X124622560Y-97789999D01*
X124622560Y-95531540D01*
X127024857Y-93129244D01*
X127067269Y-93100905D01*
X127095608Y-93058493D01*
X127095610Y-93058491D01*
X127154022Y-92971070D01*
X127179547Y-92932870D01*
X127209022Y-92784690D01*
X127209022Y-92784686D01*
X127218973Y-92734658D01*
X127209022Y-92684630D01*
X127209022Y-92009630D01*
X127347014Y-91871638D01*
X127463022Y-91591571D01*
X127463022Y-91288429D01*
X127347014Y-91008362D01*
X127132660Y-90794008D01*
X126852593Y-90678000D01*
X126549451Y-90678000D01*
X126269384Y-90794008D01*
X126055030Y-91008362D01*
X125972820Y-91206833D01*
X125954513Y-91114797D01*
X125945239Y-91100917D01*
X125870576Y-90989176D01*
X125870574Y-90989174D01*
X125842235Y-90946762D01*
X125799823Y-90918423D01*
X125108589Y-90227190D01*
X125108587Y-90227187D01*
X125095000Y-90213600D01*
X125095000Y-90018450D01*
X124978992Y-89738383D01*
X124764638Y-89524029D01*
X124484571Y-89408021D01*
X124181429Y-89408021D01*
X123901362Y-89524029D01*
X123687008Y-89738383D01*
X123571000Y-90018450D01*
X123571000Y-90321592D01*
X123687008Y-90601659D01*
X123901362Y-90816013D01*
X124181429Y-90932021D01*
X124376579Y-90932021D01*
X124390166Y-90945608D01*
X124390169Y-90945610D01*
X124967989Y-91523431D01*
X124967989Y-91661384D01*
X124693708Y-91547773D01*
X124505304Y-91547773D01*
X124359350Y-91450249D01*
X124211170Y-91420774D01*
X124211166Y-91420774D01*
X124161138Y-91410823D01*
X124111110Y-91420774D01*
X122415243Y-91420774D01*
X122365215Y-91410823D01*
X122315187Y-91420774D01*
X122315184Y-91420774D01*
X122175636Y-91448532D01*
X122167004Y-91450249D01*
X122041383Y-91534186D01*
X122041381Y-91534188D01*
X121998969Y-91562527D01*
X121995980Y-91567000D01*
X121813419Y-91567000D01*
X121533352Y-91683008D01*
X121318998Y-91897362D01*
X121202990Y-92177429D01*
X121202990Y-92480571D01*
X121318998Y-92760638D01*
X121533352Y-92974992D01*
X121813419Y-93091000D01*
X122116561Y-93091000D01*
X122396628Y-92974992D01*
X122610982Y-92760638D01*
X122726990Y-92480571D01*
X122726990Y-92436774D01*
X122945665Y-92436774D01*
X122843008Y-92539431D01*
X122727000Y-92819498D01*
X122727000Y-93014648D01*
X121857014Y-93884635D01*
X121814599Y-93912976D01*
X121786259Y-93955390D01*
X121786258Y-93955391D01*
X121727915Y-94042708D01*
X121702321Y-94081012D01*
X121672846Y-94229192D01*
X121672846Y-94229195D01*
X121662895Y-94279223D01*
X121672846Y-94329251D01*
X121672847Y-97002224D01*
X121672846Y-97002229D01*
X121672846Y-97021445D01*
X121534854Y-97159437D01*
X121418846Y-97439504D01*
X121418846Y-97672784D01*
X121186829Y-97440767D01*
X121158488Y-97398352D01*
X120990453Y-97286074D01*
X120842273Y-97256599D01*
X120842269Y-97256599D01*
X120792241Y-97246648D01*
X120742213Y-97256599D01*
X119830917Y-97256599D01*
X119780889Y-97246648D01*
X119730861Y-97256599D01*
X119730858Y-97256599D01*
X119582678Y-97286074D01*
X119414643Y-97398352D01*
X119386302Y-97440767D01*
X119155812Y-97671257D01*
X119155809Y-97671259D01*
X119142222Y-97684846D01*
X118947072Y-97684846D01*
X118667005Y-97800854D01*
X118452651Y-98015208D01*
X118336643Y-98295275D01*
X118336643Y-98598417D01*
X118452651Y-98878484D01*
X118667005Y-99092838D01*
X118947072Y-99208846D01*
X119250214Y-99208846D01*
X119530281Y-99092838D01*
X119693444Y-98929675D01*
X119764197Y-99100488D01*
X119978551Y-99314842D01*
X120258618Y-99430850D01*
X120447022Y-99430850D01*
X120467353Y-99444435D01*
X120467355Y-99444437D01*
X120565795Y-99510212D01*
X120592976Y-99528374D01*
X120741156Y-99557849D01*
X120741160Y-99557849D01*
X120791188Y-99567800D01*
X120841216Y-99557849D01*
X122428001Y-99557849D01*
X122428002Y-101848262D01*
X122374555Y-101901710D01*
X122317444Y-101763833D01*
X122103090Y-101549479D01*
X121823023Y-101433471D01*
X121627873Y-101433471D01*
X120073570Y-99879169D01*
X120045229Y-99836754D01*
X119877194Y-99724476D01*
X119729014Y-99695001D01*
X119729010Y-99695001D01*
X119678982Y-99685050D01*
X119628954Y-99695001D01*
X117908606Y-99695001D01*
X117214618Y-99001013D01*
X117231992Y-98983638D01*
X117348000Y-98703571D01*
X117348000Y-98400429D01*
X117231992Y-98120362D01*
X117017638Y-97906008D01*
X116737571Y-97790000D01*
X116434429Y-97790000D01*
X116154362Y-97906008D01*
X115940008Y-98120362D01*
X115824000Y-98400429D01*
X115824000Y-98703571D01*
X115940008Y-98983638D01*
X116073229Y-99116859D01*
X116078000Y-99140843D01*
X116078000Y-99140846D01*
X116101295Y-99257956D01*
X116107475Y-99289026D01*
X116184330Y-99404047D01*
X116219753Y-99457062D01*
X116262168Y-99485403D01*
X117303598Y-100526833D01*
X117331939Y-100569248D01*
X117499974Y-100681526D01*
X117648154Y-100711001D01*
X117648158Y-100711001D01*
X117698186Y-100720952D01*
X117748214Y-100711001D01*
X119468562Y-100711001D01*
X119976541Y-101218980D01*
X116074769Y-101218980D01*
X116075999Y-101212797D01*
X116075999Y-101212793D01*
X116085950Y-101162765D01*
X116075999Y-101112737D01*
X116075999Y-99909622D01*
X116085950Y-99859594D01*
X116075999Y-99809566D01*
X116075999Y-99809562D01*
X116046524Y-99661382D01*
X115934246Y-99493347D01*
X115891831Y-99465006D01*
X115749678Y-99322853D01*
X115749676Y-99322850D01*
X115736089Y-99309263D01*
X115736089Y-99114113D01*
X115620081Y-98834046D01*
X115405727Y-98619692D01*
X115125660Y-98503684D01*
X114822518Y-98503684D01*
X114542451Y-98619692D01*
X114328097Y-98834046D01*
X114212089Y-99114113D01*
X114212089Y-99417255D01*
X114328097Y-99697322D01*
X114542451Y-99911676D01*
X114822518Y-100027684D01*
X115017668Y-100027684D01*
X115031255Y-100041271D01*
X115031258Y-100041273D01*
X115060000Y-100070015D01*
X115059999Y-100710938D01*
X114107692Y-100710938D01*
X114183992Y-100634638D01*
X114300000Y-100354571D01*
X114300000Y-100051429D01*
X114183992Y-99771362D01*
X113969638Y-99557008D01*
X113689571Y-99441000D01*
X113386429Y-99441000D01*
X113106362Y-99557008D01*
X113017691Y-99645679D01*
X112009503Y-98637492D01*
X112009501Y-98637489D01*
X111995914Y-98623902D01*
X111995914Y-98428752D01*
X111879906Y-98148685D01*
X111665552Y-97934331D01*
X111517808Y-97873133D01*
X111600941Y-97790000D01*
X111825370Y-97790000D01*
X111963362Y-97927992D01*
X112243429Y-98044000D01*
X112546571Y-98044000D01*
X112826638Y-97927992D01*
X113040992Y-97713638D01*
X113157000Y-97433571D01*
X113157000Y-97130429D01*
X113101322Y-96996010D01*
X113904483Y-96996010D01*
X113875237Y-97008124D01*
X113660883Y-97222478D01*
X113544875Y-97502545D01*
X113544875Y-97805687D01*
X113660883Y-98085754D01*
X113875237Y-98300108D01*
X114155304Y-98416116D01*
X114458446Y-98416116D01*
X114738513Y-98300108D01*
X114952867Y-98085754D01*
X115068875Y-97805687D01*
X115068875Y-97789989D01*
X117567219Y-97789989D01*
X117617251Y-97799941D01*
X117667283Y-97789989D01*
X117815463Y-97760514D01*
X117983498Y-97648236D01*
X118095776Y-97480201D01*
X118104076Y-97438473D01*
X118125251Y-97332021D01*
X118125251Y-97332020D01*
X118135203Y-97281989D01*
X118125251Y-97231957D01*
X118125251Y-96440646D01*
X118135202Y-96390618D01*
X118125251Y-96340590D01*
X118125251Y-96340586D01*
X118095776Y-96192406D01*
X118059196Y-96137660D01*
X118011839Y-96066785D01*
X118011837Y-96066783D01*
X117983498Y-96024371D01*
X117941086Y-95996032D01*
X117347221Y-95402168D01*
X117318880Y-95359753D01*
X117150845Y-95247475D01*
X117002665Y-95218000D01*
X117002661Y-95218000D01*
X116952633Y-95208049D01*
X116902605Y-95218000D01*
X116123222Y-95218000D01*
X116205000Y-95020571D01*
X116205000Y-94717429D01*
X116088992Y-94437362D01*
X115874638Y-94223008D01*
X115594571Y-94107000D01*
X115291429Y-94107000D01*
X115011362Y-94223008D01*
X114952727Y-94281643D01*
X114952727Y-94257384D01*
X114836719Y-93977317D01*
X114761605Y-93902203D01*
X116681968Y-93902203D01*
X116731996Y-93912154D01*
X116782024Y-93902203D01*
X116782028Y-93902203D01*
X116930208Y-93872728D01*
X117098243Y-93760450D01*
X117126584Y-93718035D01*
X118629047Y-92215574D01*
X118629046Y-93174780D01*
X118491054Y-93312772D01*
X118375046Y-93592839D01*
X118375046Y-93895981D01*
X118491054Y-94176048D01*
X118705408Y-94390402D01*
X118985475Y-94506410D01*
X119288617Y-94506410D01*
X119568684Y-94390402D01*
X119783038Y-94176048D01*
X119899046Y-93895981D01*
X119899046Y-93592839D01*
X119783038Y-93312772D01*
X119645046Y-93174780D01*
X119645046Y-92274374D01*
X120606421Y-91313000D01*
X120801571Y-91313000D01*
X121081638Y-91196992D01*
X121295992Y-90982638D01*
X121318501Y-90928297D01*
X121589628Y-90815992D01*
X121803982Y-90601638D01*
X121919990Y-90321571D01*
X121919990Y-90126420D01*
X122765410Y-89281000D01*
X125575536Y-89281000D01*
X126281713Y-89987178D01*
X126310052Y-90029590D01*
X126352464Y-90057929D01*
X126352466Y-90057931D01*
X126453290Y-90125299D01*
X126478087Y-90141868D01*
X126626267Y-90171343D01*
X126626270Y-90171343D01*
X126676298Y-90181294D01*
X126726326Y-90171343D01*
X127803445Y-90171343D01*
X127853473Y-90181294D01*
X127903501Y-90171343D01*
X127903505Y-90171343D01*
X128051685Y-90141868D01*
X128219720Y-90029590D01*
X128248061Y-89987176D01*
X128593834Y-89641403D01*
X128636246Y-89613064D01*
X128664585Y-89570652D01*
X128664587Y-89570650D01*
X128748524Y-89445029D01*
X128748524Y-89445028D01*
X128777999Y-89296849D01*
X128777999Y-89296845D01*
X128787950Y-89246817D01*
X128777999Y-89196789D01*
X128777999Y-86537027D01*
X128787950Y-86486999D01*
X128777999Y-86436971D01*
X128777999Y-86436967D01*
X128748524Y-86288787D01*
X128737436Y-86272192D01*
X128664587Y-86163166D01*
X128664585Y-86163164D01*
X128651000Y-86142833D01*
X128651000Y-85954429D01*
X128534992Y-85674362D01*
X128320638Y-85460008D01*
X128040571Y-85344000D01*
X127737429Y-85344000D01*
X127457362Y-85460008D01*
X127243008Y-85674362D01*
X127127000Y-85954429D01*
X127127000Y-86257571D01*
X127243008Y-86537638D01*
X127457362Y-86751992D01*
X127737429Y-86868000D01*
X127762000Y-86868000D01*
X127761999Y-88190173D01*
X127639283Y-88139342D01*
X127336141Y-88139342D01*
X127056074Y-88255350D01*
X126918082Y-88393342D01*
X126843155Y-88393342D01*
X126667659Y-88217847D01*
X126805536Y-88160736D01*
X127019890Y-87946382D01*
X127135898Y-87666315D01*
X127135898Y-87363173D01*
X127019890Y-87083106D01*
X126805536Y-86868752D01*
X126525469Y-86752744D01*
X126222327Y-86752744D01*
X125942260Y-86868752D01*
X125727906Y-87083106D01*
X125611898Y-87363173D01*
X125611898Y-87666315D01*
X125649457Y-87756989D01*
X124797431Y-87756989D01*
X128704244Y-83850176D01*
X128849212Y-83821340D01*
X129017247Y-83709062D01*
X129129525Y-83541027D01*
X129163772Y-83368858D01*
X129296992Y-83235638D01*
X129413000Y-82955571D01*
X129413000Y-82652429D01*
X129296992Y-82372362D01*
X129082638Y-82158008D01*
X128802571Y-82042000D01*
X128499429Y-82042000D01*
X128219362Y-82158008D01*
X128143000Y-82234370D01*
X128143000Y-81014382D01*
X128152951Y-80964354D01*
X128143000Y-80914326D01*
X128143000Y-80914322D01*
X128113525Y-80766142D01*
X128001247Y-80598107D01*
X127958832Y-80569766D01*
X127441549Y-80052483D01*
X127441547Y-80052480D01*
X127427960Y-80038893D01*
X127427960Y-79886380D01*
X129843495Y-82301915D01*
G36*
X103987590Y-84401247D02*
X103987591Y-85491749D01*
X103987590Y-85491754D01*
X103987590Y-85510970D01*
X103849598Y-85648962D01*
X103733590Y-85929029D01*
X103733590Y-86232171D01*
X103849598Y-86512238D01*
X104063952Y-86726592D01*
X104344019Y-86842600D01*
X104574742Y-86842600D01*
X104324167Y-87093175D01*
X104281752Y-87121516D01*
X104253412Y-87163930D01*
X104253411Y-87163931D01*
X104198448Y-87246189D01*
X104169474Y-87289552D01*
X104139999Y-87437732D01*
X104139999Y-87437735D01*
X104130048Y-87487763D01*
X104139999Y-87537791D01*
X104139999Y-88311488D01*
X104068548Y-88281892D01*
X103765406Y-88281892D01*
X103485339Y-88397900D01*
X103270985Y-88612254D01*
X103154977Y-88892321D01*
X103154977Y-89195463D01*
X103270985Y-89475530D01*
X103485339Y-89689884D01*
X103765406Y-89805892D01*
X103960556Y-89805892D01*
X103974143Y-89819479D01*
X103974146Y-89819481D01*
X104013498Y-89858833D01*
X104041839Y-89901248D01*
X104209874Y-90013526D01*
X104358054Y-90043001D01*
X104358057Y-90043001D01*
X104408085Y-90052952D01*
X104440986Y-90046408D01*
X104507408Y-90112829D01*
X104535750Y-90155246D01*
X104703785Y-90267524D01*
X104851965Y-90296999D01*
X104851968Y-90296999D01*
X104901996Y-90306950D01*
X104952024Y-90296999D01*
X105549766Y-90296999D01*
X104835590Y-91011175D01*
X104793175Y-91039516D01*
X104764835Y-91081930D01*
X104764834Y-91081931D01*
X104704391Y-91172390D01*
X104680897Y-91207552D01*
X104651422Y-91355732D01*
X104651422Y-91355735D01*
X104641471Y-91405763D01*
X104651422Y-91455791D01*
X104651423Y-93103518D01*
X104614685Y-93140256D01*
X104559647Y-93007382D01*
X104345293Y-92793028D01*
X104065226Y-92677020D01*
X103870076Y-92677020D01*
X103325223Y-92132168D01*
X103296882Y-92089753D01*
X103128847Y-91977475D01*
X102980667Y-91948000D01*
X102980663Y-91948000D01*
X102930635Y-91938049D01*
X102880607Y-91948000D01*
X101071270Y-91948000D01*
X101032492Y-91854381D01*
X100818138Y-91640027D01*
X100538071Y-91524019D01*
X100234929Y-91524019D01*
X99954862Y-91640027D01*
X99872800Y-91722089D01*
X99872800Y-90027266D01*
X99882751Y-89977238D01*
X99872800Y-89927210D01*
X99872800Y-89927206D01*
X99860948Y-89867620D01*
X100935501Y-90942174D01*
X100963840Y-90984586D01*
X101006252Y-91012925D01*
X101006254Y-91012927D01*
X101111276Y-91083100D01*
X101131875Y-91096864D01*
X101280055Y-91126339D01*
X101280059Y-91126339D01*
X101330087Y-91136290D01*
X101380115Y-91126339D01*
X103064121Y-91126339D01*
X103202113Y-91264331D01*
X103482180Y-91380339D01*
X103785322Y-91380339D01*
X104065389Y-91264331D01*
X104279743Y-91049977D01*
X104395751Y-90769910D01*
X104395751Y-90466768D01*
X104279743Y-90186701D01*
X104065389Y-89972347D01*
X103785322Y-89856339D01*
X103482180Y-89856339D01*
X103202113Y-89972347D01*
X103064121Y-90110339D01*
X101540508Y-90110339D01*
X99492392Y-88062224D01*
X99492390Y-88062221D01*
X99478803Y-88048634D01*
X99478803Y-87853484D01*
X99362795Y-87573417D01*
X99148441Y-87359063D01*
X98868374Y-87243055D01*
X98565232Y-87243055D01*
X98285165Y-87359063D01*
X98070811Y-87573417D01*
X98031120Y-87669239D01*
X97927416Y-87626283D01*
X97858192Y-87626283D01*
X98238286Y-87246189D01*
X98433437Y-87246189D01*
X98713504Y-87130181D01*
X98927858Y-86915827D01*
X99043866Y-86635760D01*
X99043866Y-86332618D01*
X98927858Y-86052551D01*
X98713504Y-85838197D01*
X98433437Y-85722189D01*
X98130295Y-85722189D01*
X97850228Y-85838197D01*
X97635874Y-86052551D01*
X97519866Y-86332618D01*
X97519866Y-86527769D01*
X97221061Y-86826574D01*
X97221061Y-86629650D01*
X97105053Y-86349583D01*
X97022640Y-86267170D01*
X97139565Y-86189043D01*
X97327969Y-86189043D01*
X97608036Y-86073035D01*
X97822390Y-85858681D01*
X97938398Y-85578614D01*
X97938398Y-85275472D01*
X97822390Y-84995405D01*
X97608036Y-84781051D01*
X97486112Y-84730548D01*
X97723561Y-84493100D01*
X99027380Y-84493100D01*
X102120700Y-87586421D01*
X102120701Y-88340744D01*
X101932880Y-88340744D01*
X101652813Y-88456752D01*
X101438459Y-88671106D01*
X101322451Y-88951173D01*
X101322451Y-89254315D01*
X101438459Y-89534382D01*
X101652813Y-89748736D01*
X101932880Y-89864744D01*
X102236022Y-89864744D01*
X102516089Y-89748736D01*
X102730443Y-89534382D01*
X102846451Y-89254315D01*
X102846451Y-89059164D01*
X102952532Y-88953083D01*
X102994947Y-88924742D01*
X103107225Y-88756707D01*
X103136700Y-88608527D01*
X103136700Y-88608524D01*
X103146651Y-88558496D01*
X103136700Y-88508468D01*
X103136700Y-87426028D01*
X103146651Y-87376000D01*
X103136700Y-87325972D01*
X103136700Y-87325968D01*
X103107225Y-87177788D01*
X103092342Y-87155514D01*
X103023288Y-87052167D01*
X103023286Y-87052165D01*
X102994947Y-87009753D01*
X102952536Y-86981415D01*
X99939163Y-83968043D01*
X101595857Y-83968043D01*
X101645885Y-83977994D01*
X101691994Y-83968823D01*
X101731267Y-83985090D01*
X102034409Y-83985090D01*
X102314476Y-83869082D01*
X102528830Y-83654728D01*
X102644838Y-83374661D01*
X102644838Y-83071519D01*
X102635628Y-83049285D01*
X103987590Y-84401247D01*
X103987590Y-84401247D01*
G37*
X103987590Y-84401247D02*
X103987591Y-85491749D01*
X103987590Y-85491754D01*
X103987590Y-85510970D01*
X103849598Y-85648962D01*
X103733590Y-85929029D01*
X103733590Y-86232171D01*
X103849598Y-86512238D01*
X104063952Y-86726592D01*
X104344019Y-86842600D01*
X104574742Y-86842600D01*
X104324167Y-87093175D01*
X104281752Y-87121516D01*
X104253412Y-87163930D01*
X104253411Y-87163931D01*
X104198448Y-87246189D01*
X104169474Y-87289552D01*
X104139999Y-87437732D01*
X104139999Y-87437735D01*
X104130048Y-87487763D01*
X104139999Y-87537791D01*
X104139999Y-88311488D01*
X104068548Y-88281892D01*
X103765406Y-88281892D01*
X103485339Y-88397900D01*
X103270985Y-88612254D01*
X103154977Y-88892321D01*
X103154977Y-89195463D01*
X103270985Y-89475530D01*
X103485339Y-89689884D01*
X103765406Y-89805892D01*
X103960556Y-89805892D01*
X103974143Y-89819479D01*
X103974146Y-89819481D01*
X104013498Y-89858833D01*
X104041839Y-89901248D01*
X104209874Y-90013526D01*
X104358054Y-90043001D01*
X104358057Y-90043001D01*
X104408085Y-90052952D01*
X104440986Y-90046408D01*
X104507408Y-90112829D01*
X104535750Y-90155246D01*
X104703785Y-90267524D01*
X104851965Y-90296999D01*
X104851968Y-90296999D01*
X104901996Y-90306950D01*
X104952024Y-90296999D01*
X105549766Y-90296999D01*
X104835590Y-91011175D01*
X104793175Y-91039516D01*
X104764835Y-91081930D01*
X104764834Y-91081931D01*
X104704391Y-91172390D01*
X104680897Y-91207552D01*
X104651422Y-91355732D01*
X104651422Y-91355735D01*
X104641471Y-91405763D01*
X104651422Y-91455791D01*
X104651423Y-93103518D01*
X104614685Y-93140256D01*
X104559647Y-93007382D01*
X104345293Y-92793028D01*
X104065226Y-92677020D01*
X103870076Y-92677020D01*
X103325223Y-92132168D01*
X103296882Y-92089753D01*
X103128847Y-91977475D01*
X102980667Y-91948000D01*
X102980663Y-91948000D01*
X102930635Y-91938049D01*
X102880607Y-91948000D01*
X101071270Y-91948000D01*
X101032492Y-91854381D01*
X100818138Y-91640027D01*
X100538071Y-91524019D01*
X100234929Y-91524019D01*
X99954862Y-91640027D01*
X99872800Y-91722089D01*
X99872800Y-90027266D01*
X99882751Y-89977238D01*
X99872800Y-89927210D01*
X99872800Y-89927206D01*
X99860948Y-89867620D01*
X100935501Y-90942174D01*
X100963840Y-90984586D01*
X101006252Y-91012925D01*
X101006254Y-91012927D01*
X101111276Y-91083100D01*
X101131875Y-91096864D01*
X101280055Y-91126339D01*
X101280059Y-91126339D01*
X101330087Y-91136290D01*
X101380115Y-91126339D01*
X103064121Y-91126339D01*
X103202113Y-91264331D01*
X103482180Y-91380339D01*
X103785322Y-91380339D01*
X104065389Y-91264331D01*
X104279743Y-91049977D01*
X104395751Y-90769910D01*
X104395751Y-90466768D01*
X104279743Y-90186701D01*
X104065389Y-89972347D01*
X103785322Y-89856339D01*
X103482180Y-89856339D01*
X103202113Y-89972347D01*
X103064121Y-90110339D01*
X101540508Y-90110339D01*
X99492392Y-88062224D01*
X99492390Y-88062221D01*
X99478803Y-88048634D01*
X99478803Y-87853484D01*
X99362795Y-87573417D01*
X99148441Y-87359063D01*
X98868374Y-87243055D01*
X98565232Y-87243055D01*
X98285165Y-87359063D01*
X98070811Y-87573417D01*
X98031120Y-87669239D01*
X97927416Y-87626283D01*
X97858192Y-87626283D01*
X98238286Y-87246189D01*
X98433437Y-87246189D01*
X98713504Y-87130181D01*
X98927858Y-86915827D01*
X99043866Y-86635760D01*
X99043866Y-86332618D01*
X98927858Y-86052551D01*
X98713504Y-85838197D01*
X98433437Y-85722189D01*
X98130295Y-85722189D01*
X97850228Y-85838197D01*
X97635874Y-86052551D01*
X97519866Y-86332618D01*
X97519866Y-86527769D01*
X97221061Y-86826574D01*
X97221061Y-86629650D01*
X97105053Y-86349583D01*
X97022640Y-86267170D01*
X97139565Y-86189043D01*
X97327969Y-86189043D01*
X97608036Y-86073035D01*
X97822390Y-85858681D01*
X97938398Y-85578614D01*
X97938398Y-85275472D01*
X97822390Y-84995405D01*
X97608036Y-84781051D01*
X97486112Y-84730548D01*
X97723561Y-84493100D01*
X99027380Y-84493100D01*
X102120700Y-87586421D01*
X102120701Y-88340744D01*
X101932880Y-88340744D01*
X101652813Y-88456752D01*
X101438459Y-88671106D01*
X101322451Y-88951173D01*
X101322451Y-89254315D01*
X101438459Y-89534382D01*
X101652813Y-89748736D01*
X101932880Y-89864744D01*
X102236022Y-89864744D01*
X102516089Y-89748736D01*
X102730443Y-89534382D01*
X102846451Y-89254315D01*
X102846451Y-89059164D01*
X102952532Y-88953083D01*
X102994947Y-88924742D01*
X103107225Y-88756707D01*
X103136700Y-88608527D01*
X103136700Y-88608524D01*
X103146651Y-88558496D01*
X103136700Y-88508468D01*
X103136700Y-87426028D01*
X103146651Y-87376000D01*
X103136700Y-87325972D01*
X103136700Y-87325968D01*
X103107225Y-87177788D01*
X103092342Y-87155514D01*
X103023288Y-87052167D01*
X103023286Y-87052165D01*
X102994947Y-87009753D01*
X102952536Y-86981415D01*
X99939163Y-83968043D01*
X101595857Y-83968043D01*
X101645885Y-83977994D01*
X101691994Y-83968823D01*
X101731267Y-83985090D01*
X102034409Y-83985090D01*
X102314476Y-83869082D01*
X102528830Y-83654728D01*
X102644838Y-83374661D01*
X102644838Y-83071519D01*
X102635628Y-83049285D01*
X103987590Y-84401247D01*
G36*
X118264231Y-64424398D02*
X118273701Y-64468061D01*
X118284663Y-64497556D01*
X118295278Y-64527222D01*
X118296617Y-64529720D01*
X118567525Y-65027883D01*
X118586335Y-65053130D01*
X118604839Y-65078609D01*
X118606825Y-65080631D01*
X119006661Y-65482736D01*
X119031777Y-65501670D01*
X119056712Y-65520951D01*
X119059186Y-65522334D01*
X119555808Y-65796056D01*
X119557083Y-65796538D01*
X119567872Y-65802253D01*
X119576728Y-65806254D01*
X121262422Y-66525685D01*
X122873428Y-67379105D01*
X124407359Y-68364328D01*
X125853479Y-69474461D01*
X127201627Y-70701704D01*
X128442351Y-72037447D01*
X129566955Y-73472333D01*
X130567541Y-74996281D01*
X130622510Y-75097573D01*
X130611620Y-75093062D01*
X130308478Y-75093062D01*
X130028411Y-75209070D01*
X129814057Y-75423424D01*
X129698049Y-75703491D01*
X129698049Y-76006633D01*
X129814057Y-76286700D01*
X130028411Y-76501054D01*
X130308478Y-76617062D01*
X130611620Y-76617062D01*
X130891687Y-76501054D01*
X131106041Y-76286700D01*
X131176074Y-76117625D01*
X131437107Y-76598630D01*
X132169533Y-78268101D01*
X132759700Y-79993027D01*
X133203456Y-81761273D01*
X133497691Y-83560444D01*
X133640345Y-85377942D01*
X133639296Y-85570577D01*
X133398893Y-85470999D01*
X133203742Y-85470999D01*
X133140064Y-85407321D01*
X133111723Y-85364906D01*
X132943688Y-85252628D01*
X132795508Y-85223153D01*
X132795504Y-85223153D01*
X132745476Y-85213202D01*
X132695448Y-85223153D01*
X131742763Y-85223153D01*
X131604771Y-85085161D01*
X131324704Y-84969153D01*
X131021562Y-84969153D01*
X130859494Y-85036284D01*
X130859494Y-82261562D01*
X130975759Y-82309721D01*
X131278901Y-82309721D01*
X131558968Y-82193713D01*
X131773322Y-81979359D01*
X131889330Y-81699292D01*
X131889330Y-81396150D01*
X131773322Y-81116083D01*
X131558968Y-80901729D01*
X131278901Y-80785721D01*
X131083751Y-80785721D01*
X130810000Y-80511971D01*
X130810000Y-79436630D01*
X130947992Y-79298638D01*
X131064000Y-79018571D01*
X131064000Y-78715429D01*
X130947992Y-78435362D01*
X130733638Y-78221008D01*
X130453571Y-78105000D01*
X130150429Y-78105000D01*
X129870362Y-78221008D01*
X129656008Y-78435362D01*
X129540000Y-78715429D01*
X129540000Y-79018571D01*
X129656008Y-79298638D01*
X129794000Y-79436630D01*
X129794000Y-79455846D01*
X129794001Y-79455851D01*
X129794000Y-80672363D01*
X129784049Y-80722391D01*
X129794000Y-80772419D01*
X129794000Y-80772422D01*
X129804716Y-80826296D01*
X128607420Y-79629000D01*
X128802571Y-79629000D01*
X129082638Y-79512992D01*
X129296992Y-79298638D01*
X129413000Y-79018571D01*
X129413000Y-78715429D01*
X129296992Y-78435362D01*
X129082638Y-78221008D01*
X128802571Y-78105000D01*
X128499429Y-78105000D01*
X128484501Y-78111183D01*
X128308597Y-77935279D01*
X128028530Y-77819271D01*
X127725388Y-77819271D01*
X127445321Y-77935279D01*
X127230967Y-78149633D01*
X127157243Y-78327617D01*
X127050638Y-78221012D01*
X126770571Y-78105004D01*
X126467429Y-78105004D01*
X126187362Y-78221012D01*
X125973008Y-78435366D01*
X125857000Y-78715433D01*
X125857000Y-79018575D01*
X125973008Y-79298642D01*
X126129005Y-79454639D01*
X126019968Y-79563676D01*
X125903960Y-79843743D01*
X125903960Y-80146885D01*
X126019968Y-80426952D01*
X126234322Y-80641306D01*
X126514389Y-80757314D01*
X126709539Y-80757314D01*
X126723126Y-80770901D01*
X126723129Y-80770903D01*
X127127001Y-81174775D01*
X127127000Y-83272143D01*
X125911265Y-84487879D01*
X125867217Y-84381538D01*
X125729225Y-84243546D01*
X125729225Y-83404982D01*
X125739176Y-83354954D01*
X125729225Y-83304926D01*
X125729225Y-83304923D01*
X125699750Y-83156743D01*
X125656108Y-83091428D01*
X125615813Y-83031122D01*
X125615811Y-83031120D01*
X125587472Y-82988708D01*
X125545060Y-82960369D01*
X125154077Y-82569387D01*
X125154075Y-82569384D01*
X125140488Y-82555797D01*
X125140488Y-82360647D01*
X125024480Y-82080580D01*
X124810126Y-81866226D01*
X124530059Y-81750218D01*
X124226917Y-81750218D01*
X123946850Y-81866226D01*
X123732496Y-82080580D01*
X123616488Y-82360647D01*
X123616488Y-82663789D01*
X123732496Y-82943856D01*
X123946850Y-83158210D01*
X124226917Y-83274218D01*
X124422067Y-83274218D01*
X124435654Y-83287805D01*
X124435657Y-83287807D01*
X124713226Y-83565376D01*
X124713225Y-84243546D01*
X124692885Y-84263887D01*
X124637611Y-84208613D01*
X124357544Y-84092605D01*
X124162394Y-84092605D01*
X121912786Y-81842998D01*
X121912786Y-81386244D01*
X122050778Y-81248252D01*
X122166786Y-80968185D01*
X122166786Y-80665043D01*
X122050778Y-80384976D01*
X121836424Y-80170622D01*
X121556357Y-80054614D01*
X121253215Y-80054614D01*
X120973148Y-80170622D01*
X120758794Y-80384976D01*
X120642786Y-80665043D01*
X120642786Y-80968185D01*
X120758794Y-81248252D01*
X120896786Y-81386244D01*
X120896786Y-81405460D01*
X120896787Y-81405464D01*
X120896786Y-82003390D01*
X120886835Y-82053418D01*
X120896786Y-82103446D01*
X120896786Y-82103449D01*
X120920814Y-82224246D01*
X120926261Y-82251629D01*
X121009048Y-82375528D01*
X121038539Y-82419665D01*
X121080954Y-82448006D01*
X123443973Y-84811026D01*
X123443973Y-85006176D01*
X123559981Y-85286243D01*
X123693202Y-85419464D01*
X123727448Y-85591631D01*
X123811385Y-85717252D01*
X123811388Y-85717255D01*
X123839727Y-85759667D01*
X123882139Y-85788006D01*
X123993142Y-85899009D01*
X124021483Y-85941424D01*
X124189518Y-86053702D01*
X124337698Y-86083177D01*
X124337701Y-86083177D01*
X124387729Y-86093128D01*
X124437757Y-86083177D01*
X125034403Y-86083177D01*
X123868601Y-87248979D01*
X121223274Y-87248979D01*
X121173246Y-87239028D01*
X121123218Y-87248979D01*
X121123215Y-87248979D01*
X120975035Y-87278454D01*
X120849414Y-87362391D01*
X120849412Y-87362393D01*
X120807000Y-87390732D01*
X120778661Y-87433144D01*
X120072154Y-88139652D01*
X120029742Y-88167991D01*
X120001403Y-88210403D01*
X120001400Y-88210406D01*
X119917463Y-88336027D01*
X119878037Y-88534238D01*
X119887989Y-88584270D01*
X119887988Y-89436354D01*
X118294181Y-91030161D01*
X118251771Y-91058498D01*
X118223430Y-91100912D01*
X118223425Y-91100917D01*
X118175654Y-91172412D01*
X118139491Y-91226532D01*
X118139491Y-91226534D01*
X118139488Y-91226538D01*
X118129121Y-91278659D01*
X117170200Y-92237579D01*
X117170200Y-87925102D01*
X120402268Y-84693035D01*
X120444679Y-84664697D01*
X120473018Y-84622285D01*
X120473020Y-84622283D01*
X120534165Y-84530772D01*
X120556957Y-84496662D01*
X120586432Y-84348482D01*
X120586432Y-84348478D01*
X120596383Y-84298450D01*
X120586432Y-84248422D01*
X120586432Y-83279615D01*
X120724424Y-83141623D01*
X120840432Y-82861556D01*
X120840432Y-82558414D01*
X120724424Y-82278347D01*
X120510070Y-82063993D01*
X120230003Y-81947985D01*
X119926861Y-81947985D01*
X119646794Y-82063993D01*
X119432440Y-82278347D01*
X119316432Y-82558414D01*
X119316432Y-82861556D01*
X119432440Y-83141623D01*
X119570432Y-83279615D01*
X119570432Y-83298831D01*
X119570433Y-83298836D01*
X119570432Y-84088029D01*
X117812766Y-85845695D01*
X117713876Y-85606953D01*
X117466047Y-85359124D01*
X117142242Y-85225000D01*
X116791758Y-85225000D01*
X116467953Y-85359124D01*
X116233847Y-85593230D01*
X116209865Y-85598000D01*
X116209862Y-85598000D01*
X116072843Y-85625255D01*
X116061682Y-85627475D01*
X115936061Y-85711412D01*
X115936059Y-85711414D01*
X115893647Y-85739753D01*
X115865308Y-85782165D01*
X115266824Y-86380649D01*
X115308000Y-86281242D01*
X115308000Y-85930758D01*
X115173876Y-85606953D01*
X114926047Y-85359124D01*
X114602242Y-85225000D01*
X114251758Y-85225000D01*
X113927953Y-85359124D01*
X113680124Y-85606953D01*
X113546000Y-85930758D01*
X113546000Y-86268580D01*
X113173528Y-86641052D01*
X113131113Y-86669393D01*
X113102773Y-86711807D01*
X113102772Y-86711808D01*
X113075420Y-86752744D01*
X113018835Y-86837429D01*
X112989360Y-86985609D01*
X112989360Y-86985612D01*
X112979409Y-87035640D01*
X112989360Y-87085668D01*
X112989361Y-89080738D01*
X112340445Y-89729655D01*
X112317152Y-89706362D01*
X112037085Y-89590354D01*
X111733943Y-89590354D01*
X111453876Y-89706362D01*
X111239522Y-89920716D01*
X111123514Y-90200783D01*
X111123514Y-90503925D01*
X111143000Y-90550969D01*
X110617013Y-90550968D01*
X110617013Y-90053737D01*
X110626964Y-90003709D01*
X110617013Y-89953679D01*
X110617013Y-89953678D01*
X110587538Y-89805498D01*
X110567449Y-89775433D01*
X110503601Y-89679877D01*
X110503599Y-89679875D01*
X110475260Y-89637463D01*
X110432849Y-89609125D01*
X109164732Y-88341009D01*
X109136392Y-88298595D01*
X109087205Y-88265729D01*
X109097812Y-88261335D01*
X109312166Y-88046981D01*
X109428174Y-87766914D01*
X109428174Y-87571764D01*
X109441761Y-87558177D01*
X109441763Y-87558173D01*
X109670830Y-87329106D01*
X109713247Y-87300764D01*
X109825525Y-87132729D01*
X109855000Y-86984549D01*
X109855000Y-86984546D01*
X109864951Y-86934518D01*
X109857311Y-86896104D01*
X111276501Y-86896104D01*
X111313648Y-87111217D01*
X111741972Y-87254112D01*
X112192375Y-87222217D01*
X112460352Y-87111217D01*
X112497499Y-86896104D01*
X111887000Y-86285605D01*
X111276501Y-86896104D01*
X109857311Y-86896104D01*
X109855000Y-86884490D01*
X109855000Y-86843923D01*
X110093876Y-86605047D01*
X110228000Y-86281242D01*
X110228000Y-85960972D01*
X110738888Y-85960972D01*
X110770783Y-86411375D01*
X110881783Y-86679352D01*
X111096896Y-86716499D01*
X111707395Y-86106000D01*
X112066605Y-86106000D01*
X112677104Y-86716499D01*
X112892217Y-86679352D01*
X113035112Y-86251028D01*
X113003217Y-85800625D01*
X112892217Y-85532648D01*
X112677104Y-85495501D01*
X112066605Y-86106000D01*
X111707395Y-86106000D01*
X111096896Y-85495501D01*
X110881783Y-85532648D01*
X110738888Y-85960972D01*
X110228000Y-85960972D01*
X110228000Y-85930758D01*
X110093876Y-85606953D01*
X109846047Y-85359124D01*
X109741686Y-85315896D01*
X111276501Y-85315896D01*
X111887000Y-85926395D01*
X112497499Y-85315896D01*
X112460352Y-85100783D01*
X112032028Y-84957888D01*
X111581625Y-84989783D01*
X111313648Y-85100783D01*
X111276501Y-85315896D01*
X109741686Y-85315896D01*
X109522242Y-85225000D01*
X109171758Y-85225000D01*
X108847953Y-85359124D01*
X108600124Y-85606953D01*
X108466000Y-85930758D01*
X108466000Y-86281242D01*
X108600124Y-86605047D01*
X108779087Y-86784010D01*
X108723344Y-86839754D01*
X108723340Y-86839756D01*
X108709753Y-86853343D01*
X108514603Y-86853343D01*
X108234536Y-86969351D01*
X108020182Y-87183705D01*
X107904174Y-87463772D01*
X107904174Y-87485518D01*
X107315000Y-86896344D01*
X107315000Y-86843923D01*
X107553876Y-86605047D01*
X107688000Y-86281242D01*
X107688000Y-85930758D01*
X107553876Y-85606953D01*
X107306047Y-85359124D01*
X106982242Y-85225000D01*
X106631758Y-85225000D01*
X106307953Y-85359124D01*
X106060124Y-85606953D01*
X105926000Y-85930758D01*
X105926000Y-86281242D01*
X106060124Y-86605047D01*
X106299001Y-86843924D01*
X106299001Y-87056732D01*
X106289049Y-87106764D01*
X106328475Y-87304975D01*
X106412412Y-87430596D01*
X106412415Y-87430599D01*
X106440754Y-87473011D01*
X106483166Y-87501350D01*
X107668484Y-88686669D01*
X107629983Y-88694327D01*
X107461948Y-88806605D01*
X107433607Y-88849020D01*
X107128628Y-89153999D01*
X106237266Y-89153999D01*
X106187238Y-89144048D01*
X106137210Y-89153999D01*
X106137207Y-89153999D01*
X105989027Y-89183474D01*
X105843071Y-89280999D01*
X105155999Y-89280999D01*
X105155999Y-87698183D01*
X105581435Y-87272748D01*
X105623847Y-87244409D01*
X105652186Y-87201997D01*
X105652188Y-87201995D01*
X105736125Y-87076374D01*
X105744129Y-87036133D01*
X105765600Y-86928194D01*
X105765600Y-86928191D01*
X105775551Y-86878163D01*
X105765600Y-86828135D01*
X105765600Y-84284428D01*
X105775551Y-84234400D01*
X105765600Y-84184372D01*
X105765600Y-84184368D01*
X105736125Y-84036188D01*
X105718902Y-84010412D01*
X105652188Y-83910567D01*
X105652186Y-83910565D01*
X105623847Y-83868153D01*
X105581436Y-83839815D01*
X102743012Y-81001392D01*
X102743012Y-79941044D01*
X102752963Y-79891016D01*
X102743012Y-79840988D01*
X102743012Y-79840984D01*
X102713537Y-79692804D01*
X102629600Y-79567183D01*
X102629598Y-79567181D01*
X102601259Y-79524769D01*
X102558847Y-79496431D01*
X101736483Y-78674067D01*
X101712776Y-78554883D01*
X101696978Y-78531240D01*
X101628839Y-78429262D01*
X101628837Y-78429260D01*
X101600498Y-78386848D01*
X101558086Y-78358510D01*
X100931040Y-77731464D01*
X101601000Y-77731464D01*
X101749659Y-77701894D01*
X101875686Y-77617686D01*
X101959894Y-77491659D01*
X101989464Y-77343000D01*
X101989464Y-75088750D01*
X109336000Y-75088750D01*
X109336000Y-76909310D01*
X109432673Y-77142699D01*
X109611302Y-77321327D01*
X109844691Y-77418000D01*
X111665250Y-77418000D01*
X111824000Y-77259250D01*
X111824000Y-74930000D01*
X112078000Y-74930000D01*
X112078000Y-77259250D01*
X112236750Y-77418000D01*
X114057309Y-77418000D01*
X114290698Y-77321327D01*
X114469327Y-77142699D01*
X114566000Y-76909310D01*
X114566000Y-75088750D01*
X114407250Y-74930000D01*
X112078000Y-74930000D01*
X111824000Y-74930000D01*
X109494750Y-74930000D01*
X109336000Y-75088750D01*
X101989464Y-75088750D01*
X101989464Y-72696690D01*
X109336000Y-72696690D01*
X109336000Y-74517250D01*
X109494750Y-74676000D01*
X111824000Y-74676000D01*
X111824000Y-72346750D01*
X112078000Y-72346750D01*
X112078000Y-74676000D01*
X114407250Y-74676000D01*
X114566000Y-74517250D01*
X114566000Y-72696690D01*
X114469327Y-72463301D01*
X114290698Y-72284673D01*
X114238375Y-72263000D01*
X121912536Y-72263000D01*
X121912536Y-77343000D01*
X121942106Y-77491659D01*
X122026314Y-77617686D01*
X122152341Y-77701894D01*
X122301000Y-77731464D01*
X123571000Y-77731464D01*
X123719659Y-77701894D01*
X123845686Y-77617686D01*
X123929894Y-77491659D01*
X123959464Y-77343000D01*
X123959464Y-76142094D01*
X124028362Y-76210992D01*
X124308429Y-76327000D01*
X124503579Y-76327000D01*
X124586996Y-76410417D01*
X124586997Y-80564149D01*
X124586996Y-80564154D01*
X124586996Y-80583370D01*
X124449004Y-80721362D01*
X124332996Y-81001429D01*
X124332996Y-81304571D01*
X124449004Y-81584638D01*
X124663358Y-81798992D01*
X124943425Y-81915000D01*
X125246567Y-81915000D01*
X125526634Y-81798992D01*
X125740988Y-81584638D01*
X125856996Y-81304571D01*
X125856996Y-81001429D01*
X125740988Y-80721362D01*
X125602996Y-80583370D01*
X125602996Y-76250024D01*
X125612947Y-76199996D01*
X125602996Y-76149968D01*
X125602996Y-76149964D01*
X125573521Y-76001784D01*
X125570083Y-75996638D01*
X125489584Y-75876163D01*
X125489582Y-75876161D01*
X125461243Y-75833749D01*
X125418831Y-75805410D01*
X125222000Y-75608579D01*
X125222000Y-75413429D01*
X125105992Y-75133362D01*
X124891638Y-74919008D01*
X124611571Y-74803000D01*
X124352930Y-74803000D01*
X124987775Y-74168155D01*
X125060373Y-74343422D01*
X125274727Y-74557776D01*
X125554794Y-74673784D01*
X125857936Y-74673784D01*
X126138003Y-74557776D01*
X126155378Y-74540402D01*
X126565060Y-74950084D01*
X126516573Y-74930000D01*
X126213431Y-74930000D01*
X125933364Y-75046008D01*
X125719010Y-75260362D01*
X125603002Y-75540429D01*
X125603002Y-75843571D01*
X125719010Y-76123638D01*
X125933364Y-76337992D01*
X126213431Y-76454000D01*
X126408582Y-76454000D01*
X127421693Y-77467111D01*
X127450034Y-77509526D01*
X127618069Y-77621804D01*
X127766249Y-77651279D01*
X127766252Y-77651279D01*
X127816280Y-77661230D01*
X127866308Y-77651279D01*
X128658455Y-77651279D01*
X128708483Y-77661230D01*
X128758511Y-77651279D01*
X128758515Y-77651279D01*
X128906695Y-77621804D01*
X129074730Y-77509526D01*
X129102575Y-77467853D01*
X129144247Y-77440009D01*
X129256525Y-77271974D01*
X129286000Y-77123794D01*
X129286000Y-77123790D01*
X129295951Y-77073762D01*
X129286000Y-77023734D01*
X129286000Y-73428017D01*
X129295951Y-73377989D01*
X129286000Y-73327961D01*
X129286000Y-73327958D01*
X129256525Y-73179778D01*
X129226821Y-73135323D01*
X129172588Y-73054157D01*
X129172586Y-73054155D01*
X129144247Y-73011743D01*
X129101835Y-72983404D01*
X127295479Y-71177049D01*
X127267138Y-71134634D01*
X127099103Y-71022356D01*
X126950923Y-70992881D01*
X126950919Y-70992881D01*
X126900891Y-70982930D01*
X126850863Y-70992881D01*
X124295710Y-70992881D01*
X124157718Y-70854889D01*
X123877651Y-70738881D01*
X123574509Y-70738881D01*
X123294442Y-70854889D01*
X123080088Y-71069243D01*
X122964080Y-71349310D01*
X122964080Y-71652452D01*
X123056071Y-71874536D01*
X122301000Y-71874536D01*
X122152341Y-71904106D01*
X122026314Y-71988314D01*
X121942106Y-72114341D01*
X121912536Y-72263000D01*
X114238375Y-72263000D01*
X114057309Y-72188000D01*
X112236750Y-72188000D01*
X112078000Y-72346750D01*
X111824000Y-72346750D01*
X111665250Y-72188000D01*
X109844691Y-72188000D01*
X109611302Y-72284673D01*
X109432673Y-72463301D01*
X109336000Y-72696690D01*
X101989464Y-72696690D01*
X101989464Y-72263000D01*
X101959894Y-72114341D01*
X101875686Y-71988314D01*
X101749659Y-71904106D01*
X101601000Y-71874536D01*
X100331000Y-71874536D01*
X100182341Y-71904106D01*
X100056314Y-71988314D01*
X99972106Y-72114341D01*
X99942536Y-72263000D01*
X99942536Y-74022000D01*
X99416893Y-74022000D01*
X98889199Y-73494306D01*
X98889199Y-73202073D01*
X98843884Y-72974260D01*
X98671268Y-72715922D01*
X98412929Y-72543306D01*
X98159301Y-72492856D01*
X100021067Y-70631090D01*
X100216217Y-70631090D01*
X100496284Y-70515082D01*
X100710638Y-70300728D01*
X100826646Y-70020661D01*
X100826646Y-69717519D01*
X100710638Y-69437452D01*
X100496284Y-69223098D01*
X100216217Y-69107090D01*
X99913075Y-69107090D01*
X99633008Y-69223098D01*
X99418654Y-69437452D01*
X99302646Y-69717519D01*
X99302646Y-69912669D01*
X96450168Y-72765148D01*
X96407753Y-72793489D01*
X96379413Y-72835903D01*
X96379412Y-72835904D01*
X96336942Y-72899465D01*
X96295475Y-72961525D01*
X96266000Y-73109705D01*
X96266000Y-73109708D01*
X96256049Y-73159736D01*
X96266000Y-73209764D01*
X96266001Y-75098407D01*
X96256049Y-75148440D01*
X96295475Y-75346651D01*
X96379412Y-75472272D01*
X96379415Y-75472275D01*
X96407754Y-75514687D01*
X96450166Y-75543026D01*
X99154685Y-78247545D01*
X99104891Y-78226920D01*
X98801749Y-78226920D01*
X98521682Y-78342928D01*
X98307328Y-78557282D01*
X98191320Y-78837349D01*
X98191320Y-79140491D01*
X98307328Y-79420558D01*
X98521682Y-79634912D01*
X98673208Y-79697676D01*
X98673207Y-79943302D01*
X98535215Y-80081294D01*
X98419207Y-80361361D01*
X98419207Y-80625978D01*
X96924856Y-80625978D01*
X94890803Y-78591925D01*
X95120019Y-78496980D01*
X95258011Y-78358988D01*
X96382167Y-78358988D01*
X96641908Y-78618730D01*
X96641908Y-78813880D01*
X96757916Y-79093947D01*
X96972270Y-79308301D01*
X97252337Y-79424309D01*
X97555479Y-79424309D01*
X97835546Y-79308301D01*
X98049900Y-79093947D01*
X98165908Y-78813880D01*
X98165908Y-78510738D01*
X98049900Y-78230671D01*
X97835546Y-78016317D01*
X97555479Y-77900309D01*
X97360329Y-77900309D01*
X96987175Y-77527155D01*
X96958834Y-77484741D01*
X96790799Y-77372463D01*
X96642619Y-77342988D01*
X96642615Y-77342988D01*
X96592587Y-77333037D01*
X96542559Y-77342988D01*
X95258011Y-77342988D01*
X95120019Y-77204996D01*
X94839952Y-77088988D01*
X94536810Y-77088988D01*
X94256743Y-77204996D01*
X94042389Y-77419350D01*
X93947444Y-77648566D01*
X93592618Y-77293740D01*
X93609992Y-77276365D01*
X93726000Y-76996298D01*
X93726000Y-76693156D01*
X93609992Y-76413089D01*
X93395638Y-76198735D01*
X93115571Y-76082727D01*
X92812429Y-76082727D01*
X92564819Y-76185291D01*
X92869142Y-75580530D01*
X93822030Y-74026297D01*
X94710397Y-72817467D01*
X94710397Y-73037845D01*
X94826405Y-73317912D01*
X95040759Y-73532266D01*
X95320826Y-73648274D01*
X95623968Y-73648274D01*
X95904035Y-73532266D01*
X96118389Y-73317912D01*
X96234397Y-73037845D01*
X96234397Y-72734703D01*
X96118389Y-72454636D01*
X95904035Y-72240282D01*
X95623968Y-72124274D01*
X95320826Y-72124274D01*
X95256104Y-72151083D01*
X96100362Y-71183705D01*
X97409838Y-69915271D01*
X98820851Y-68760868D01*
X100323519Y-67728580D01*
X101907298Y-66825652D01*
X103563861Y-66057127D01*
X104191048Y-65808806D01*
X104224777Y-65795695D01*
X104238880Y-65787752D01*
X104253990Y-65781929D01*
X104256454Y-65780530D01*
X104747924Y-65497659D01*
X104772723Y-65478233D01*
X104797733Y-65459130D01*
X104799706Y-65457096D01*
X105192028Y-65047655D01*
X105210347Y-65022094D01*
X105229022Y-64996695D01*
X105230345Y-64994189D01*
X105491982Y-64491094D01*
X105502405Y-64461375D01*
X105513186Y-64431798D01*
X105513752Y-64429021D01*
X105519623Y-64399307D01*
X111458276Y-64309641D01*
X118264231Y-64424398D01*
X118264231Y-64424398D01*
G37*
X118264231Y-64424398D02*
X118273701Y-64468061D01*
X118284663Y-64497556D01*
X118295278Y-64527222D01*
X118296617Y-64529720D01*
X118567525Y-65027883D01*
X118586335Y-65053130D01*
X118604839Y-65078609D01*
X118606825Y-65080631D01*
X119006661Y-65482736D01*
X119031777Y-65501670D01*
X119056712Y-65520951D01*
X119059186Y-65522334D01*
X119555808Y-65796056D01*
X119557083Y-65796538D01*
X119567872Y-65802253D01*
X119576728Y-65806254D01*
X121262422Y-66525685D01*
X122873428Y-67379105D01*
X124407359Y-68364328D01*
X125853479Y-69474461D01*
X127201627Y-70701704D01*
X128442351Y-72037447D01*
X129566955Y-73472333D01*
X130567541Y-74996281D01*
X130622510Y-75097573D01*
X130611620Y-75093062D01*
X130308478Y-75093062D01*
X130028411Y-75209070D01*
X129814057Y-75423424D01*
X129698049Y-75703491D01*
X129698049Y-76006633D01*
X129814057Y-76286700D01*
X130028411Y-76501054D01*
X130308478Y-76617062D01*
X130611620Y-76617062D01*
X130891687Y-76501054D01*
X131106041Y-76286700D01*
X131176074Y-76117625D01*
X131437107Y-76598630D01*
X132169533Y-78268101D01*
X132759700Y-79993027D01*
X133203456Y-81761273D01*
X133497691Y-83560444D01*
X133640345Y-85377942D01*
X133639296Y-85570577D01*
X133398893Y-85470999D01*
X133203742Y-85470999D01*
X133140064Y-85407321D01*
X133111723Y-85364906D01*
X132943688Y-85252628D01*
X132795508Y-85223153D01*
X132795504Y-85223153D01*
X132745476Y-85213202D01*
X132695448Y-85223153D01*
X131742763Y-85223153D01*
X131604771Y-85085161D01*
X131324704Y-84969153D01*
X131021562Y-84969153D01*
X130859494Y-85036284D01*
X130859494Y-82261562D01*
X130975759Y-82309721D01*
X131278901Y-82309721D01*
X131558968Y-82193713D01*
X131773322Y-81979359D01*
X131889330Y-81699292D01*
X131889330Y-81396150D01*
X131773322Y-81116083D01*
X131558968Y-80901729D01*
X131278901Y-80785721D01*
X131083751Y-80785721D01*
X130810000Y-80511971D01*
X130810000Y-79436630D01*
X130947992Y-79298638D01*
X131064000Y-79018571D01*
X131064000Y-78715429D01*
X130947992Y-78435362D01*
X130733638Y-78221008D01*
X130453571Y-78105000D01*
X130150429Y-78105000D01*
X129870362Y-78221008D01*
X129656008Y-78435362D01*
X129540000Y-78715429D01*
X129540000Y-79018571D01*
X129656008Y-79298638D01*
X129794000Y-79436630D01*
X129794000Y-79455846D01*
X129794001Y-79455851D01*
X129794000Y-80672363D01*
X129784049Y-80722391D01*
X129794000Y-80772419D01*
X129794000Y-80772422D01*
X129804716Y-80826296D01*
X128607420Y-79629000D01*
X128802571Y-79629000D01*
X129082638Y-79512992D01*
X129296992Y-79298638D01*
X129413000Y-79018571D01*
X129413000Y-78715429D01*
X129296992Y-78435362D01*
X129082638Y-78221008D01*
X128802571Y-78105000D01*
X128499429Y-78105000D01*
X128484501Y-78111183D01*
X128308597Y-77935279D01*
X128028530Y-77819271D01*
X127725388Y-77819271D01*
X127445321Y-77935279D01*
X127230967Y-78149633D01*
X127157243Y-78327617D01*
X127050638Y-78221012D01*
X126770571Y-78105004D01*
X126467429Y-78105004D01*
X126187362Y-78221012D01*
X125973008Y-78435366D01*
X125857000Y-78715433D01*
X125857000Y-79018575D01*
X125973008Y-79298642D01*
X126129005Y-79454639D01*
X126019968Y-79563676D01*
X125903960Y-79843743D01*
X125903960Y-80146885D01*
X126019968Y-80426952D01*
X126234322Y-80641306D01*
X126514389Y-80757314D01*
X126709539Y-80757314D01*
X126723126Y-80770901D01*
X126723129Y-80770903D01*
X127127001Y-81174775D01*
X127127000Y-83272143D01*
X125911265Y-84487879D01*
X125867217Y-84381538D01*
X125729225Y-84243546D01*
X125729225Y-83404982D01*
X125739176Y-83354954D01*
X125729225Y-83304926D01*
X125729225Y-83304923D01*
X125699750Y-83156743D01*
X125656108Y-83091428D01*
X125615813Y-83031122D01*
X125615811Y-83031120D01*
X125587472Y-82988708D01*
X125545060Y-82960369D01*
X125154077Y-82569387D01*
X125154075Y-82569384D01*
X125140488Y-82555797D01*
X125140488Y-82360647D01*
X125024480Y-82080580D01*
X124810126Y-81866226D01*
X124530059Y-81750218D01*
X124226917Y-81750218D01*
X123946850Y-81866226D01*
X123732496Y-82080580D01*
X123616488Y-82360647D01*
X123616488Y-82663789D01*
X123732496Y-82943856D01*
X123946850Y-83158210D01*
X124226917Y-83274218D01*
X124422067Y-83274218D01*
X124435654Y-83287805D01*
X124435657Y-83287807D01*
X124713226Y-83565376D01*
X124713225Y-84243546D01*
X124692885Y-84263887D01*
X124637611Y-84208613D01*
X124357544Y-84092605D01*
X124162394Y-84092605D01*
X121912786Y-81842998D01*
X121912786Y-81386244D01*
X122050778Y-81248252D01*
X122166786Y-80968185D01*
X122166786Y-80665043D01*
X122050778Y-80384976D01*
X121836424Y-80170622D01*
X121556357Y-80054614D01*
X121253215Y-80054614D01*
X120973148Y-80170622D01*
X120758794Y-80384976D01*
X120642786Y-80665043D01*
X120642786Y-80968185D01*
X120758794Y-81248252D01*
X120896786Y-81386244D01*
X120896786Y-81405460D01*
X120896787Y-81405464D01*
X120896786Y-82003390D01*
X120886835Y-82053418D01*
X120896786Y-82103446D01*
X120896786Y-82103449D01*
X120920814Y-82224246D01*
X120926261Y-82251629D01*
X121009048Y-82375528D01*
X121038539Y-82419665D01*
X121080954Y-82448006D01*
X123443973Y-84811026D01*
X123443973Y-85006176D01*
X123559981Y-85286243D01*
X123693202Y-85419464D01*
X123727448Y-85591631D01*
X123811385Y-85717252D01*
X123811388Y-85717255D01*
X123839727Y-85759667D01*
X123882139Y-85788006D01*
X123993142Y-85899009D01*
X124021483Y-85941424D01*
X124189518Y-86053702D01*
X124337698Y-86083177D01*
X124337701Y-86083177D01*
X124387729Y-86093128D01*
X124437757Y-86083177D01*
X125034403Y-86083177D01*
X123868601Y-87248979D01*
X121223274Y-87248979D01*
X121173246Y-87239028D01*
X121123218Y-87248979D01*
X121123215Y-87248979D01*
X120975035Y-87278454D01*
X120849414Y-87362391D01*
X120849412Y-87362393D01*
X120807000Y-87390732D01*
X120778661Y-87433144D01*
X120072154Y-88139652D01*
X120029742Y-88167991D01*
X120001403Y-88210403D01*
X120001400Y-88210406D01*
X119917463Y-88336027D01*
X119878037Y-88534238D01*
X119887989Y-88584270D01*
X119887988Y-89436354D01*
X118294181Y-91030161D01*
X118251771Y-91058498D01*
X118223430Y-91100912D01*
X118223425Y-91100917D01*
X118175654Y-91172412D01*
X118139491Y-91226532D01*
X118139491Y-91226534D01*
X118139488Y-91226538D01*
X118129121Y-91278659D01*
X117170200Y-92237579D01*
X117170200Y-87925102D01*
X120402268Y-84693035D01*
X120444679Y-84664697D01*
X120473018Y-84622285D01*
X120473020Y-84622283D01*
X120534165Y-84530772D01*
X120556957Y-84496662D01*
X120586432Y-84348482D01*
X120586432Y-84348478D01*
X120596383Y-84298450D01*
X120586432Y-84248422D01*
X120586432Y-83279615D01*
X120724424Y-83141623D01*
X120840432Y-82861556D01*
X120840432Y-82558414D01*
X120724424Y-82278347D01*
X120510070Y-82063993D01*
X120230003Y-81947985D01*
X119926861Y-81947985D01*
X119646794Y-82063993D01*
X119432440Y-82278347D01*
X119316432Y-82558414D01*
X119316432Y-82861556D01*
X119432440Y-83141623D01*
X119570432Y-83279615D01*
X119570432Y-83298831D01*
X119570433Y-83298836D01*
X119570432Y-84088029D01*
X117812766Y-85845695D01*
X117713876Y-85606953D01*
X117466047Y-85359124D01*
X117142242Y-85225000D01*
X116791758Y-85225000D01*
X116467953Y-85359124D01*
X116233847Y-85593230D01*
X116209865Y-85598000D01*
X116209862Y-85598000D01*
X116072843Y-85625255D01*
X116061682Y-85627475D01*
X115936061Y-85711412D01*
X115936059Y-85711414D01*
X115893647Y-85739753D01*
X115865308Y-85782165D01*
X115266824Y-86380649D01*
X115308000Y-86281242D01*
X115308000Y-85930758D01*
X115173876Y-85606953D01*
X114926047Y-85359124D01*
X114602242Y-85225000D01*
X114251758Y-85225000D01*
X113927953Y-85359124D01*
X113680124Y-85606953D01*
X113546000Y-85930758D01*
X113546000Y-86268580D01*
X113173528Y-86641052D01*
X113131113Y-86669393D01*
X113102773Y-86711807D01*
X113102772Y-86711808D01*
X113075420Y-86752744D01*
X113018835Y-86837429D01*
X112989360Y-86985609D01*
X112989360Y-86985612D01*
X112979409Y-87035640D01*
X112989360Y-87085668D01*
X112989361Y-89080738D01*
X112340445Y-89729655D01*
X112317152Y-89706362D01*
X112037085Y-89590354D01*
X111733943Y-89590354D01*
X111453876Y-89706362D01*
X111239522Y-89920716D01*
X111123514Y-90200783D01*
X111123514Y-90503925D01*
X111143000Y-90550969D01*
X110617013Y-90550968D01*
X110617013Y-90053737D01*
X110626964Y-90003709D01*
X110617013Y-89953679D01*
X110617013Y-89953678D01*
X110587538Y-89805498D01*
X110567449Y-89775433D01*
X110503601Y-89679877D01*
X110503599Y-89679875D01*
X110475260Y-89637463D01*
X110432849Y-89609125D01*
X109164732Y-88341009D01*
X109136392Y-88298595D01*
X109087205Y-88265729D01*
X109097812Y-88261335D01*
X109312166Y-88046981D01*
X109428174Y-87766914D01*
X109428174Y-87571764D01*
X109441761Y-87558177D01*
X109441763Y-87558173D01*
X109670830Y-87329106D01*
X109713247Y-87300764D01*
X109825525Y-87132729D01*
X109855000Y-86984549D01*
X109855000Y-86984546D01*
X109864951Y-86934518D01*
X109857311Y-86896104D01*
X111276501Y-86896104D01*
X111313648Y-87111217D01*
X111741972Y-87254112D01*
X112192375Y-87222217D01*
X112460352Y-87111217D01*
X112497499Y-86896104D01*
X111887000Y-86285605D01*
X111276501Y-86896104D01*
X109857311Y-86896104D01*
X109855000Y-86884490D01*
X109855000Y-86843923D01*
X110093876Y-86605047D01*
X110228000Y-86281242D01*
X110228000Y-85960972D01*
X110738888Y-85960972D01*
X110770783Y-86411375D01*
X110881783Y-86679352D01*
X111096896Y-86716499D01*
X111707395Y-86106000D01*
X112066605Y-86106000D01*
X112677104Y-86716499D01*
X112892217Y-86679352D01*
X113035112Y-86251028D01*
X113003217Y-85800625D01*
X112892217Y-85532648D01*
X112677104Y-85495501D01*
X112066605Y-86106000D01*
X111707395Y-86106000D01*
X111096896Y-85495501D01*
X110881783Y-85532648D01*
X110738888Y-85960972D01*
X110228000Y-85960972D01*
X110228000Y-85930758D01*
X110093876Y-85606953D01*
X109846047Y-85359124D01*
X109741686Y-85315896D01*
X111276501Y-85315896D01*
X111887000Y-85926395D01*
X112497499Y-85315896D01*
X112460352Y-85100783D01*
X112032028Y-84957888D01*
X111581625Y-84989783D01*
X111313648Y-85100783D01*
X111276501Y-85315896D01*
X109741686Y-85315896D01*
X109522242Y-85225000D01*
X109171758Y-85225000D01*
X108847953Y-85359124D01*
X108600124Y-85606953D01*
X108466000Y-85930758D01*
X108466000Y-86281242D01*
X108600124Y-86605047D01*
X108779087Y-86784010D01*
X108723344Y-86839754D01*
X108723340Y-86839756D01*
X108709753Y-86853343D01*
X108514603Y-86853343D01*
X108234536Y-86969351D01*
X108020182Y-87183705D01*
X107904174Y-87463772D01*
X107904174Y-87485518D01*
X107315000Y-86896344D01*
X107315000Y-86843923D01*
X107553876Y-86605047D01*
X107688000Y-86281242D01*
X107688000Y-85930758D01*
X107553876Y-85606953D01*
X107306047Y-85359124D01*
X106982242Y-85225000D01*
X106631758Y-85225000D01*
X106307953Y-85359124D01*
X106060124Y-85606953D01*
X105926000Y-85930758D01*
X105926000Y-86281242D01*
X106060124Y-86605047D01*
X106299001Y-86843924D01*
X106299001Y-87056732D01*
X106289049Y-87106764D01*
X106328475Y-87304975D01*
X106412412Y-87430596D01*
X106412415Y-87430599D01*
X106440754Y-87473011D01*
X106483166Y-87501350D01*
X107668484Y-88686669D01*
X107629983Y-88694327D01*
X107461948Y-88806605D01*
X107433607Y-88849020D01*
X107128628Y-89153999D01*
X106237266Y-89153999D01*
X106187238Y-89144048D01*
X106137210Y-89153999D01*
X106137207Y-89153999D01*
X105989027Y-89183474D01*
X105843071Y-89280999D01*
X105155999Y-89280999D01*
X105155999Y-87698183D01*
X105581435Y-87272748D01*
X105623847Y-87244409D01*
X105652186Y-87201997D01*
X105652188Y-87201995D01*
X105736125Y-87076374D01*
X105744129Y-87036133D01*
X105765600Y-86928194D01*
X105765600Y-86928191D01*
X105775551Y-86878163D01*
X105765600Y-86828135D01*
X105765600Y-84284428D01*
X105775551Y-84234400D01*
X105765600Y-84184372D01*
X105765600Y-84184368D01*
X105736125Y-84036188D01*
X105718902Y-84010412D01*
X105652188Y-83910567D01*
X105652186Y-83910565D01*
X105623847Y-83868153D01*
X105581436Y-83839815D01*
X102743012Y-81001392D01*
X102743012Y-79941044D01*
X102752963Y-79891016D01*
X102743012Y-79840988D01*
X102743012Y-79840984D01*
X102713537Y-79692804D01*
X102629600Y-79567183D01*
X102629598Y-79567181D01*
X102601259Y-79524769D01*
X102558847Y-79496431D01*
X101736483Y-78674067D01*
X101712776Y-78554883D01*
X101696978Y-78531240D01*
X101628839Y-78429262D01*
X101628837Y-78429260D01*
X101600498Y-78386848D01*
X101558086Y-78358510D01*
X100931040Y-77731464D01*
X101601000Y-77731464D01*
X101749659Y-77701894D01*
X101875686Y-77617686D01*
X101959894Y-77491659D01*
X101989464Y-77343000D01*
X101989464Y-75088750D01*
X109336000Y-75088750D01*
X109336000Y-76909310D01*
X109432673Y-77142699D01*
X109611302Y-77321327D01*
X109844691Y-77418000D01*
X111665250Y-77418000D01*
X111824000Y-77259250D01*
X111824000Y-74930000D01*
X112078000Y-74930000D01*
X112078000Y-77259250D01*
X112236750Y-77418000D01*
X114057309Y-77418000D01*
X114290698Y-77321327D01*
X114469327Y-77142699D01*
X114566000Y-76909310D01*
X114566000Y-75088750D01*
X114407250Y-74930000D01*
X112078000Y-74930000D01*
X111824000Y-74930000D01*
X109494750Y-74930000D01*
X109336000Y-75088750D01*
X101989464Y-75088750D01*
X101989464Y-72696690D01*
X109336000Y-72696690D01*
X109336000Y-74517250D01*
X109494750Y-74676000D01*
X111824000Y-74676000D01*
X111824000Y-72346750D01*
X112078000Y-72346750D01*
X112078000Y-74676000D01*
X114407250Y-74676000D01*
X114566000Y-74517250D01*
X114566000Y-72696690D01*
X114469327Y-72463301D01*
X114290698Y-72284673D01*
X114238375Y-72263000D01*
X121912536Y-72263000D01*
X121912536Y-77343000D01*
X121942106Y-77491659D01*
X122026314Y-77617686D01*
X122152341Y-77701894D01*
X122301000Y-77731464D01*
X123571000Y-77731464D01*
X123719659Y-77701894D01*
X123845686Y-77617686D01*
X123929894Y-77491659D01*
X123959464Y-77343000D01*
X123959464Y-76142094D01*
X124028362Y-76210992D01*
X124308429Y-76327000D01*
X124503579Y-76327000D01*
X124586996Y-76410417D01*
X124586997Y-80564149D01*
X124586996Y-80564154D01*
X124586996Y-80583370D01*
X124449004Y-80721362D01*
X124332996Y-81001429D01*
X124332996Y-81304571D01*
X124449004Y-81584638D01*
X124663358Y-81798992D01*
X124943425Y-81915000D01*
X125246567Y-81915000D01*
X125526634Y-81798992D01*
X125740988Y-81584638D01*
X125856996Y-81304571D01*
X125856996Y-81001429D01*
X125740988Y-80721362D01*
X125602996Y-80583370D01*
X125602996Y-76250024D01*
X125612947Y-76199996D01*
X125602996Y-76149968D01*
X125602996Y-76149964D01*
X125573521Y-76001784D01*
X125570083Y-75996638D01*
X125489584Y-75876163D01*
X125489582Y-75876161D01*
X125461243Y-75833749D01*
X125418831Y-75805410D01*
X125222000Y-75608579D01*
X125222000Y-75413429D01*
X125105992Y-75133362D01*
X124891638Y-74919008D01*
X124611571Y-74803000D01*
X124352930Y-74803000D01*
X124987775Y-74168155D01*
X125060373Y-74343422D01*
X125274727Y-74557776D01*
X125554794Y-74673784D01*
X125857936Y-74673784D01*
X126138003Y-74557776D01*
X126155378Y-74540402D01*
X126565060Y-74950084D01*
X126516573Y-74930000D01*
X126213431Y-74930000D01*
X125933364Y-75046008D01*
X125719010Y-75260362D01*
X125603002Y-75540429D01*
X125603002Y-75843571D01*
X125719010Y-76123638D01*
X125933364Y-76337992D01*
X126213431Y-76454000D01*
X126408582Y-76454000D01*
X127421693Y-77467111D01*
X127450034Y-77509526D01*
X127618069Y-77621804D01*
X127766249Y-77651279D01*
X127766252Y-77651279D01*
X127816280Y-77661230D01*
X127866308Y-77651279D01*
X128658455Y-77651279D01*
X128708483Y-77661230D01*
X128758511Y-77651279D01*
X128758515Y-77651279D01*
X128906695Y-77621804D01*
X129074730Y-77509526D01*
X129102575Y-77467853D01*
X129144247Y-77440009D01*
X129256525Y-77271974D01*
X129286000Y-77123794D01*
X129286000Y-77123790D01*
X129295951Y-77073762D01*
X129286000Y-77023734D01*
X129286000Y-73428017D01*
X129295951Y-73377989D01*
X129286000Y-73327961D01*
X129286000Y-73327958D01*
X129256525Y-73179778D01*
X129226821Y-73135323D01*
X129172588Y-73054157D01*
X129172586Y-73054155D01*
X129144247Y-73011743D01*
X129101835Y-72983404D01*
X127295479Y-71177049D01*
X127267138Y-71134634D01*
X127099103Y-71022356D01*
X126950923Y-70992881D01*
X126950919Y-70992881D01*
X126900891Y-70982930D01*
X126850863Y-70992881D01*
X124295710Y-70992881D01*
X124157718Y-70854889D01*
X123877651Y-70738881D01*
X123574509Y-70738881D01*
X123294442Y-70854889D01*
X123080088Y-71069243D01*
X122964080Y-71349310D01*
X122964080Y-71652452D01*
X123056071Y-71874536D01*
X122301000Y-71874536D01*
X122152341Y-71904106D01*
X122026314Y-71988314D01*
X121942106Y-72114341D01*
X121912536Y-72263000D01*
X114238375Y-72263000D01*
X114057309Y-72188000D01*
X112236750Y-72188000D01*
X112078000Y-72346750D01*
X111824000Y-72346750D01*
X111665250Y-72188000D01*
X109844691Y-72188000D01*
X109611302Y-72284673D01*
X109432673Y-72463301D01*
X109336000Y-72696690D01*
X101989464Y-72696690D01*
X101989464Y-72263000D01*
X101959894Y-72114341D01*
X101875686Y-71988314D01*
X101749659Y-71904106D01*
X101601000Y-71874536D01*
X100331000Y-71874536D01*
X100182341Y-71904106D01*
X100056314Y-71988314D01*
X99972106Y-72114341D01*
X99942536Y-72263000D01*
X99942536Y-74022000D01*
X99416893Y-74022000D01*
X98889199Y-73494306D01*
X98889199Y-73202073D01*
X98843884Y-72974260D01*
X98671268Y-72715922D01*
X98412929Y-72543306D01*
X98159301Y-72492856D01*
X100021067Y-70631090D01*
X100216217Y-70631090D01*
X100496284Y-70515082D01*
X100710638Y-70300728D01*
X100826646Y-70020661D01*
X100826646Y-69717519D01*
X100710638Y-69437452D01*
X100496284Y-69223098D01*
X100216217Y-69107090D01*
X99913075Y-69107090D01*
X99633008Y-69223098D01*
X99418654Y-69437452D01*
X99302646Y-69717519D01*
X99302646Y-69912669D01*
X96450168Y-72765148D01*
X96407753Y-72793489D01*
X96379413Y-72835903D01*
X96379412Y-72835904D01*
X96336942Y-72899465D01*
X96295475Y-72961525D01*
X96266000Y-73109705D01*
X96266000Y-73109708D01*
X96256049Y-73159736D01*
X96266000Y-73209764D01*
X96266001Y-75098407D01*
X96256049Y-75148440D01*
X96295475Y-75346651D01*
X96379412Y-75472272D01*
X96379415Y-75472275D01*
X96407754Y-75514687D01*
X96450166Y-75543026D01*
X99154685Y-78247545D01*
X99104891Y-78226920D01*
X98801749Y-78226920D01*
X98521682Y-78342928D01*
X98307328Y-78557282D01*
X98191320Y-78837349D01*
X98191320Y-79140491D01*
X98307328Y-79420558D01*
X98521682Y-79634912D01*
X98673208Y-79697676D01*
X98673207Y-79943302D01*
X98535215Y-80081294D01*
X98419207Y-80361361D01*
X98419207Y-80625978D01*
X96924856Y-80625978D01*
X94890803Y-78591925D01*
X95120019Y-78496980D01*
X95258011Y-78358988D01*
X96382167Y-78358988D01*
X96641908Y-78618730D01*
X96641908Y-78813880D01*
X96757916Y-79093947D01*
X96972270Y-79308301D01*
X97252337Y-79424309D01*
X97555479Y-79424309D01*
X97835546Y-79308301D01*
X98049900Y-79093947D01*
X98165908Y-78813880D01*
X98165908Y-78510738D01*
X98049900Y-78230671D01*
X97835546Y-78016317D01*
X97555479Y-77900309D01*
X97360329Y-77900309D01*
X96987175Y-77527155D01*
X96958834Y-77484741D01*
X96790799Y-77372463D01*
X96642619Y-77342988D01*
X96642615Y-77342988D01*
X96592587Y-77333037D01*
X96542559Y-77342988D01*
X95258011Y-77342988D01*
X95120019Y-77204996D01*
X94839952Y-77088988D01*
X94536810Y-77088988D01*
X94256743Y-77204996D01*
X94042389Y-77419350D01*
X93947444Y-77648566D01*
X93592618Y-77293740D01*
X93609992Y-77276365D01*
X93726000Y-76996298D01*
X93726000Y-76693156D01*
X93609992Y-76413089D01*
X93395638Y-76198735D01*
X93115571Y-76082727D01*
X92812429Y-76082727D01*
X92564819Y-76185291D01*
X92869142Y-75580530D01*
X93822030Y-74026297D01*
X94710397Y-72817467D01*
X94710397Y-73037845D01*
X94826405Y-73317912D01*
X95040759Y-73532266D01*
X95320826Y-73648274D01*
X95623968Y-73648274D01*
X95904035Y-73532266D01*
X96118389Y-73317912D01*
X96234397Y-73037845D01*
X96234397Y-72734703D01*
X96118389Y-72454636D01*
X95904035Y-72240282D01*
X95623968Y-72124274D01*
X95320826Y-72124274D01*
X95256104Y-72151083D01*
X96100362Y-71183705D01*
X97409838Y-69915271D01*
X98820851Y-68760868D01*
X100323519Y-67728580D01*
X101907298Y-66825652D01*
X103563861Y-66057127D01*
X104191048Y-65808806D01*
X104224777Y-65795695D01*
X104238880Y-65787752D01*
X104253990Y-65781929D01*
X104256454Y-65780530D01*
X104747924Y-65497659D01*
X104772723Y-65478233D01*
X104797733Y-65459130D01*
X104799706Y-65457096D01*
X105192028Y-65047655D01*
X105210347Y-65022094D01*
X105229022Y-64996695D01*
X105230345Y-64994189D01*
X105491982Y-64491094D01*
X105502405Y-64461375D01*
X105513186Y-64431798D01*
X105513752Y-64429021D01*
X105519623Y-64399307D01*
X111458276Y-64309641D01*
X118264231Y-64424398D01*
G04 #@! TD*
M02*
