M48
;DRILL file {KiCad 5.0.2-bee76a0~70~ubuntu18.04.1} date Thu 08 Aug 2019 04:15:50 PM SAST
;FORMAT={-:-/ absolute / inch / decimal}
FMAT,2
INCH,TZ
T1C0.0150
%
G90
G05
T1
X3.6148Y-3.335
X3.6568Y-3.2103
X3.66Y-3.0254
X3.6607Y-3.1609
X3.67Y-3.105
X3.6946Y-3.5443
X3.7168Y-3.22
X3.7275Y-3.8035
X3.7279Y-3.065
X3.7333Y-3.5545
X3.7471Y-3.3613
X3.7588Y-2.8695
X3.7589Y-3.71
X3.77Y-2.945
X3.7724Y-3.5654
X3.7868Y-3.8563
X3.7976Y-3.4166
X3.8Y-3.245
X3.8058Y-3.2858
X3.823Y-3.714
X3.8232Y-3.595
X3.8258Y-3.3633
X3.8348Y-3.0969
X3.8494Y-3.4799
X3.8528Y-3.9624
X3.8548Y-3.6618
X3.8551Y-3.9224
X3.8625Y-2.885
X3.8694Y-3.4049
X3.885Y-3.865
X3.8865Y-3.4648
X3.8891Y-3.7137
X3.8958Y-3.1098
X3.9048Y-3.1698
X3.9198Y-3.0178
X3.9201Y-3.739
X3.9396Y-2.7508
X3.9427Y-3.1557
X3.9491Y-3.7046
X3.9519Y-3.4444
X3.9522Y-3.6333
X3.9532Y-3.9328
X3.9663Y-4.0307
X3.971Y-3.184
X3.975Y-3.23
X4.0003Y-3.7979
X4.01Y-3.358
X4.0102Y-4.0323
X4.0111Y-3.2765
X4.019Y-2.8005
X4.0191Y-3.508
X4.0434Y-3.7437
X4.0801Y-3.5677
X4.0911Y-3.6787
X4.0912Y-3.5057
X4.0965Y-2.946
X4.103Y-4.1068
X4.114Y-3.389
X4.1197Y-3.9353
X4.12Y-3.57
X4.1247Y-3.975
X4.164Y-3.7087
X4.178Y-3.5001
X4.2Y-3.56
X4.2149Y-3.6444
X4.215Y-3.86
X4.233Y-2.644
X4.235Y-3.585
X4.254Y-3.2633
X4.255Y-3.735
X4.255Y-3.95
X4.2596Y-3.5407
X4.275Y-4.085
X4.2752Y-3.6601
X4.2782Y-3.4494
X4.2948Y-3.8398
X4.295Y-3.95
X4.3088Y-4.124
X4.3131Y-3.775
X4.3352Y-3.675
X4.3393Y-3.8821
X4.365Y-3.555
X4.3793Y-3.8811
X4.4049Y-3.5572
X4.4086Y-2.6268
X4.425Y-3.83
X4.4413Y-3.5996
X4.47Y-3.945
X4.4802Y-4.1034
X4.4816Y-3.6059
X4.4957Y-3.7169
X4.5003Y-3.8447
X4.5232Y-3.5
X4.525Y-3.605
X4.5265Y-3.9081
X4.538Y-4.1338
X4.5436Y-3.2798
X4.545Y-3.735
X4.5594Y-2.9378
X4.56Y-4.085
X4.563Y-3.49
X4.563Y-3.575
X4.5762Y-3.7987
X4.59Y-3.88
X4.6Y-3.125
X4.615Y-3.7
X4.628Y-3.5646
X4.645Y-3.76
X4.655Y-2.975
X4.6889Y-3.8759
X4.6904Y-3.6907
X4.7Y-3.525
X4.715Y-2.805
X4.7275Y-3.2563
X4.7406Y-3.8846
X4.75Y-3.565
X4.77Y-3.5
X4.77Y-3.55
X4.7775Y-4.0834
X4.7797Y-3.1818
X4.7902Y-4.0234
X4.8018Y-3.635
X4.8103Y-3.8422
X4.8285Y-3.4125
X4.8381Y-3.125
X4.8618Y-3.6603
X4.8618Y-3.7347
X4.87Y-4.025
X4.8711Y-2.815
X4.89Y-3.3407
X4.8919Y-3.6866
X4.895Y-3.55
X4.8968Y-3.2485
X4.9Y-2.975
X4.9032Y-3.6342
X4.925Y-2.8515
X4.925Y-3.195
X4.93Y-3.3391
X4.94Y-3.65
X4.945Y-3.955
X4.9491Y-2.9099
X4.97Y-3.9
X4.975Y-2.98
X4.9754Y-3.4455
X4.985Y-3.105
X4.9862Y-2.8488
X4.9868Y-3.1494
X4.9882Y-3.6
X4.995Y-3.26
X4.9962Y-2.8882
X5.0192Y-3.5001
X5.025Y-3.865
X5.0339Y-3.7535
X5.0345Y-3.0938
X5.035Y-3.39
X5.04Y-2.9313
X5.04Y-3.
X5.065Y-3.105
X5.065Y-3.26
X5.0704Y-3.7699
X5.09Y-3.53
X5.0998Y-3.6701
X5.1019Y-3.367
X5.1174Y-3.7066
X5.13Y-3.105
X5.1362Y-2.9864
X5.14Y-3.565
X5.145Y-3.495
X5.1625Y-3.2105
X5.1643Y-3.3752
X5.246Y-3.395
T0
M30
